SplineFontDB: 3.0
FontName: Samim-Bold
FullName: Samim Bold
FamilyName: Samim
Weight: Bold
Copyright: Copyright (c) 2003 by Bitstream, Inc. All Rights Reserved.\nDejaVu changes are in public domain\nCopyright (c) 2015 by Saber Rastikerdar. All Rights Reserved.\nNon-Arabic(Latin) glyphs and data are imported from Open Sans font under the Apache License, Version 2.0.
Version: 1.0.2
ItalicAngle: 0
UnderlinePosition: -200
UnderlineWidth: 100
Ascent: 1638
Descent: 410
InvalidEm: 0
LayerCount: 2
Layer: 0 1 "Back" 1
Layer: 1 1 "Fore" 0
XUID: [1021 502 1027637223 6769300]
UniqueID: 4141499
UseUniqueID: 1
FSType: 0
OS2Version: 1
OS2_WeightWidthSlopeOnly: 0
OS2_UseTypoMetrics: 1
CreationTime: 1431850356
ModificationTime: 1472248893
PfmFamily: 33
TTFWeight: 700
TTFWidth: 5
LineGap: 0
VLineGap: 0
Panose: 2 11 6 3 3 8 4 2 2 4
OS2TypoAscent: 2250
OS2TypoAOffset: 0
OS2TypoDescent: -1200
OS2TypoDOffset: 0
OS2TypoLinegap: 0
OS2WinAscent: 2250
OS2WinAOffset: 0
OS2WinDescent: 1200
OS2WinDOffset: 0
HheadAscent: 2250
HheadAOffset: 0
HheadDescent: -1200
HheadDOffset: 0
OS2SubXSize: 1331
OS2SubYSize: 1433
OS2SubXOff: 0
OS2SubYOff: 286
OS2SupXSize: 1331
OS2SupYSize: 1433
OS2SupXOff: 0
OS2SupYOff: 983
OS2StrikeYSize: 102
OS2StrikeYPos: 530
OS2Vendor: 'PfEd'
OS2CodePages: 600001ff.dfff0000
Lookup: 1 9 0 "'fina' Terminal Forms in Arabic lookup 9" { "'fina' Terminal Forms in Arabic lookup 9 subtable"  } ['fina' ('arab' <'KUR ' 'SND ' 'URD ' 'dflt' > ) ]
Lookup: 1 9 0 "'medi' Medial Forms in Arabic lookup 11" { "'medi' Medial Forms in Arabic lookup 11 subtable"  } ['medi' ('arab' <'KUR ' 'SND ' 'URD ' 'dflt' > ) ]
Lookup: 1 9 0 "'init' Initial Forms in Arabic lookup 13" { "'init' Initial Forms in Arabic lookup 13 subtable"  } ['init' ('arab' <'KUR ' 'SND ' 'URD ' 'dflt' > ) ]
Lookup: 4 1 1 "'rlig' Required Ligatures in Arabic lookup 14" { "'rlig' Required Ligatures in Arabic lookup 14 subtable"  } ['rlig' ('arab' <'KUR ' 'dflt' > ) ]

StartChar: exclam
Encoding: 33 33 1
Width: 630
VWidth: 2215
GlyphClass: 2
Flags: W
LayerCount: 2
Fore
SplineSet
150.471679688 165.6875 m 128,-1,1
 150.471679688 233.534179688 150.471679688 233.534179688 199.438476562 282.499023438 c 128,-1,2
 248.321289062 331.383789062 248.321289062 331.383789062 315.129882812 330.35546875 c 0,3,4
 401.39453125 331.68359375 401.39453125 331.68359375 451.75390625 257.185546875 c 0,5,6
 479.788085938 215.713867188 479.788085938 215.713867188 479.788085938 156.778320312 c 128,-1,7
 479.788085938 97.8427734375 479.788085938 97.8427734375 430.821289062 48.8779296875 c 128,-1,8
 381.938476562 -0.0078125 381.938476562 -0.0078125 315.130859375 -0.0068359375 c 128,-1,9
 248.322265625 -0.0068359375 248.322265625 -0.0068359375 199.438476562 48.876953125 c 128,-1,0
 150.471679688 97.841796875 150.471679688 97.841796875 150.471679688 165.6875 c 128,-1,1
169.158203125 1580.36035156 m 1,10,-1
 461.416015625 1580.36035156 l 1,11,-1
 438.940429688 494.459960938 l 1,12,-1
 192.7578125 494.459960938 l 1,13,-1
 169.158203125 1580.36035156 l 1,10,-1
EndSplineSet
EndChar

StartChar: period
Encoding: 46 46 2
Width: 629
VWidth: 2215
GlyphClass: 2
Flags: W
LayerCount: 2
Fore
SplineSet
150 165.6875 m 128,-1,1
 150 233.534179688 150 233.534179688 198.966796875 282.499023438 c 128,-1,2
 247.849609375 331.383789062 247.849609375 331.383789062 314.658203125 330.35546875 c 0,3,4
 400.922851562 331.68359375 400.922851562 331.68359375 451.282226562 257.185546875 c 0,5,6
 479.31640625 215.713867188 479.31640625 215.713867188 479.31640625 156.778320312 c 128,-1,7
 479.31640625 97.8427734375 479.31640625 97.8427734375 430.349609375 48.8779296875 c 128,-1,8
 381.466796875 -0.0078125 381.466796875 -0.0078125 314.659179688 -0.0068359375 c 128,-1,9
 247.850585938 -0.0068359375 247.850585938 -0.0068359375 198.966796875 48.876953125 c 128,-1,0
 150 97.841796875 150 97.841796875 150 165.6875 c 128,-1,1
EndSplineSet
EndChar

StartChar: colon
Encoding: 58 58 3
Width: 630
VWidth: 2215
GlyphClass: 2
Flags: W
LayerCount: 2
Fore
SplineSet
150 915.6875 m 128,-1,1
 150 983.534179688 150 983.534179688 198.966796875 1032.49902344 c 128,-1,2
 247.849609375 1081.38378906 247.849609375 1081.38378906 314.658203125 1080.35546875 c 0,3,4
 400.922851562 1081.68359375 400.922851562 1081.68359375 451.282226562 1007.18554688 c 0,5,6
 479.31640625 965.713867188 479.31640625 965.713867188 479.31640625 906.778320312 c 128,-1,7
 479.31640625 847.842773438 479.31640625 847.842773438 430.349609375 798.877929688 c 128,-1,8
 381.466796875 749.9921875 381.466796875 749.9921875 314.659179688 749.993164062 c 128,-1,9
 247.850585938 749.993164062 247.850585938 749.993164062 198.966796875 798.876953125 c 128,-1,0
 150 847.841796875 150 847.841796875 150 915.6875 c 128,-1,1
150 165.6875 m 128,-1,11
 150 233.534179688 150 233.534179688 198.966796875 282.499023438 c 128,-1,12
 247.849609375 331.383789062 247.849609375 331.383789062 314.658203125 330.35546875 c 0,13,14
 400.922851562 331.68359375 400.922851562 331.68359375 451.282226562 257.185546875 c 0,15,16
 479.31640625 215.713867188 479.31640625 215.713867188 479.31640625 156.778320312 c 128,-1,17
 479.31640625 97.8427734375 479.31640625 97.8427734375 430.349609375 48.8779296875 c 128,-1,18
 381.466796875 -0.0078125 381.466796875 -0.0078125 314.659179688 -0.0068359375 c 128,-1,19
 247.850585938 -0.0068359375 247.850585938 -0.0068359375 198.966796875 48.876953125 c 128,-1,10
 150 97.841796875 150 97.841796875 150 165.6875 c 128,-1,11
EndSplineSet
EndChar

StartChar: afii57388
Encoding: 1548 1548 5
Width: 641
VWidth: 2222
GlyphClass: 2
Flags: W
LayerCount: 2
Fore
SplineSet
325.049804688 0 m 2,0,1
 245.569335938 0 245.569335938 0 197.784179688 43.0830078125 c 128,-1,2
 150 86.166015625 150 86.166015625 150 162.384765625 c 2,3,-1
 150 232.934570312 l 2,4,5
 149.728515625 505.158203125 149.728515625 505.158203125 392.3125 691.529296875 c 2,6,-1
 414.64453125 708.686523438 l 1,7,-1
 560.56640625 635.794921875 l 1,8,-1
 520.549804688 591.8203125 l 2,9,10
 406.393554688 466.373046875 406.393554688 466.373046875 385.7421875 351.854492188 c 1,11,12
 439.930664062 342.06640625 439.930664062 342.06640625 467.658203125 299.91015625 c 128,-1,13
 495.385742188 257.752929688 495.385742188 257.752929688 495.385742188 197.830078125 c 2,14,-1
 495.385742188 160.8515625 l 2,15,16
 495.6171875 87.6171875 495.6171875 87.6171875 453.376953125 43.80859375 c 128,-1,17
 411.13671875 0 411.13671875 0 338.731445312 0 c 2,18,-1
 325.049804688 0 l 2,0,1
EndSplineSet
EndChar

StartChar: uni0615
Encoding: 1557 1557 6
Width: 6
VWidth: 2317
GlyphClass: 4
Flags: W
AnchorPoint: "Anchor-10" 583.891 1359.45 mark 0
AnchorPoint: "Anchor-9" 583.891 1359.45 mark 0
AnchorPoint: "Anchor-1" 583.891 2096.68 basemark 0
AnchorPoint: "Anchor-1" 583.891 1359.45 mark 0
LayerCount: 2
Fore
SplineSet
554.435001595 1573.23730469 m 1,0,-1
 588.427734375 1573.23730469 l 2,1,2
 746.908517937 1573.23730469 746.908517937 1573.23730469 750.092096885 1643.99446539 c 0,3,4
 752.128525213 1675.61325536 752.128525213 1675.61325536 729.41319369 1679.26028016 c 4,5,6
 720.958219567 1680.6177554 720.958219567 1680.6177554 709.893088744 1678.35393478 c 0,7,8
 646.984299383 1665.48339432 646.984299383 1665.48339432 554.435001595 1573.23730469 c 1,0,-1
891.717372484 1641.98644336 m 0,9,10
 891.752837043 1545.91649524 891.752837043 1545.91649524 819.942630192 1490.43039439 c 128,-1,11
 748.132423341 1434.94429354 748.132423341 1434.94429354 614.514648438 1434.8828125 c 2,12,-1
 277.09765625 1434.8828125 l 1,13,-1
 277.09765625 1573.23730469 l 1,14,-1
 368.967773438 1573.23730469 l 1,15,-1
 368.967773438 2025.78320312 l 1,16,-1
 508.45703125 2025.78320312 l 1,17,-1
 508.45703125 1683.96322477 l 1,18,19
 629.061148212 1813.74797341 629.061148212 1813.74797341 739 1813.65111867 c 0,20,21
 891.654051513 1813.51663239 891.654051513 1813.51663239 891.717372484 1641.98644336 c 0,9,10
EndSplineSet
EndChar

StartChar: uni061B
Encoding: 1563 1563 7
Width: 641
VWidth: 2222
GlyphClass: 2
Flags: W
LayerCount: 2
Fore
SplineSet
158.16015625 165.6875 m 128,-1,1
 158.16015625 233.534179688 158.16015625 233.534179688 207.126953125 282.499023438 c 128,-1,2
 256.009765625 331.383789062 256.009765625 331.383789062 322.818359375 330.35546875 c 0,3,4
 409.083007812 331.68359375 409.083007812 331.68359375 459.442382812 257.185546875 c 0,5,6
 487.4765625 215.713867188 487.4765625 215.713867188 487.4765625 156.778320312 c 128,-1,7
 487.4765625 97.8427734375 487.4765625 97.8427734375 438.509765625 48.8779296875 c 128,-1,8
 389.626953125 -0.0078125 389.626953125 -0.0078125 322.819335938 -0.0068359375 c 128,-1,9
 256.010742188 -0.0068359375 256.010742188 -0.0068359375 207.126953125 48.876953125 c 128,-1,0
 158.16015625 97.841796875 158.16015625 97.841796875 158.16015625 165.6875 c 128,-1,1
325.049804688 417.545898438 m 2,10,11
 216.678710938 417.545898438 216.678710938 417.545898438 172.061523438 492.278320312 c 0,12,13
 150 529.23046875 150 529.23046875 150 579.930664062 c 2,14,-1
 150 650.474609375 l 2,15,16
 149.661132812 923.193359375 149.661132812 923.193359375 392.36328125 1109.11328125 c 2,17,-1
 414.68359375 1126.21191406 l 1,18,-1
 560.487304688 1053.38183594 l 1,19,-1
 520.594726562 1009.41503906 l 2,20,21
 406.345703125 883.495117188 406.345703125 883.495117188 385.729492188 769.275390625 c 1,22,23
 440.015625 759.215820312 440.015625 759.215820312 467.700195312 717.185546875 c 128,-1,24
 495.385742188 675.155273438 495.385742188 675.155273438 495.385742188 615.375976562 c 2,25,-1
 495.385742188 573.387695312 l 2,26,27
 495.58203125 502.0078125 495.58203125 502.0078125 453.012695312 459.77734375 c 128,-1,28
 410.444335938 417.545898438 410.444335938 417.545898438 338.731445312 417.545898438 c 2,29,-1
 325.049804688 417.545898438 l 2,10,11
EndSplineSet
EndChar

StartChar: uni061F
Encoding: 1567 1567 8
Width: 1137
VWidth: 2215
GlyphClass: 2
Flags: W
LayerCount: 2
Fore
SplineSet
477.751953125 165.6875 m 132,-1,1
 477.751953125 233.533203125 477.751953125 233.533203125 526.717773438 282.499023438 c 132,-1,2
 575.6015625 331.383789062 575.6015625 331.383789062 642.41015625 330.35546875 c 4,3,4
 709.213867188 331.387695312 709.213867188 331.387695312 758.102539062 282.499023438 c 132,-1,5
 807.067382812 233.534179688 807.067382812 233.534179688 807.067382812 165.6875 c 132,-1,6
 807.067382812 97.841796875 807.067382812 97.841796875 758.1015625 48.8779296875 c 132,-1,7
 709.217773438 -0.0068359375 709.217773438 -0.0068359375 642.41015625 -0.0068359375 c 132,-1,8
 575.6015625 -0.0068359375 575.6015625 -0.0068359375 526.717773438 48.8779296875 c 132,-1,0
 477.751953125 97.8427734375 477.751953125 97.8427734375 477.751953125 165.6875 c 132,-1,1
503.780273438 505.059570312 m 5,9,-1
 503.780273438 551.219726562 l 6,10,11
 504.401367188 618.467773438 504.401367188 618.467773438 402.711914062 717.845703125 c 6,12,-1
 309.42578125 809.010742188 l 6,13,14
 126 988 126 988 126 1130.5 c 132,-1,15
 126 1273 126 1273 184.72265625 1367.71386719 c 4,16,17
 320 1586 320 1586 604.477539062 1585.75976562 c 4,18,19
 817.258789062 1586 817.258789062 1586 1022.10253906 1464.26660156 c 6,20,-1
 1056.15625 1444.02929688 l 5,21,-1
 952.388671875 1204.66113281 l 5,22,-1
 909.532226562 1226.984375 l 6,23,24
 612 1382 612 1382 472.76171875 1266.04882812 c 4,25,26
 417 1219 417 1219 417 1141.04980469 c 132,-1,27
 417 1063.09960938 417 1063.09960938 520.200195312 961.045898438 c 6,28,-1
 615.568359375 866.737304688 l 6,29,30
 781.400390625 702.603515625 781.400390625 702.603515625 781.400390625 554.080078125 c 6,31,-1
 781.400390625 505.059570312 l 5,32,-1
 503.780273438 505.059570312 l 5,9,-1
EndSplineSet
EndChar

StartChar: uni0621
Encoding: 1569 1569 9
Width: 828
VWidth: 2356
GlyphClass: 2
Flags: W
AnchorPoint: "Anchor-7" 405.54 -162.76 basechar 0
AnchorPoint: "Anchor-10" 355.19 1100.23 basechar 0
LayerCount: 2
Fore
SplineSet
71.3408203125 -30.3359375 m 1,0,-1
 71.3408203125 214.602539062 l 1,1,-1
 210.78125 269.966796875 l 1,2,3
 72.689453125 357.298828125 72.689453125 357.298828125 75.1591796875 536.9765625 c 0,4,5
 76.5205078125 633.096679688 76.5205078125 633.096679688 118.108398438 708.172851562 c 128,-1,6
 159.696289062 783.248046875 159.696289062 783.248046875 238.901367188 831.32421875 c 0,7,8
 394.03515625 925.490234375 394.03515625 925.490234375 628.25 874.068359375 c 2,9,-1
 663.599609375 866.307617188 l 1,10,-1
 663.599609375 616.28515625 l 1,11,-1
 606.76171875 631.783203125 l 2,12,13
 459.551757812 671.923828125 459.551757812 671.923828125 385.841796875 634.443359375 c 0,14,15
 351.647460938 617.056640625 351.647460938 617.056640625 336.662109375 592.116210938 c 128,-1,16
 321.67578125 567.176757812 321.67578125 567.176757812 321.944335938 527.543945312 c 0,17,18
 321.990234375 508.487304688 321.990234375 508.487304688 325.82421875 493.481445312 c 128,-1,19
 329.657226562 478.475585938 329.657226562 478.475585938 338.499023438 465.42578125 c 128,-1,20
 347.33984375 452.375 347.33984375 452.375 361.749023438 442.627929688 c 128,-1,21
 376.158203125 432.880859375 376.158203125 432.880859375 397.400390625 425.389648438 c 128,-1,22
 418.641601562 417.8984375 418.641601562 417.8984375 447.232421875 412.961914062 c 0,23,24
 481.125976562 407.124023438 481.125976562 407.124023438 526.004882812 409.016601562 c 0,25,26
 536.254882812 409.44921875 536.254882812 409.44921875 558.053710938 415.50390625 c 128,-1,27
 579.853515625 421.55859375 579.853515625 421.55859375 615.948242188 435.036132812 c 128,-1,28
 652.043945312 448.513671875 652.043945312 448.513671875 693.595703125 466.991210938 c 2,29,-1
 756.879882812 495.131835938 l 1,30,-1
 756.879882812 240.780273438 l 1,31,-1
 71.3408203125 -30.3359375 l 1,0,-1
EndSplineSet
EndChar

StartChar: uni0627
Encoding: 1575 1575 15
Width: 498
VWidth: 2356
GlyphClass: 2
Flags: W
AnchorPoint: "Anchor-10" 249.19 1592.38 basechar 0
AnchorPoint: "Anchor-7" 256.61 -189.79 basechar 0
LayerCount: 2
Fore
SplineSet
116.913085938 1446.53222656 m 5,0,-1
 380.516601562 1560.79296875 l 5,1,-1
 380.516601562 1.58984375 l 1,2,-1
 162.736328125 1.58984375 l 1,3,-1
 116.913085938 1446.53222656 l 5,0,-1
EndSplineSet
Substitution2: "'fina' Terminal Forms in Arabic lookup 9 subtable" uniFE8E
EndChar

StartChar: uni062D
Encoding: 1581 1581 21
Width: 1350
VWidth: 2356
GlyphClass: 2
Flags: W
AnchorPoint: "Anchor-10" 556.59 1280.96 basechar 0
AnchorPoint: "Anchor-7" 435.525 -738.648 basechar 0
LayerCount: 2
Fore
SplineSet
725.723632812 624.227539062 m 5,0,1
 561 700 561 700 528.055664062 701.845214844 c 128,-1,2
 495.111328125 703.690429688 495.111328125 703.690429688 458.166015625 687.908203125 c 0,3,4
 379.480187071 654.295344294 379.480187071 654.295344294 295.346679688 546.109375 c 2,5,-1
 266.766601562 509.359375 l 1,6,-1
 84.4697265625 661.337890625 l 1,7,-1
 107.55078125 695.104492188 l 2,8,9
 291.69140625 964.5 291.69140625 964.5 514.719726562 964.5 c 0,10,11
 552.508789062 964.5 552.508789062 964.5 596.679199219 952.561523438 c 128,-1,12
 640.849609375 940.623046875 640.849609375 940.623046875 760.124023438 882.349121094 c 0,13,14
 956.348347157 786.479761627 956.348347157 786.479761627 1034.37388061 759.448865188 c 128,-1,15
 1112.39941406 732.41796875 1112.39941406 732.41796875 1200.63574219 720.48046875 c 2,16,-1
 1245.3125 714.436523438 l 1,17,-1
 1210.10742188 457.805664062 l 1,18,-1
 1173.85546875 455.067382812 l 2,19,20
 1046.97089075 445.481935775 1046.97089075 445.481935775 1024.47949219 443.356445312 c 0,21,22
 789.635742188 414.627929688 789.635742188 414.627929688 638.412109375 327.61328125 c 0,23,24
 335.0078125 152.57421875 335.0078125 152.57421875 335.084960938 -95.1005859375 c 0,25,26
 335.012627406 -229.163169325 335.012627406 -229.163169325 434.421841047 -309.157268257 c 128,-1,27
 533.831054688 -389.151367188 533.831054688 -389.151367188 801.8515625 -389.671875 c 0,28,29
 992.897460938 -390.163085938 992.897460938 -390.163085938 1163.70117188 -341.388671875 c 2,30,-1
 1204.6015625 -329.708984375 l 1,31,-1
 1287.90136719 -569.407226562 l 1,32,-1
 1243.25683594 -583.094726562 l 2,33,34
 1029.21777344 -648.71484375 1029.21777344 -648.71484375 803.9140625 -648.865234375 c 0,35,36
 370.978515625 -648.711914062 370.978515625 -648.711914062 197.631835938 -445.30078125 c 0,37,38
 76.4599609375 -303.376953125 76.4599609375 -303.376953125 76.4599609375 -99.6069335935 c 128,-1,39
 76.4599609375 104.163085938 76.4599609375 104.163085938 186.03125 269.125976562 c 0,40,41
 355.614778721 525.231692869 355.614778721 525.231692869 725.723632812 624.227539062 c 5,0,1
EndSplineSet
Substitution2: "'fina' Terminal Forms in Arabic lookup 9 subtable" uniFEA2
Substitution2: "'medi' Medial Forms in Arabic lookup 11 subtable" uniFEA4
Substitution2: "'init' Initial Forms in Arabic lookup 13 subtable" uniFEA3
EndChar

StartChar: uni062F
Encoding: 1583 1583 23
Width: 1042
VWidth: 2356
GlyphClass: 2
Flags: W
AnchorPoint: "Anchor-10" 434.091 1266.98 basechar 0
AnchorPoint: "Anchor-7" 420.442 -171.688 basechar 0
LayerCount: 2
Fore
SplineSet
136.856445312 287.266601562 m 2,0,1
 242.806640625 252.30078125 242.806640625 252.30078125 386.612304688 252.565429688 c 0,2,3
 608.176757812 252.97265625 608.176757812 252.97265625 692.015625 314.739257812 c 0,4,5
 722.938476562 337.791992188 722.938476562 337.791992188 722.815429688 360.80859375 c 0,6,7
 723.009765625 397.186523438 723.009765625 397.186523438 708.440429688 430.5859375 c 0,8,9
 626.29296875 625.984375 626.29296875 625.984375 371.735351562 819.907226562 c 2,10,-1
 338.508789062 845.21875 l 1,11,-1
 482.157226562 1066.11816406 l 1,12,-1
 520.630859375 1037.38867188 l 2,13,14
 914.55859375 743.228515625 914.55859375 743.228515625 964.482421875 430.506835938 c 0,15,16
 969.931640625 395.124023438 969.931640625 395.124023438 970.018554688 362.315429688 c 0,17,18
 969.927734375 175.384765625 969.927734375 175.384765625 798.88671875 72.3623046875 c 0,19,20
 650.189453125 -16.9384765625 650.189453125 -16.9384765625 374.140625 -17.4072265625 c 0,21,22
 203.7734375 -16.9384765625 203.7734375 -16.9384765625 107.334960938 17.1826171875 c 2,23,-1
 77.2744140625 27.818359375 l 1,24,-1
 77.8916015625 306.725585938 l 1,25,-1
 136.856445312 287.266601562 l 2,0,1
EndSplineSet
Substitution2: "'fina' Terminal Forms in Arabic lookup 9 subtable" uniFEAA
EndChar

StartChar: uni0631
Encoding: 1585 1585 25
Width: 937
VWidth: 2362
GlyphClass: 2
Flags: W
AnchorPoint: "Anchor-7" 493.38 -667.85 basechar 0
AnchorPoint: "Anchor-10" 518.618 1046.71 basechar 0
LayerCount: 2
Fore
SplineSet
801.811523438 622.142578125 m 2,0,1
 908.373046875 324.234375 908.373046875 324.234375 875.619140625 92.8203125 c 0,2,3
 831.903320312 -214.345703125 831.903320312 -214.345703125 647.439453125 -373.76953125 c 128,-1,4
 462.974609375 -533.192382812 462.974609375 -533.192382812 149.084960938 -535.541992188 c 2,5,-1
 120.32421875 -535.749023438 l 1,6,-1
 12.4293981028 -339 l 2,7,8
 -1.755859375 -313.1328125 -1.755859375 -313.1328125 19 -311.675246229 c 2,9,-1
 68.33203125 -308.2109375 l 2,10,11
 340.221679688 -289.120117188 340.221679688 -289.120117188 475.499023438 -182.341796875 c 128,-1,12
 610.776367188 -75.5634765625 610.776367188 -75.5634765625 625.186523438 122.48046875 c 0,13,14
 632.393554688 222.986328125 632.393554688 222.986328125 561.223632812 488.560546875 c 2,15,-1
 553.006835938 519.220703125 l 1,16,-1
 770 668.945227798 l 2,17,18
 782.086914063 677.28515625 782.086914063 677.28515625 786.839040757 664 c 6,19,-1
 801.811523438 622.142578125 l 2,0,1
EndSplineSet
PairPos2: "'kern' Horizontal Kerning lookup 15-1" uni06CA dx=-85 dy=0 dh=-85 dv=0 dx=0 dy=0 dh=0 dv=0
PairPos2: "'kern' Horizontal Kerning lookup 15-1" uniFB90 dx=-307 dy=0 dh=-307 dv=0 dx=0 dy=0 dh=0 dv=0
PairPos2: "'kern' Horizontal Kerning lookup 15-1" uniFB8E dx=-307 dy=0 dh=-307 dv=0 dx=0 dy=0 dh=0 dv=0
PairPos2: "'kern' Horizontal Kerning lookup 15-1" uni06A9 dx=-307 dy=0 dh=-307 dv=0 dx=0 dy=0 dh=0 dv=0
PairPos2: "'kern' Horizontal Kerning lookup 15-1" uni064A dx=-106 dy=0 dh=-106 dv=0 dx=0 dy=0 dh=0 dv=0
PairPos2: "'kern' Horizontal Kerning lookup 15-1" afii57414 dx=-106 dy=0 dh=-106 dv=0 dx=0 dy=0 dh=0 dv=0
PairPos2: "'kern' Horizontal Kerning lookup 15-1" uniFBE8 dx=-212 dy=0 dh=-212 dv=0 dx=0 dy=0 dh=0 dv=0
PairPos2: "'kern' Horizontal Kerning lookup 15-1" uni0649 dx=-106 dy=0 dh=-106 dv=0 dx=0 dy=0 dh=0 dv=0
PairPos2: "'kern' Horizontal Kerning lookup 15-1" uni0648 dx=-85 dy=0 dh=-85 dv=0 dx=0 dy=0 dh=0 dv=0
PairPos2: "'kern' Horizontal Kerning lookup 15-1" afii57412 dx=-85 dy=0 dh=-85 dv=0 dx=0 dy=0 dh=0 dv=0
PairPos2: "'kern' Horizontal Kerning lookup 15-1" uniFEEB dx=-212 dy=0 dh=-212 dv=0 dx=0 dy=0 dh=0 dv=0
PairPos2: "'kern' Horizontal Kerning lookup 15-1" uni0647 dx=-212 dy=0 dh=-212 dv=0 dx=0 dy=0 dh=0 dv=0
PairPos2: "'kern' Horizontal Kerning lookup 15-1" uniFEE7 dx=-212 dy=0 dh=-212 dv=0 dx=0 dy=0 dh=0 dv=0
PairPos2: "'kern' Horizontal Kerning lookup 15-1" uni0646 dx=-159 dy=0 dh=-159 dv=0 dx=0 dy=0 dh=0 dv=0
PairPos2: "'kern' Horizontal Kerning lookup 15-1" uniFEE3 dx=-212 dy=0 dh=-212 dv=0 dx=0 dy=0 dh=0 dv=0
PairPos2: "'kern' Horizontal Kerning lookup 15-1" uni0645 dx=-212 dy=0 dh=-212 dv=0 dx=0 dy=0 dh=0 dv=0
PairPos2: "'kern' Horizontal Kerning lookup 15-1" uniFEFB dx=-212 dy=0 dh=-212 dv=0 dx=0 dy=0 dh=0 dv=0
PairPos2: "'kern' Horizontal Kerning lookup 15-1" uniFEDF dx=-212 dy=0 dh=-212 dv=0 dx=0 dy=0 dh=0 dv=0
PairPos2: "'kern' Horizontal Kerning lookup 15-1" uni0644 dx=-159 dy=0 dh=-159 dv=0 dx=0 dy=0 dh=0 dv=0
PairPos2: "'kern' Horizontal Kerning lookup 15-1" uniFEDB dx=-307 dy=0 dh=-307 dv=0 dx=0 dy=0 dh=0 dv=0
PairPos2: "'kern' Horizontal Kerning lookup 15-1" uni0643 dx=-212 dy=0 dh=-212 dv=0 dx=0 dy=0 dh=0 dv=0
PairPos2: "'kern' Horizontal Kerning lookup 15-1" uniFED7 dx=-212 dy=0 dh=-212 dv=0 dx=0 dy=0 dh=0 dv=0
PairPos2: "'kern' Horizontal Kerning lookup 15-1" uni0642 dx=-159 dy=0 dh=-159 dv=0 dx=0 dy=0 dh=0 dv=0
PairPos2: "'kern' Horizontal Kerning lookup 15-1" uniFED3 dx=-212 dy=0 dh=-212 dv=0 dx=0 dy=0 dh=0 dv=0
PairPos2: "'kern' Horizontal Kerning lookup 15-1" uni0641 dx=-212 dy=0 dh=-212 dv=0 dx=0 dy=0 dh=0 dv=0
PairPos2: "'kern' Horizontal Kerning lookup 15-1" uniFECF dx=-212 dy=0 dh=-212 dv=0 dx=0 dy=0 dh=0 dv=0
PairPos2: "'kern' Horizontal Kerning lookup 15-1" uniFECB dx=-212 dy=0 dh=-212 dv=0 dx=0 dy=0 dh=0 dv=0
PairPos2: "'kern' Horizontal Kerning lookup 15-1" uniFEC7 dx=-212 dy=0 dh=-212 dv=0 dx=0 dy=0 dh=0 dv=0
PairPos2: "'kern' Horizontal Kerning lookup 15-1" uni0638 dx=-212 dy=0 dh=-212 dv=0 dx=0 dy=0 dh=0 dv=0
PairPos2: "'kern' Horizontal Kerning lookup 15-1" uniFEC3 dx=-212 dy=0 dh=-212 dv=0 dx=0 dy=0 dh=0 dv=0
PairPos2: "'kern' Horizontal Kerning lookup 15-1" uni0637 dx=-212 dy=0 dh=-212 dv=0 dx=0 dy=0 dh=0 dv=0
PairPos2: "'kern' Horizontal Kerning lookup 15-1" uniFEBF dx=-212 dy=0 dh=-212 dv=0 dx=0 dy=0 dh=0 dv=0
PairPos2: "'kern' Horizontal Kerning lookup 15-1" uni0636 dx=-212 dy=0 dh=-212 dv=0 dx=0 dy=0 dh=0 dv=0
PairPos2: "'kern' Horizontal Kerning lookup 15-1" uniFEBB dx=-212 dy=0 dh=-212 dv=0 dx=0 dy=0 dh=0 dv=0
PairPos2: "'kern' Horizontal Kerning lookup 15-1" uni0635 dx=-212 dy=0 dh=-212 dv=0 dx=0 dy=0 dh=0 dv=0
PairPos2: "'kern' Horizontal Kerning lookup 15-1" uniFEB7 dx=-212 dy=0 dh=-212 dv=0 dx=0 dy=0 dh=0 dv=0
PairPos2: "'kern' Horizontal Kerning lookup 15-1" uni0634 dx=-212 dy=0 dh=-212 dv=0 dx=0 dy=0 dh=0 dv=0
PairPos2: "'kern' Horizontal Kerning lookup 15-1" uniFEB3 dx=-212 dy=0 dh=-212 dv=0 dx=0 dy=0 dh=0 dv=0
PairPos2: "'kern' Horizontal Kerning lookup 15-1" uni0633 dx=-212 dy=0 dh=-212 dv=0 dx=0 dy=0 dh=0 dv=0
PairPos2: "'kern' Horizontal Kerning lookup 15-1" uni0632 dx=-85 dy=0 dh=-85 dv=0 dx=0 dy=0 dh=0 dv=0
PairPos2: "'kern' Horizontal Kerning lookup 15-1" uni0631 dx=-85 dy=0 dh=-85 dv=0 dx=0 dy=0 dh=0 dv=0
PairPos2: "'kern' Horizontal Kerning lookup 15-1" uni0630 dx=-212 dy=0 dh=-212 dv=0 dx=0 dy=0 dh=0 dv=0
PairPos2: "'kern' Horizontal Kerning lookup 15-1" uni062F dx=-212 dy=0 dh=-212 dv=0 dx=0 dy=0 dh=0 dv=0
PairPos2: "'kern' Horizontal Kerning lookup 15-1" uniFEA7 dx=-212 dy=0 dh=-212 dv=0 dx=0 dy=0 dh=0 dv=0
PairPos2: "'kern' Horizontal Kerning lookup 15-1" uniFEA3 dx=-212 dy=0 dh=-212 dv=0 dx=0 dy=0 dh=0 dv=0
PairPos2: "'kern' Horizontal Kerning lookup 15-1" uniFE9F dx=-212 dy=0 dh=-212 dv=0 dx=0 dy=0 dh=0 dv=0
PairPos2: "'kern' Horizontal Kerning lookup 15-1" uniFE9B dx=-212 dy=0 dh=-212 dv=0 dx=0 dy=0 dh=0 dv=0
PairPos2: "'kern' Horizontal Kerning lookup 15-1" uni062B dx=-212 dy=0 dh=-212 dv=0 dx=0 dy=0 dh=0 dv=0
PairPos2: "'kern' Horizontal Kerning lookup 15-1" uniFE97 dx=-212 dy=0 dh=-212 dv=0 dx=0 dy=0 dh=0 dv=0
PairPos2: "'kern' Horizontal Kerning lookup 15-1" uni062A dx=-212 dy=0 dh=-212 dv=0 dx=0 dy=0 dh=0 dv=0
PairPos2: "'kern' Horizontal Kerning lookup 15-1" uni0629 dx=-212 dy=0 dh=-212 dv=0 dx=0 dy=0 dh=0 dv=0
PairPos2: "'kern' Horizontal Kerning lookup 15-1" uniFE91 dx=-85 dy=0 dh=-85 dv=0 dx=0 dy=0 dh=0 dv=0
PairPos2: "'kern' Horizontal Kerning lookup 15-1" uni0628 dx=-212 dy=0 dh=-212 dv=0 dx=0 dy=0 dh=0 dv=0
PairPos2: "'kern' Horizontal Kerning lookup 15-1" uni0627 dx=-212 dy=0 dh=-212 dv=0 dx=0 dy=0 dh=0 dv=0
PairPos2: "'kern' Horizontal Kerning lookup 15-1" uni0623 dx=-212 dy=0 dh=-212 dv=0 dx=0 dy=0 dh=0 dv=0
PairPos2: "'kern' Horizontal Kerning lookup 15-1" uni0622 dx=-212 dy=0 dh=-212 dv=0 dx=0 dy=0 dh=0 dv=0
PairPos2: "'kern' Horizontal Kerning lookup 15-1" uni0621 dx=-212 dy=0 dh=-212 dv=0 dx=0 dy=0 dh=0 dv=0
PairPos2: "'kern' Horizontal Kerning lookup 15-1" uniFB94 dx=-307 dy=0 dh=-307 dv=0 dx=0 dy=0 dh=0 dv=0
PairPos2: "'kern' Horizontal Kerning lookup 15-1" uniFB92 dx=-307 dy=0 dh=-307 dv=0 dx=0 dy=0 dh=0 dv=0
PairPos2: "'kern' Horizontal Kerning lookup 15-1" afii57509 dx=-307 dy=0 dh=-307 dv=0 dx=0 dy=0 dh=0 dv=0
PairPos2: "'kern' Horizontal Kerning lookup 15-1" afii57508 dx=-85 dy=0 dh=-85 dv=0 dx=0 dy=0 dh=0 dv=0
PairPos2: "'kern' Horizontal Kerning lookup 15-1" uniFB7C dx=-159 dy=0 dh=-159 dv=0 dx=0 dy=0 dh=0 dv=0
PairPos2: "'kern' Horizontal Kerning lookup 15-1" afii57506 dx=-212 dy=0 dh=-212 dv=0 dx=0 dy=0 dh=0 dv=0
PairPos2: "'kern' Horizontal Kerning lookup 15-1" afii57440 dx=-212 dy=0 dh=-212 dv=0 dx=0 dy=0 dh=0 dv=0
PairPos2: "'kern' Horizontal Kerning lookup 15-1" uniFE8B dx=-212 dy=0 dh=-212 dv=0 dx=0 dy=0 dh=0 dv=0
Substitution2: "'fina' Terminal Forms in Arabic lookup 9 subtable" uniFEAE
EndChar

StartChar: uni0633
Encoding: 1587 1587 27
Width: 2444
VWidth: 2356
GlyphClass: 2
Flags: W
AnchorPoint: "Anchor-7" 389.11 -655.691 basechar 0
AnchorPoint: "Anchor-10" 592.641 945.47 basechar 0
LayerCount: 2
Fore
SplineSet
1503.76660156 -0.3076171875 m 0,0,1
 1428 -1 1428 -1 1364.42285156 31.9130859375 c 1,2,3
 1338 -239 1338 -239 1172.70703125 -378.072265625 c 0,4,5
 1007 -517 1007 -517 714.868164062 -517.5859375 c 0,6,7
 264 -517 264 -517 120.495117188 -188.759765625 c 0,8,9
 49 -24 49 -24 82.478515625 204.348632812 c 0,10,11
 103.752929688 352.28125 103.752929688 352.28125 168.435546875 497.110351562 c 2,12,-1
 185.215820312 534.682617188 l 1,13,-1
 428.034179688 451.325195312 l 1,14,-1
 409.880859375 407.16015625 l 2,15,16
 333 220 333 220 333.013671875 80.251953125 c 0,17,18
 333 -102 333 -102 449.404296875 -186.348632812 c 0,19,20
 543 -254 543 -254 727.5 -254 c 128,-1,21
 912 -254 912 -254 1008.5 -178.5 c 128,-1,22
 1105 -103 1105 -103 1126.41992188 54.6259765625 c 0,23,24
 1153.96679688 261.747070312 1153.96679688 261.747070312 1022.89648438 427.80078125 c 2,25,-1
 997.486328125 459.993164062 l 1,26,-1
 1207 659.46484375 l 2,27,28
 1220.89355469 672.896484375 1220.89355469 672.896484375 1230.57421875 650 c 2,29,-1
 1246.29882812 612.80859375 l 6,30,31
 1318 444 1318 444 1342.5 381 c 128,-1,32
 1367 318 1367 318 1402.5 294.5 c 128,-1,33
 1438 271 1438 271 1493.5 271 c 128,-1,34
 1549 271 1549 271 1577.359375 304.333984375 c 128,-1,35
 1605.71875 337.66796875 1605.71875 337.66796875 1613.921875 421.763671875 c 2,36,-1
 1636.45019531 652.711914062 l 1,37,-1
 1834.61132812 652.711914062 l 1,38,-1
 1865.8203125 422.041015625 l 2,39,40
 1886.23896702 266.721547315 1886.23896702 266.721547315 1987.79003906 267.219726562 c 0,41,42
 2032 268 2032 268 2059 275.5 c 128,-1,43
 2086 283 2086 283 2107.49414062 324.5390625 c 128,-1,44
 2129 366 2129 366 2118.00488281 459.676757812 c 128,-1,45
 2107.00976562 553.353515625 2107.00976562 553.353515625 2075.50976562 725.92578125 c 2,46,-1
 2068.4140625 764.799804688 l 1,47,-1
 2304.88671875 840.580078125 l 1,48,-1
 2319.40429688 799.306640625 l 2,49,50
 2376 638 2376 638 2377.5 438.5 c 128,-1,51
 2379 239 2379 239 2284.5 120 c 128,-1,52
 2190 1 2190 1 2006.5 0 c 128,-1,53
 1823 -1 1823 -1 1734.49511719 108.931640625 c 1,54,55
 1646 0 1646 0 1503.76660156 -0.3076171875 c 0,0,1
EndSplineSet
Substitution2: "'fina' Terminal Forms in Arabic lookup 9 subtable" uniFEB2
Substitution2: "'medi' Medial Forms in Arabic lookup 11 subtable" uniFEB4
Substitution2: "'init' Initial Forms in Arabic lookup 13 subtable" uniFEB3
EndChar

StartChar: uni0635
Encoding: 1589 1589 29
Width: 2564
VWidth: 2356
GlyphClass: 2
Flags: W
AnchorPoint: "Anchor-10" 486.99 945.47 basechar 0
AnchorPoint: "Anchor-7" 449.891 -695.41 basechar 0
LayerCount: 2
Fore
SplineSet
1649.72949219 276.91796875 m 1,0,-1
 1737.11425781 276.91796875 l 2,1,2
 1999.89746094 276.909179688 1999.89746094 276.909179688 2110.55664062 319.720703125 c 0,3,4
 2142.97558594 332.51953125 2142.97558594 332.51953125 2165.1015625 347.709960938 c 128,-1,5
 2187.22851562 362.900390625 2187.22851562 362.900390625 2200.10058594 381.495117188 c 128,-1,6
 2212.97265625 400.088867188 2212.97265625 400.088867188 2217.67480469 421.463867188 c 128,-1,7
 2222.37695312 442.83984375 2222.37695312 442.83984375 2220.13769531 469.388671875 c 0,8,9
 2216.90429688 507.860351562 2216.90429688 507.860351562 2198.01171875 530.986328125 c 0,10,11
 2179.50585938 555.184570312 2179.50585938 555.184570312 2153.92089844 566.478515625 c 128,-1,12
 2128.3359375 577.7734375 2128.3359375 577.7734375 2088.93652344 577.580078125 c 0,13,14
 1978.0859375 577.991210938 1978.0859375 577.991210938 1853.62890625 481.178710938 c 0,15,16
 1765.10644531 412.428710938 1765.10644531 412.428710938 1649.72949219 276.91796875 c 1,0,-1
1373.81640625 327.50390625 m 1,17,18
 1744 848 1744 848 2094.26074219 847.188476562 c 0,19,20
 2264 847 2264 847 2371.89550781 747.10546875 c 0,21,22
 2486 641 2486 641 2487.578125 468.375976562 c 0,23,24
 2489 259 2489 259 2308.98242188 122.6796875 c 0,25,26
 2145.36635257 -1.72145353157 2145.36635257 -1.72145353157 1753.72753906 -0.7109375 c 2,27,-1
 1478.19433594 0 l 2,28,29
 1417 0 1417 0 1364.78320312 35.2333984375 c 1,30,31
 1352 -101 1352 -101 1304.41113281 -204.939453125 c 0,32,33
 1256 -309 1256 -309 1175.07128906 -378.155273438 c 0,34,35
 1094 -447 1094 -447 979.513671875 -482.577148438 c 128,-1,36
 865 -518 865 -518 720.620117188 -517.544921875 c 0,37,38
 572 -517 572 -517 454.545898438 -481.506835938 c 128,-1,39
 337 -446 337 -446 252.30078125 -371.991210938 c 0,40,41
 167 -298 167 -298 119.427734375 -188.7421875 c 0,42,43
 47.9538932487 -26.1697000713 47.9538932487 -26.1697000713 81.4208984375 204.358398438 c 0,44,45
 102.953595765 352.680357412 102.953595765 352.680357412 167.368164062 497.090820312 c 2,46,-1
 184.138671875 534.688476562 l 1,47,-1
 427.034179688 451.3046875 l 1,48,-1
 408.798828125 407.10546875 l 2,49,50
 332 221 332 221 331.953125 80.2001953125 c 0,51,52
 332 65 332 65 332.815429688 50.32421875 c 0,53,54
 334 36 334 36 335.670898438 21.22265625 c 0,55,56
 354 -119 354 -119 448.05078125 -186.631835938 c 0,57,58
 542 -254 542 -254 727.309570312 -254.5 c 0,59,60
 914 -255 914 -255 1010.40722656 -179.534179688 c 128,-1,61
 1107 -104 1107 -104 1126.36132812 54.169921875 c 0,62,63
 1151.96723189 262.733099775 1151.96723189 262.733099775 1022.77050781 427.965820312 c 2,64,-1
 997.625 460.125 l 1,65,-1
 1203 655.657329488 l 2,66,67
 1223.34265716 675.331395228 1223.34265716 675.331395228 1233.83369849 649 c 2,68,-1
 1249.35742188 610.037109375 l 6,69,70
 1335 395 1335 395 1345.56835938 371.919921875 c 0,71,72
 1359 342 1359 342 1373.81640625 327.50390625 c 1,17,18
EndSplineSet
Substitution2: "'fina' Terminal Forms in Arabic lookup 9 subtable" uniFEBA
Substitution2: "'medi' Medial Forms in Arabic lookup 11 subtable" uniFEBC
Substitution2: "'init' Initial Forms in Arabic lookup 13 subtable" uniFEBB
EndChar

StartChar: uni0637
Encoding: 1591 1591 31
Width: 1594
VWidth: 2356
GlyphClass: 2
Flags: W
AnchorPoint: "Anchor-10" 331.043 1628.92 basechar 0
AnchorPoint: "Anchor-7" 778.363 -225.3 basechar 0
LayerCount: 2
Fore
SplineSet
679.791992188 277.62890625 m 1,0,-1
 767.17578125 277.62890625 l 2,1,2
 1029.95996094 277.620117188 1029.95996094 277.620117188 1140.61816406 320.431640625 c 0,3,4
 1183.66210938 337.42578125 1183.66210938 337.42578125 1208.90527344 359.2734375 c 128,-1,5
 1234.14941406 381.122070312 1234.14941406 381.122070312 1243.67089844 407.864257812 c 128,-1,6
 1253.19335938 434.606445312 1253.19335938 434.606445312 1250.19921875 470.099609375 c 0,7,8
 1246.96484375 508.571289062 1246.96484375 508.571289062 1228.07226562 531.697265625 c 0,9,10
 1192.16601562 578.650390625 1192.16601562 578.650390625 1118.99804688 578.291015625 c 0,11,12
 1008.14746094 578.702148438 1008.14746094 578.702148438 883.690429688 481.890625 c 0,13,14
 795.16796875 413.140625 795.16796875 413.140625 679.791992188 277.62890625 c 1,0,-1
476.0546875 433.604492188 m 1,15,16
 810 848 810 848 1124.21972656 847.900390625 c 0,17,18
 1292 848 1292 848 1403.89257812 745.236328125 c 0,19,20
 1516 643 1516 643 1517.640625 469.081054688 c 0,21,22
 1519 251 1519 251 1341.55175781 125.393554688 c 0,23,24
 1164 0 1164 0 783.905273438 0 c 2,25,-1
 77.2548828125 0 l 1,26,-1
 77.2548828125 275.4765625 l 1,27,-1
 242.990234375 275.478515625 l 1,28,-1
 210.533203125 1452.93457031 l 5,29,-1
 476.154296875 1558.25878906 l 5,30,-1
 476.0546875 433.604492188 l 1,15,16
EndSplineSet
Substitution2: "'fina' Terminal Forms in Arabic lookup 9 subtable" uniFEC2
Substitution2: "'medi' Medial Forms in Arabic lookup 11 subtable" uniFEC4
Substitution2: "'init' Initial Forms in Arabic lookup 13 subtable" uniFEC3
EndChar

StartChar: uni0639
Encoding: 1593 1593 33
Width: 1298
VWidth: 2356
GlyphClass: 2
Flags: W
AnchorPoint: "Anchor-10" 579.725 1543.32 basechar 0
AnchorPoint: "Anchor-7" 333.709 -725.365 basechar 0
LayerCount: 2
Fore
SplineSet
368.922851562 440.997070312 m 1,0,1
 187.63911414 551.652923092 187.63911414 551.652923092 187.918945312 768.665039062 c 0,2,3
 187.7421875 895.006835938 187.7421875 895.006835938 248.39453125 994.495117188 c 0,4,5
 361.177734375 1179.6796875 361.177734375 1179.6796875 608 1179.6796875 c 0,6,7
 768.302734375 1179.6796875 768.302734375 1179.6796875 927.9375 1088.88378906 c 2,8,-1
 958.33203125 1071.59667969 l 1,9,-1
 892.840820312 832.645507812 l 1,10,-1
 844.2109375 856.017578125 l 2,11,12
 717.44140625 916.942382812 717.44140625 916.942382812 616.517578125 917.354492188 c 0,13,14
 523.832158843 916.976405904 523.832158843 916.976405904 481.838930984 875.391523264 c 128,-1,15
 439.845703125 833.806640625 439.845703125 833.806640625 436.575683594 782.329589844 c 128,-1,16
 433.305664062 730.852539062 433.305664062 730.852539062 448.291015625 704.382324219 c 4,17,18
 477.67297827 652.481849244 477.67297827 652.481849244 573.181640625 605.961914062 c 0,19,20
 618.997070312 583.6796875 618.997070312 583.6796875 641.682128906 580.141601562 c 128,-1,21
 664.3671875 576.603515625 664.3671875 576.603515625 759.716308594 591.927246094 c 0,22,23
 870.364727892 609.709754571 870.364727892 609.709754571 1023.90722656 634.155273438 c 2,24,-1
 1075.98242188 642.4453125 l 1,25,-1
 1075.98242188 381.435546875 l 1,26,-1
 1034.17578125 378.461914062 l 2,27,28
 791.063146982 361.168250571 791.063146982 361.168250571 591.361328125 258.279296875 c 0,29,30
 335.121926155 125.792030258 335.121926155 125.792030258 336.143554688 -103.325195312 c 0,31,32
 336.975585938 -227.9453125 336.975585938 -227.9453125 433.236328125 -305.002929688 c 0,33,34
 534.893334184 -387.031519135 534.893334184 -387.031519135 802.899414062 -387.551757812 c 0,35,36
 986.555664062 -388.04296875 986.555664062 -388.04296875 1113.00488281 -352.028320312 c 2,37,-1
 1153.88476562 -340.385742188 l 1,38,-1
 1237.18652344 -580.08984375 l 1,39,-1
 1192.49707031 -593.75390625 l 2,40,41
 1019.66726492 -646.59309704 1019.66726492 -646.59309704 804.975585938 -646.745117188 c 0,42,43
 376.630859375 -646.592773438 376.630859375 -646.592773438 199.06640625 -443.616210938 c 0,44,45
 77.51953125 -304.751953125 77.51953125 -304.751953125 78.0874023438 -98.2998046875 c 128,-1,46
 78.6552734375 108.15234375 78.6552734375 108.15234375 184.85546875 258.5546875 c 0,47,48
 264.904296875 372.19921875 264.904296875 372.19921875 368.922851562 440.997070312 c 1,0,1
EndSplineSet
Substitution2: "'fina' Terminal Forms in Arabic lookup 9 subtable" uniFECA
Substitution2: "'medi' Medial Forms in Arabic lookup 11 subtable" uniFECC
Substitution2: "'init' Initial Forms in Arabic lookup 13 subtable" uniFECB
EndChar

StartChar: afii57440
Encoding: 1600 1600 35
Width: 686
VWidth: 2356
GlyphClass: 2
Flags: W
AnchorPoint: "Anchor-10" 343.44 1399.15 basechar 0
AnchorPoint: "Anchor-7" 343.44 -75.3096 basechar 0
LayerCount: 2
Fore
SplineSet
692.620117188 0 m 2,0,-1
 -4 0 l 2,1,2
 -96.6240234375 0 -96.6240234375 0 -96.6240234375 119 c 2,3,-1
 -96.6240234375 152.890625 l 2,4,5
 -97.222289901 275.479492187 -97.222289901 275.479492187 -3.6240234375 275.479492188 c 2,6,-1
 693.602539062 275.479492188 l 2,7,8
 786.375976562 274.543785729 786.375976562 274.543785729 786.375976562 153 c 6,9,-1
 786.375976562 118.885742188 l 6,10,11
 785.772373567 1.1624479157e-11 785.772373567 1.1624479157e-11 692.620117188 0 c 2,0,-1
EndSplineSet
EndChar

StartChar: uni0643
Encoding: 1603 1603 38
Width: 1926
VWidth: 2356
GlyphClass: 2
Flags: W
AnchorPoint: "Anchor-10" 591.04 1526.35 basechar 0
AnchorPoint: "Anchor-7" 535.92 -188.73 basechar 0
LayerCount: 2
Fore
SplineSet
763.459960938 874.500976562 m 2,0,1
 946.024414062 850.428710938 946.024414062 850.428710938 1008.171875 895.9140625 c 0,2,3
 1028.54882812 910.827148438 1028.54882812 910.827148438 1020.89257812 917.138671875 c 0,4,5
 1008.66796875 925.881835938 1008.66796875 925.881835938 973.489257812 931.928710938 c 0,6,7
 888.565429688 945.352539062 888.565429688 945.352539062 841.08984375 997.720703125 c 0,8,9
 769.59375 1076.58496094 769.59375 1076.58496094 806.830078125 1189.17285156 c 0,10,11
 858.950195312 1346.7734375 858.950195312 1346.7734375 1134.96386719 1364.26953125 c 2,12,-1
 1199.71582031 1368.37207031 l 1,13,-1
 1199.71582031 1185.52148438 l 1,14,-1
 1143.34179688 1181.36132812 l 2,15,16
 1061.74804688 1175.17480469 1061.74804688 1175.17480469 1014.50878906 1153.1171875 c 0,17,18
 983.4375 1139.23632812 983.4375 1139.23632812 983.419921875 1126 c 0,19,20
 983.395507812 1107.93554688 983.395507812 1107.93554688 1058.92382812 1096.625 c 0,21,22
 1103.47851562 1089.953125 1103.47851562 1089.953125 1138.04003906 1066.7109375 c 0,23,24
 1209.50683594 1018.64746094 1209.50683594 1018.64746094 1209.55273438 921.778320312 c 0,25,26
 1209.48632812 797.913085938 1209.48632812 797.913085938 1081.15039062 724.505859375 c 128,-1,27
 952.815429688 651.098632812 952.815429688 651.098632812 745.450195312 685.779296875 c 2,28,-1
 694.59765625 694.286132812 l 1,29,-1
 694.59765625 883.583007812 l 1,30,-1
 763.459960938 874.500976562 l 2,0,1
1807.65820312 478.84765625 m 2,31,32
 1807 460 1807 460 1807.00976562 455.6875 c 0,33,34
 1807 451 1807 451 1806 438 c 128,-1,35
 1805 425 1805 425 1804.75878906 416.76171875 c 0,36,37
 1787 157 1787 157 1448.25097656 51.240234375 c 0,38,39
 1290 2 1290 2 935 1 c 128,-1,40
 580 0 580 0 405.908203125 74.142578125 c 0,41,42
 106 202 106 202 81.923828125 504.245117188 c 0,43,44
 69.9886414908 657.145512642 69.9886414908 657.145512642 112.77734375 809.166992188 c 2,45,-1
 124.771484375 851.780273438 l 1,46,-1
 349.094726562 792.591796875 l 1,47,-1
 342.784179688 752.456054688 l 2,48,49
 320 608 320 608 322.794921875 554.249023438 c 0,50,51
 329 433 329 433 412.5 366 c 128,-1,52
 496 299 496 299 673.3671875 285.086914062 c 0,53,54
 841 272 841 272 1218.53320312 287.74609375 c 0,55,56
 1414 296 1414 296 1498 352 c 128,-1,57
 1582.00348694 408.002324625 1582.00348694 408.002324625 1577.890625 509.356445312 c 2,58,-1
 1539.546875 1454.26953125 l 5,59,-1
 1807.65820312 1557.60058594 l 5,60,-1
 1807.65820312 478.84765625 l 2,31,32
EndSplineSet
Substitution2: "'fina' Terminal Forms in Arabic lookup 9 subtable" uniFEDA
Substitution2: "'medi' Medial Forms in Arabic lookup 11 subtable" uniFEDC
Substitution2: "'init' Initial Forms in Arabic lookup 13 subtable" uniFEDB
EndChar

StartChar: uni0644
Encoding: 1604 1604 39
Width: 1419
VWidth: 2356
GlyphClass: 2
Flags: W
AnchorPoint: "Anchor-10" 517.91 1128.85 basechar 0
AnchorPoint: "Anchor-7" 408.879 -617.093 basechar 0
LayerCount: 2
Fore
SplineSet
1301.49707031 451.233398438 m 2,0,1
 1301.49707031 242.967654066 1301.49707031 242.967654066 1299.78613281 174.494140625 c 0,2,3
 1299 143 1299 143 1298.57421875 139.204101562 c 0,4,5
 1299 -169 1299 -169 1148.07421875 -328.536132812 c 128,-1,6
 997 -488 997 -488 709.11328125 -486.970703125 c 0,7,8
 278 -486 278 -486 135.619140625 -158.272460938 c 0,9,10
 64 6 64 6 97.5458984375 234.79296875 c 0,11,12
 118.960150291 382.724714311 118.960150291 382.724714311 183.50390625 527.642578125 c 2,13,-1
 200.262695312 565.270507812 l 1,14,-1
 443.137695312 481.895507812 l 1,15,-1
 424.961914062 437.719726562 l 2,16,17
 279 82 279 82 406.807617188 -102.323242188 c 0,18,19
 494 -228 494 -228 724.322265625 -223.837890625 c 0,20,21
 902 -221 902 -221 984.115234375 -122.606445312 c 0,22,23
 1066.94257338 -24.0683193735 1066.94257338 -24.0683193735 1062.83886719 186.5859375 c 2,24,-1
 1038.23730469 1449.45019531 l 5,25,-1
 1301.49707031 1558.52636719 l 5,26,-1
 1301.49707031 451.233398438 l 2,0,1
EndSplineSet
Substitution2: "'fina' Terminal Forms in Arabic lookup 9 subtable" uniFEDE
Substitution2: "'medi' Medial Forms in Arabic lookup 11 subtable" uniFEE0
Substitution2: "'init' Initial Forms in Arabic lookup 13 subtable" uniFEDF
EndChar

StartChar: uni0645
Encoding: 1605 1605 40
Width: 1240
VWidth: 2356
GlyphClass: 2
Flags: W
AnchorPoint: "Anchor-10" 630.79 1114.87 basechar 0
AnchorPoint: "Anchor-7" 193.148 -725.569 basechar 0
LayerCount: 2
Fore
SplineSet
551.328125 426.926757812 m 1,0,1
 722 418 722 418 802.678710938 422.549804688 c 0,2,3
 883.150390625 426.66796875 883.150390625 426.66796875 889.551757812 430.310546875 c 0,4,5
 903.331054688 438.15234375 903.331054688 438.15234375 917.524414062 472.602539062 c 128,-1,6
 931.71875 507.052734375 931.71875 507.052734375 887.725585938 555.436523438 c 128,-1,7
 843.732421875 603.819335938 843.732421875 603.819335938 710.69921875 658.583984375 c 0,8,9
 655.6796875 681.413085938 655.6796875 681.413085938 620.0703125 667.23046875 c 128,-1,10
 584.4609375 653.048828125 584.4609375 653.048828125 571.087890625 610.619140625 c 128,-1,11
 557.71484375 568.190429688 557.71484375 568.190429688 551.385742188 451.504882812 c 1,12,-1
 551.328125 426.926757812 l 1,0,1
1003.296875 166.9609375 m 0,13,14
 875 155 875 155 497.623046875 163.119140625 c 0,15,16
 434 164 434 164 429.514648438 163.04296875 c 0,17,18
 363 160 363 160 331.495117188 105.651367188 c 128,-1,19
 300.104492188 51.1806640625 300.104492188 51.1806640625 306.400390625 -77.93359375 c 2,20,-1
 331.209960938 -586.689453125 l 1,21,-1
 75.400390625 -732.109375 l 1,22,-1
 75.400390625 -31.3662109375 l 2,23,24
 75 185 75 185 165.079101562 297.216796875 c 0,25,26
 217 363 217 363 294.6328125 387.8203125 c 1,27,28
 287 697 287 697 426.66015625 829.8203125 c 0,29,30
 599 992 599 992 815.875976562 888.600585938 c 0,31,32
 1222 695 1222 695 1157.47363281 444.1328125 c 0,33,34
 1133 350 1133 350 1099.15917969 263.17578125 c 0,35,36
 1064.42089844 172.895507812 1064.42089844 172.895507812 1003.296875 166.9609375 c 0,13,14
EndSplineSet
Substitution2: "'init' Initial Forms in Arabic lookup 13 subtable" uniFEE3
Substitution2: "'medi' Medial Forms in Arabic lookup 11 subtable" uniFEE4
Substitution2: "'fina' Terminal Forms in Arabic lookup 9 subtable" uniFEE2
EndChar

StartChar: uni0647
Encoding: 1607 1607 42
Width: 1015
VWidth: 2356
GlyphClass: 2
Flags: W
AnchorPoint: "Anchor-10" 473.3 1211.62 basechar 0
AnchorPoint: "Anchor-7" 381.016 -144.273 basechar 0
LayerCount: 2
Fore
SplineSet
495.356445312 642.145507812 m 1,0,1
 338 473 338 473 339.056640625 366.49609375 c 0,2,3
 340 248 340 248 509.14453125 247.747070312 c 0,4,5
 671 248 671 248 672.453125 364.94921875 c 0,6,7
 674 466 674 466 495.356445312 642.145507812 c 1,0,1
513.880859375 3.7421875 m 0,8,9
 88.568359375 4.2978515625 88.568359375 4.2978515625 85.1884765625 341.344726562 c 0,10,11
 82.904296875 567.48046875 82.904296875 567.48046875 308.237304688 813.841796875 c 1,12,-1
 270.696289062 846.123046875 l 1,13,-1
 430.72265625 1039.02539062 l 1,14,15
 931.021484375 675.1875 931.021484375 675.1875 932.065429688 342.091796875 c 4,16,17
 935.407226562 3.1123046875 935.407226562 3.1123046875 513.880859375 3.7421875 c 0,8,9
EndSplineSet
Substitution2: "'fina' Terminal Forms in Arabic lookup 9 subtable" uniFEEA
Substitution2: "'medi' Medial Forms in Arabic lookup 11 subtable" uniFEEC
Substitution2: "'init' Initial Forms in Arabic lookup 13 subtable" uniFEEB
EndChar

StartChar: uni0648
Encoding: 1608 1608 43
Width: 941
VWidth: 2356
GlyphClass: 2
Flags: W
AnchorPoint: "Anchor-10" 427.959 1142.28 basechar 0
AnchorPoint: "Anchor-7" 602.763 -576.63 basechar 0
LayerCount: 2
Fore
SplineSet
629.971679688 283.426757812 m 1,0,1
 624.12109375 552.349609375 624.12109375 552.349609375 487.486328125 547.810546875 c 0,2,3
 436.75390625 546.387695312 436.75390625 546.387695312 403.028320312 512.2421875 c 0,4,5
 356.55078125 465.186523438 356.55078125 465.186523438 342.828125 367.377929688 c 0,6,7
 333.313476562 299.526367188 333.313476562 299.526367188 367.495117188 275.0078125 c 128,-1,8
 401.67578125 250.48828125 401.67578125 250.48828125 465.758789062 250.668945312 c 0,9,10
 574.158203125 250.974609375 574.158203125 250.974609375 629.971679688 283.426757812 c 1,0,1
812.708007812 598.029296875 m 0,11,12
 880.7890625 456.970703125 880.7890625 456.970703125 880.135742188 227.149414062 c 0,13,14
 878.56640625 -102.961914062 878.56640625 -102.961914062 743.48828125 -277.673828125 c 0,15,16
 545.348632812 -533.983398438 545.348632812 -533.983398438 148.213867188 -537.41796875 c 2,17,-1
 119.185546875 -537.669921875 l 1,18,-1
 8.1891093681 -332 l 2,19,20
 -2.55078125 -312.099609375 -2.55078125 -312.099609375 18 -310.86793641 c 6,21,-1
 67.8564453125 -307.879882812 l 2,22,23
 523.9375 -280.541992188 523.9375 -280.541992188 606.720703125 7.470703125 c 1,24,25
 546.278320312 -8.5908203125 546.278320312 -8.5908203125 451.943359375 -8.521484375 c 128,-1,26
 357.608398438 -8.453125 357.608398438 -8.453125 275.424804688 28.3994140625 c 128,-1,27
 193.241210938 65.251953125 193.241210938 65.251953125 148.264648438 141.110351562 c 128,-1,28
 103.287109375 216.96875 103.287109375 216.96875 104.161132812 327.2109375 c 128,-1,29
 105.03515625 437.454101562 105.03515625 437.454101562 150.435546875 539.752929688 c 128,-1,30
 195.834960938 642.051757812 195.834960938 642.051757812 258.381835938 705.474609375 c 0,31,32
 389.416992188 839.252929688 389.416992188 839.252929688 572.875976562 801.045898438 c 0,33,34
 731.017578125 768.240234375 731.017578125 768.240234375 812.708007812 598.029296875 c 0,11,12
EndSplineSet
Substitution2: "'fina' Terminal Forms in Arabic lookup 9 subtable" uniFEEE
EndChar

StartChar: uni0649
Encoding: 1609 1609 44
Width: 1520
VWidth: 2356
GlyphClass: 2
Flags: W
AnchorPoint: "Anchor-10" 385.105 963.314 basechar 0
AnchorPoint: "Anchor-7" 325.429 -554.4 basechar 0
LayerCount: 2
Fore
SplineSet
1004.23730469 261.517578125 m 1,0,1
 1014.63631555 250.026349855 1014.63631555 250.026349855 1066.33691406 249.73828125 c 1,2,-1
 1124.93554688 250.900390625 l 1,3,4
 1338.48772476 251.100056154 1338.48772476 251.100056154 1409.1953125 144.072265625 c 0,5,6
 1443.77636719 91.7265625 1443.77636719 91.7265625 1443.43847656 21.72265625 c 0,7,8
 1444.06933594 -114.958984375 1444.06933594 -114.958984375 1358.16601562 -229.008789062 c 0,9,10
 1141.98636645 -518.188364451 1141.98636645 -518.188364451 641.719726562 -481.235351562 c 0,11,12
 294.221622047 -455.566836191 294.221622047 -455.566836191 156.602539062 -224.983398438 c 0,13,14
 77.5830078125 -92.5830078125 77.5830078125 -92.5830078125 76.7661132812 117.165527344 c 128,-1,15
 75.94921875 326.9140625 75.94921875 326.9140625 197.137695312 585.510742188 c 2,16,-1
 215.327148438 624.325195312 l 1,17,-1
 444.795898438 530.090820312 l 1,18,-1
 426.177734375 487.850585938 l 2,19,20
 331.862637962 273.866861493 331.862637962 273.866861493 332.791182262 105.205891684 c 128,-1,21
 333.719726562 -63.455078125 333.719726562 -63.455078125 433.422851562 -141.907226562 c 128,-1,22
 533.125976562 -220.360351562 533.125976562 -220.360351562 750.974609375 -218.955078125 c 0,23,24
 1025.79394531 -217.120117188 1025.79394531 -217.120117188 1167.80761719 -81.03125 c 0,25,26
 1205.35909665 -44.788209134 1205.35909665 -44.788209134 1200.82226562 -12.4833984375 c 0,27,28
 1199.59757623 -3.77526703541 1199.59757623 -3.77526703541 1163.7734375 -3.9697265625 c 2,29,-1
 1069.77539062 -4.4833984375 l 1,30,31
 931.296875 -2.05078125 931.296875 -2.05078125 847.98046875 48.0654296875 c 0,32,33
 723.33333577 123.043642398 723.33333577 123.043642398 760.665039062 314.965820312 c 0,34,35
 766.364257812 344.26953125 766.364257812 344.26953125 776.274414062 373.926757812 c 0,36,37
 868.437315638 643.050959208 868.437315638 643.050959208 1098.37304688 760.296875 c 0,38,39
 1254.87493604 840.094402898 1254.87493604 840.094402898 1452.18554688 791.73828125 c 5,40,-1
 1366.92089844 532.046875 l 1,41,-1
 1330.12792969 532.124023438 l 2,42,43
 1183.19628906 532.015625 1183.19628906 532.015625 1062.76074219 386.344726562 c 0,44,45
 1005.36646324 316.94552978 1005.36646324 316.94552978 1004.23730469 261.517578125 c 1,0,1
EndSplineSet
Substitution2: "'fina' Terminal Forms in Arabic lookup 9 subtable" uniFEF0
Substitution2: "'medi' Medial Forms in Arabic lookup 11 subtable" uniFBE9
Substitution2: "'init' Initial Forms in Arabic lookup 13 subtable" uniFBE8
EndChar

StartChar: uni064B
Encoding: 1611 1611 46
Width: -28
VWidth: 2442
GlyphClass: 4
Flags: W
AnchorPoint: "Anchor-10" 646.09 1178.53 mark 0
AnchorPoint: "Anchor-9" 646.09 1178.53 mark 0
AnchorPoint: "Anchor-1" 603.69 1760.43 basemark 0
AnchorPoint: "Anchor-1" 646.09 1178.53 mark 0
LayerCount: 2
Fore
SplineSet
300.13671875 1091.70660729 m 1,0,-1
 300.13671875 1256.54552799 l 1,1,-1
 874.020507812 1491.2103849 l 1,2,-1
 874.020507812 1326.3714642 l 1,3,-1
 300.13671875 1091.70660729 l 1,0,-1
300.13671875 1381.62066979 m 1,4,-1
 300.13671875 1546.45959049 l 1,5,-1
 874.020507812 1781.1244474 l 1,6,-1
 874.020507812 1616.2855267 l 1,7,-1
 300.13671875 1381.62066979 l 1,4,-1
EndSplineSet
EndChar

StartChar: uni064C
Encoding: 1612 1612 47
Width: -28
VWidth: 2442
GlyphClass: 4
Flags: W
AnchorPoint: "Anchor-10" 717.018 1289.11 mark 0
AnchorPoint: "Anchor-9" 717.018 1289.11 mark 0
AnchorPoint: "Anchor-1" 602.062 2022.85 basemark 0
AnchorPoint: "Anchor-1" 717.018 1289.11 mark 0
LayerCount: 2
Fore
SplineSet
691.816720009 1816.83590655 m 0,0,1
 676.522393543 1816.86113655 676.522393543 1816.86113655 665.25735781 1814.70402175 c 128,-1,2
 653.992322077 1812.54690695 653.992322077 1812.54690695 646.00638968 1808.16945847 c 128,-1,3
 638.020457284 1803.79200999 638.020457284 1803.79200999 633.134817301 1796.65555759 c 128,-1,4
 628.249177319 1789.51910518 628.249177319 1789.51910518 625.986074013 1780.12247127 c 128,-1,5
 623.722970708 1770.72583736 623.722970708 1770.72583736 623.631161497 1757.99354039 c 0,6,7
 623.510060612 1745.04679854 623.510060612 1745.04679854 628.509505388 1734.14579227 c 128,-1,8
 633.508950165 1723.244786 633.508950165 1723.244786 645.747770249 1712.69727231 c 128,-1,9
 657.986590333 1702.14975863 657.986590333 1702.14975863 677.794022675 1692.9636353 c 0,10,11
 682.345597983 1690.83032926 682.345597983 1690.83032926 687.968801674 1688.56987742 c 128,-1,12
 693.592005365 1686.30942557 693.592005365 1686.30942557 700.220977655 1683.94733709 c 128,-1,13
 706.849949944 1681.5852486 706.849949944 1681.5852486 714.52380243 1679.11885537 c 128,-1,14
 722.197654916 1676.65246214 722.197654916 1676.65246214 730.727968446 1674.14700607 c 1,15,16
 739.287683791 1694.54216652 739.287683791 1694.54216652 743.528160438 1713.85760903 c 128,-1,17
 747.768637085 1733.17305154 747.768637085 1733.17305154 748.169449888 1752.22655256 c 0,18,19
 747.134575604 1788.47252946 747.134575604 1788.47252946 734.122679701 1802.68170053 c 128,-1,20
 721.110783798 1816.8908716 721.110783798 1816.8908716 691.816720009 1816.83590655 c 0,0,1
361.432876178 1606.59031611 m 2,21,22
 363.272035143 1389.48274647 363.272035143 1389.48274647 476.502094818 1389.27252416 c 0,23,24
 507.917348819 1389.37949093 507.917348819 1389.37949093 542.459183176 1406.9374067 c 128,-1,25
 577.001017532 1424.49532247 577.001017532 1424.49532247 614.451275135 1460.84824142 c 0,26,27
 657.24671584 1501.85284578 657.24671584 1501.85284578 683.163530531 1552.9704665 c 1,28,29
 662.549805903 1558.44892795 662.549805903 1558.44892795 645.087044708 1565.02827473 c 128,-1,30
 627.624283514 1571.60762152 627.624283514 1571.60762152 611.027906337 1580.12288639 c 0,31,32
 551.704008494 1610.07150924 551.704008494 1610.07150924 520.782180028 1657.20062455 c 128,-1,33
 489.860351562 1704.32973985 489.860351562 1704.32973985 489.860351562 1765.95996094 c 0,34,35
 489.860351562 1834.15500424 489.860351562 1834.15500424 523.518129896 1878.63151239 c 0,36,37
 550.004962131 1914.53582472 550.004962131 1914.53582472 588.152031545 1932.92806861 c 128,-1,38
 626.299100958 1951.3203125 626.299100958 1951.3203125 673.629882812 1951.3203125 c 0,39,40
 720.143257999 1951.3203125 720.143257999 1951.3203125 758.308025347 1937.46911703 c 128,-1,41
 796.472792696 1923.61792156 796.472792696 1923.61792156 824.892947738 1895.79014854 c 128,-1,42
 853.386312302 1867.89015648 853.386312302 1867.89015648 867.712148381 1829.54155402 c 128,-1,43
 882.03798446 1791.19295156 882.03798446 1791.19295156 882.338118148 1743.96754541 c 0,44,45
 882.861190154 1699.58950101 882.861190154 1699.58950101 868.38130458 1652.69335153 c 1,46,47
 871.210333403 1652.55375271 871.210333403 1652.55375271 874.115334678 1652.42109389 c 128,-1,48
 877.020335953 1652.28843506 877.020335953 1652.28843506 880.008719149 1652.16240883 c 128,-1,49
 882.997102344 1652.03638259 882.997102344 1652.03638259 886.065430732 1651.91714054 c 128,-1,50
 889.13375912 1651.79789849 889.13375912 1651.79789849 892.290223463 1651.68514341 c 128,-1,51
 895.446687807 1651.57238832 895.446687807 1651.57238832 898.687017996 1651.46626094 c 128,-1,52
 901.927348186 1651.36013356 901.927348186 1651.36013356 905.260568366 1651.26034752 c 128,-1,53
 908.593788546 1651.16056147 908.593788546 1651.16056147 912.014795227 1651.06724665 c 128,-1,54
 915.435801908 1650.97393182 915.435801908 1650.97393182 918.954452614 1650.88681271 c 128,-1,55
 922.47310332 1650.7996936 922.47310332 1650.7996936 926.083461181 1650.71888923 c 128,-1,56
 929.693819042 1650.63808486 929.693819042 1650.63808486 933.406522877 1650.5633299 c 2,57,-1
 953.00390625 1650.16873831 l 1,58,-1
 953.00390625 1515.96439018 l 1,59,-1
 932.684751248 1516.28867947 l 2,60,61
 921.267965395 1516.47088889 921.267965395 1516.47088889 912.057752816 1516.6926597 c 128,-1,62
 902.847540237 1516.91443051 902.847540237 1516.91443051 895.150101682 1517.19831634 c 128,-1,63
 887.452663127 1517.48220218 887.452663127 1517.48220218 881.547896794 1517.83498372 c 128,-1,64
 875.64313046 1518.18776527 875.64313046 1518.18776527 871.350894205 1518.61848079 c 2,65,-1
 812.93172867 1524.48022648 l 1,66,67
 772.504396449 1436.72866057 772.504396449 1436.72866057 715.768829193 1375.4658782 c 128,-1,68
 659.033261938 1314.20309583 659.033261938 1314.20309583 584.793217374 1278.36300624 c 0,69,70
 536.699782648 1255.1853573 536.699782648 1255.1853573 473.913963211 1255.10741483 c 0,71,72
 403.932358893 1255.14714599 403.932358893 1255.14714599 353.53472187 1294.57838123 c 128,-1,73
 303.137084846 1334.00961646 303.137084846 1334.00961646 274.908117272 1409.09891987 c 0,74,75
 252.452682209 1468.60494357 252.452682209 1468.60494357 251.215651486 1606.24115202 c 2,76,-1
 251.034282305 1626.42089844 l 1,77,-1
 361.264887594 1626.42089844 l 1,78,-1
 361.432876178 1606.59031611 l 2,21,22
EndSplineSet
EndChar

StartChar: uni064D
Encoding: 1613 1613 48
Width: -28
VWidth: 2442
GlyphClass: 4
Flags: W
AnchorPoint: "Anchor-7" 585.78 80.2715 mark 0
AnchorPoint: "Anchor-6" 585.78 80.2715 mark 0
AnchorPoint: "Anchor-0" 633.37 -497.259 basemark 0
AnchorPoint: "Anchor-0" 585.78 80.2715 mark 0
LayerCount: 2
Fore
SplineSet
305.733398438 -576.140122823 m 1,0,-1
 305.733398438 -411.300152404 l 1,1,-1
 879.6171875 -176.636345224 l 1,2,-1
 879.6171875 -341.474216185 l 1,3,-1
 305.733398438 -576.140122823 l 1,0,-1
305.733398438 -286.226060323 m 1,4,-1
 305.733398438 -121.386089904 l 1,5,-1
 879.6171875 113.277717276 l 1,6,-1
 879.6171875 -51.5601536848 l 1,7,-1
 305.733398438 -286.226060323 l 1,4,-1
EndSplineSet
EndChar

StartChar: uni064E
Encoding: 1614 1614 49
Width: -28
VWidth: 2442
GlyphClass: 4
Flags: W
AnchorPoint: "Anchor-10" 583.89 1439.64 mark 0
AnchorPoint: "Anchor-9" 583.89 1439.64 mark 0
AnchorPoint: "Anchor-1" 570.109 1787.3 basemark 0
AnchorPoint: "Anchor-1" 583.89 1439.64 mark 0
LayerCount: 2
Fore
SplineSet
267.674804688 1380.50152918 m 1,0,-1
 267.674804688 1545.34042712 l 1,1,-1
 841.55859375 1780.00633375 l 1,2,-1
 841.55859375 1615.16638607 l 1,3,-1
 267.674804688 1380.50152918 l 1,0,-1
EndSplineSet
EndChar

StartChar: uni064F
Encoding: 1615 1615 50
Width: -28
VWidth: 2442
GlyphClass: 4
Flags: W
AnchorPoint: "Anchor-10" 652.561 1357.87 mark 0
AnchorPoint: "Anchor-9" 652.561 1357.87 mark 0
AnchorPoint: "Anchor-1" 579.311 2038.59 basemark 0
AnchorPoint: "Anchor-1" 652.561 1357.87 mark 0
LayerCount: 2
Fore
SplineSet
892.090820312 1531.88501907 m 1,0,1
 794.267197729 1532.82501897 794.267197729 1532.82501897 741.232462883 1539.88336268 c 1,2,3
 617.454059953 1374.72190486 617.454059953 1374.72190486 403.018391502 1337.96723221 c 0,4,5
 367.19483806 1331.82700848 367.19483806 1331.82700848 330.405878288 1330.45433706 c 2,6,-1
 309.66015625 1329.68027169 l 1,7,-1
 309.66015625 1461.68162074 l 1,8,9
 505.401558406 1491.59517161 505.401558406 1491.59517161 590.655825698 1578.70419128 c 1,10,11
 426.432239463 1629.68929742 426.432239463 1629.68929742 426.158180419 1772.08141755 c 0,12,13
 426.271594607 1868.21848009 426.271594607 1868.21848009 505.355460597 1927.23586854 c 0,14,15
 559.524566138 1967.27413891 559.524566138 1967.27413891 633.098782351 1967.27345999 c 128,-1,16
 706.672998565 1967.27278108 706.672998565 1967.27278108 764.103305691 1910.79081845 c 0,17,18
 821.354011206 1854.95717181 821.354011206 1854.95717181 821.425795035 1759.5136066 c 0,19,20
 821.356352422 1721.62592392 821.356352422 1721.62592392 805.061475678 1668.41409945 c 1,21,22
 844.113131831 1666.18115348 844.113131831 1666.18115348 892.090820312 1666.2305723 c 1,23,-1
 892.090820312 1531.88501907 l 1,0,1
669.887434206 1689.37430033 m 1,24,25
 715.06349598 1793.24365852 715.06349598 1793.24365852 653.370730819 1825.32577555 c 0,26,27
 615.11533033 1845.21974905 615.11533033 1845.21974905 580.706859766 1819.37252907 c 0,28,29
 561.368832553 1802.68790279 561.368832553 1802.68790279 560.60748101 1768.95275053 c 0,30,31
 559.498373427 1719.80868092 559.498373427 1719.80868092 669.887434206 1689.37430033 c 1,24,25
EndSplineSet
EndChar

StartChar: uni0650
Encoding: 1616 1616 51
Width: -28
VWidth: 2442
GlyphClass: 4
Flags: W
AnchorPoint: "Anchor-7" 601.435 -17.1719 mark 0
AnchorPoint: "Anchor-6" 601.435 -17.1719 mark 0
AnchorPoint: "Anchor-0" 651.925 -346.561 basemark 0
AnchorPoint: "Anchor-0" 601.435 -17.1719 mark 0
LayerCount: 2
Fore
SplineSet
316.927734375 -403.758206647 m 1,0,-1
 316.927734375 -238.919325063 l 1,1,-1
 890.810546875 -4.25443823612 l 1,2,-1
 890.810546875 -169.094369549 l 1,3,-1
 316.927734375 -403.758206647 l 1,0,-1
EndSplineSet
EndChar

StartChar: uni0651
Encoding: 1617 1617 52
Width: -28
VWidth: 2442
GlyphClass: 4
Flags: W
AnchorPoint: "Anchor-10" 646.09 1473.63 mark 0
AnchorPoint: "Anchor-9" 646.09 1473.63 mark 0
AnchorPoint: "Anchor-1" 613.578 1950.76 basemark 0
AnchorPoint: "Anchor-1" 646.09 1473.63 mark 0
LayerCount: 2
Fore
SplineSet
617.218182914 1564.90609993 m 1,0,1
 601.231980007 1520.20341008 601.231980007 1520.20341008 574.273942615 1489.86219313 c 128,-1,2
 547.315905224 1459.52097618 547.315905224 1459.52097618 510.220316328 1444.22467808 c 128,-1,3
 473.124727432 1428.92837998 473.124727432 1428.92837998 426.632810539 1428.88866458 c 0,4,5
 397.986985755 1428.9131407 397.986985755 1428.9131407 373.741709451 1435.49408542 c 128,-1,6
 349.496433147 1442.07503015 349.496433147 1442.07503015 330.350851495 1454.80703322 c 128,-1,7
 311.205269843 1467.53903629 311.205269843 1467.53903629 296.602436517 1486.14165299 c 128,-1,8
 281.999603191 1504.7442697 281.999603191 1504.7442697 272.3393431 1528.89356704 c 128,-1,9
 262.679083009 1553.04286439 262.679083009 1553.04286439 257.72372584 1582.37148858 c 128,-1,10
 252.768368671 1611.70011277 252.768368671 1611.70011277 252.61841807 1645.96560809 c 0,11,12
 252.412322817 1686.85774906 252.412322817 1686.85774906 269.301161447 1798.25476601 c 2,13,-1
 271.878835637 1815.25683594 l 1,14,-1
 391.760769095 1815.25683594 l 1,15,-1
 388.493662929 1792.42393632 l 2,16,17
 375.099609375 1698.81660773 375.099609375 1698.81660773 375.099609375 1670.55957031 c 0,18,19
 375.099609375 1615.85168317 375.099609375 1615.85168317 391.081316437 1593.34113208 c 128,-1,20
 407.0630235 1570.83058099 407.0630235 1570.83058099 439.844032205 1570.8623115 c 0,21,22
 459.51888689 1570.84847603 459.51888689 1570.84847603 474.984471628 1575.45724011 c 128,-1,23
 490.450056365 1580.06600419 490.450056365 1580.06600419 502.734400556 1590.04391298 c 128,-1,24
 515.018744746 1600.02182177 515.018744746 1600.02182177 523.344213722 1615.69618871 c 128,-1,25
 531.669682698 1631.37055566 531.669682698 1631.37055566 536.50097446 1653.5368056 c 128,-1,26
 541.332266221 1675.70305554 541.332266221 1675.70305554 542.455077501 1704.63962226 c 0,27,28
 543.918984246 1746.14630973 543.918984246 1746.14630973 543.787038307 1795.76380409 c 0,29,30
 543.919515016 1845.33444556 543.919515016 1845.33444556 543.777708159 1854.64866486 c 2,31,-1
 543.4685774 1874.953125 l 1,32,-1
 661.473105572 1874.953125 l 1,33,-1
 662.463021859 1855.99608239 l 2,34,35
 664.477354641 1817.42131309 664.477354641 1817.42131309 664.784301146 1765.99050179 c 0,36,37
 664.644579827 1697.33521962 664.644579827 1697.33521962 690.964887914 1667.0857857 c 128,-1,38
 717.285196002 1636.83635178 717.285196002 1636.83635178 774.876251169 1636.93167467 c 0,39,40
 793.680215034 1637.08238201 793.680215034 1637.08238201 806.084800349 1646.32974815 c 128,-1,41
 818.489385664 1655.57711428 818.489385664 1655.57711428 825.975590333 1679.62634131 c 128,-1,42
 833.461795003 1703.67556834 833.461795003 1703.67556834 833.536271476 1743.25950652 c 0,43,44
 833.942211456 1798.33892435 833.942211456 1798.33892435 831.105987059 1841.99711002 c 128,-1,45
 828.269762661 1885.65529568 828.269762661 1885.65529568 822.324376493 1917.39263482 c 2,46,-1
 817.887899731 1941.07519531 l 1,47,-1
 943.785902475 1941.07519531 l 1,48,-1
 946.18844538 1923.83578383 l 2,49,50
 958.099609375 1838.36740078 958.099609375 1838.36740078 958.099609375 1737.33984375 c 0,51,52
 958.099609375 1561.96290482 958.099609375 1561.96290482 856.534766476 1518.51340468 c 0,53,54
 847.128644336 1514.5045772 847.128644336 1514.5045772 837.673150938 1511.39997557 c 128,-1,55
 828.217657539 1508.29537393 828.217657539 1508.29537393 818.743578333 1506.10498582 c 128,-1,56
 809.269499127 1503.9145977 809.269499127 1503.9145977 799.778282104 1502.66053181 c 128,-1,57
 790.287065082 1501.40646592 790.287065082 1501.40646592 780.894806003 1501.11280572 c 0,58,59
 698.75905726 1497.64261137 698.75905726 1497.64261137 653.871389843 1530.39802367 c 0,60,61
 631.644324488 1546.69790193 631.644324488 1546.69790193 617.218182914 1564.90609993 c 1,0,1
EndSplineSet
EndChar

StartChar: uni0652
Encoding: 1618 1618 53
Width: -28
VWidth: 2442
GlyphClass: 4
Flags: W
AnchorPoint: "Anchor-10" 623.839 1258.96 mark 0
AnchorPoint: "Anchor-9" 623.839 1258.96 mark 0
AnchorPoint: "Anchor-1" 608.168 1900.91 basemark 0
AnchorPoint: "Anchor-1" 623.839 1258.96 mark 0
LayerCount: 2
Fore
SplineSet
699.556297921 1470.25560823 m 128,-1,1
 729.78515625 1500.48364852 729.78515625 1500.48364852 729.78515625 1544.16470931 c 128,-1,2
 729.78515625 1587.84577011 729.78515625 1587.84577011 699.555341153 1618.07640327 c 128,-1,3
 669.329352453 1648.30566406 669.329352453 1648.30566406 624.911384116 1648.30566406 c 128,-1,4
 580.493415779 1648.30566406 580.493415779 1648.30566406 550.633346562 1618.44477844 c 128,-1,5
 520.7734375 1588.58486937 520.7734375 1588.58486937 520.7734375 1544.16463086 c 0,6,7
 520.7734375 1482.9067736 520.7734375 1482.9067736 572.121963824 1453.19254404 c 0,8,9
 594.875840805 1440.02539062 594.875840805 1440.02539062 632.103414711 1440.02539062 c 128,-1,0
 669.330988617 1440.02539062 669.330988617 1440.02539062 699.556297921 1470.25560823 c 128,-1,1
846.182617188 1544.65234375 m 128,-1,11
 846.182617188 1452.1311698 846.182617188 1452.1311698 782.186460784 1387.72361796 c 128,-1,12
 718.175565347 1323.30957031 718.175565347 1323.30957031 625.625976562 1323.30957031 c 128,-1,13
 533.0772138 1323.30957031 533.0772138 1323.30957031 469.064784076 1387.72433072 c 128,-1,14
 405.067382812 1452.13127078 405.067382812 1452.13127078 405.067382812 1544.65234375 c 128,-1,15
 405.067382812 1637.18065006 405.067382812 1637.18065006 469.076733125 1701.20182468 c 128,-1,16
 533.085944315 1765.20996094 533.085944315 1765.20996094 625.625976562 1765.20996094 c 128,-1,17
 718.16415395 1765.20996094 718.16415395 1765.20996094 782.173596368 1701.20051853 c 128,-1,10
 846.182617188 1637.18074857 846.182617188 1637.18074857 846.182617188 1544.65234375 c 128,-1,11
EndSplineSet
EndChar

StartChar: uni0653
Encoding: 1619 1619 54
Width: 0
VWidth: 2317
GlyphClass: 4
Flags: W
AnchorPoint: "Anchor-10" 431.25 1353.11 mark 0
AnchorPoint: "Anchor-9" 431.25 1353.11 mark 0
AnchorPoint: "Anchor-1" 469.41 1706.53 basemark 0
AnchorPoint: "Anchor-1" 431.25 1353.11 mark 0
LayerCount: 2
Fore
SplineSet
175.541156237 1281.29261872 m 1,0,-1
 53.2617111437 1404.01440351 l 1,1,-1
 61.2993525696 1417.38461475 l 2,2,3
 176.244981365 1608.40712253 176.244981365 1608.40712253 335.494126481 1578.31231378 c 2,4,-1
 470.082514742 1552.8778802 l 2,5,6
 539 1540 539 1540 668.030379817 1617.7942036 c 1,7,-1
 750.93712496 1484.00845382 l 1,8,-1
 741.077450018 1472.86627663 l 2,9,10
 634.206490158 1351.23500921 634.206490158 1351.23500921 453.545632448 1381.59690921 c 2,11,-1
 327.368689041 1402.80223164 l 2,12,13
 260.989023428 1414.00185197 260.989023428 1414.00185197 190.7421875 1304.90136719 c 6,14,-1
 175.541156237 1281.29261872 l 1,0,-1
EndSplineSet
EndChar

StartChar: uni0657
Encoding: 1623 1623 57
Width: 0
VWidth: 2317
GlyphClass: 4
Flags: W
AnchorPoint: "Anchor-10" 580.71 1356.27 mark 0
AnchorPoint: "Anchor-9" 580.71 1356.27 mark 0
AnchorPoint: "Anchor-1" 580.71 2093.5 basemark 0
AnchorPoint: "Anchor-1" 580.71 1356.27 mark 0
LayerCount: 2
Fore
SplineSet
243.303710938 1838.99350271 m 1,0,1
 322.321046502 1838.15550574 322.321046502 1838.15550574 388.336573163 1831.2594248 c 1,2,3
 563.714012312 2074.76566242 563.714012312 2074.76566242 897.385164489 2086.98659907 c 2,4,-1
 918.1171875 2087.74592375 l 5,5,-1
 918.1171875 1950.42117466 l 1,6,7
 697.348452299 1944.03028368 697.348452299 1944.03028368 545.67331259 1792.39588544 c 1,8,9
 555.074983749 1788.68774206 555.074983749 1788.68774206 568.883685908 1781.41783873 c 0,10,11
 694.6796875 1716.19384137 694.6796875 1716.19384137 694.6796875 1604.66015625 c 0,12,13
 694.6796875 1502.88228375 694.6796875 1502.88228375 613.949973966 1442.04402313 c 0,14,15
 580.514199279 1416.96777344 580.514199279 1416.96777344 501.086529439 1416.96777344 c 128,-1,16
 421.658859599 1416.96777344 421.658859599 1416.96777344 365.940269643 1471.51009245 c 128,-1,17
 310.221679688 1526.05241146 310.221679688 1526.05241146 310.221679688 1618.27050781 c 0,18,19
 310.221679688 1652.52748408 310.221679688 1652.52748408 324.073305856 1699.83336193 c 1,20,21
 295.098952404 1701.32348913 295.098952404 1701.32348913 243.303710938 1701.77049177 c 1,22,-1
 243.303710938 1838.99350271 l 1,0,1
502.450195312 1554.16992188 m 0,23,24
 555.208984375 1554.16992188 555.208984375 1554.16992188 555.208984375 1604.66015625 c 0,25,26
 555.208984375 1642.41275404 555.208984375 1642.41275404 508.076225817 1661.26693683 c 0,27,28
 488.062127775 1669.27729397 488.062127775 1669.27729397 461.724484509 1677.58062449 c 1,29,30
 447.423828125 1644.21282483 447.423828125 1644.21282483 447.423828125 1621.73694195 c 0,31,32
 447.423828125 1582.64836352 447.423828125 1582.64836352 464.711908295 1568.4091427 c 128,-1,33
 481.999988466 1554.16992188 481.999988466 1554.16992188 502.450195312 1554.16992188 c 0,23,24
EndSplineSet
EndChar

StartChar: uni065A
Encoding: 1626 1626 58
Width: 1160
VWidth: 2317
GlyphClass: 4
Flags: W
AnchorPoint: "Anchor-10" 580.71 1356.27 mark 0
AnchorPoint: "Anchor-9" 580.71 1356.27 mark 0
AnchorPoint: "Anchor-1" 578.442 1866.66 basemark 0
AnchorPoint: "Anchor-1" 580.71 1356.27 mark 0
LayerCount: 2
Fore
SplineSet
493.252041714 1420.37011719 m 1,0,-1
 264.642100511 1802.55957031 l 1,1,-1
 436.593448443 1802.55957031 l 1,2,-1
 580.709908454 1586.38033507 l 1,3,-1
 724.825459419 1802.55957031 l 1,4,-1
 896.778970681 1802.55957031 l 1,5,-1
 668.166848043 1420.37011719 l 1,6,-1
 493.252041714 1420.37011719 l 1,0,-1
EndSplineSet
EndChar

StartChar: afii57392
Encoding: 1632 1632 59
Width: 876
VWidth: 2356
GlyphClass: 2
Flags: W
LayerCount: 2
Fore
SplineSet
359 595 m 0,0,1
 358 563 358 563 382 539 c 128,-1,2
 406 515 406 515 439 515 c 128,-1,3
 472 515 472 515 496 539 c 128,-1,4
 520 563 520 563 519.5 594.5 c 0,5,6
 520 627 520 627 496 651 c 128,-1,7
 472 675 472 675 439 675 c 128,-1,8
 406 675 406 675 382 651 c 128,-1,9
 358 627 358 627 359 595 c 0,0,1
130.469726562 598.634765625 m 128,-1,11
 130.469726562 726.3671875 130.469726562 726.3671875 220.626953125 817.05078125 c 128,-1,12
 310.849609375 907.801757812 310.849609375 907.801757812 438.010742188 907.801757812 c 128,-1,13
 565.176757812 907.801757812 565.176757812 907.801757812 655.396484375 817.05078125 c 0,14,15
 699.801757812 772.383789062 699.801757812 772.383789062 722.67578125 716.971679688 c 128,-1,16
 745.55078125 661.559570312 745.55078125 661.559570312 745.55078125 598.634765625 c 128,-1,17
 745.55078125 535.706054688 745.55078125 535.706054688 722.67578125 480.293945312 c 128,-1,18
 699.799804688 424.881835938 699.799804688 424.881835938 655.393554688 380.219726562 c 128,-1,19
 610.987304688 335.557617188 610.987304688 335.557617188 555.82421875 312.514648438 c 128,-1,20
 500.662109375 289.471679688 500.662109375 289.471679688 438.010742188 289.471679688 c 0,21,22
 310.848632812 289.471679688 310.848632812 289.471679688 220.62890625 380.220703125 c 128,-1,10
 130.469726562 470.901367188 130.469726562 470.901367188 130.469726562 598.634765625 c 128,-1,11
EndSplineSet
EndChar

StartChar: afii57393
Encoding: 1633 1633 60
Width: 826
VWidth: 2356
GlyphClass: 2
Flags: W
LayerCount: 2
Fore
SplineSet
635.147460938 9.009765625 m 1,0,-1
 372.698242188 9.009765625 l 1,1,-1
 372.609375 57.0986328125 l 2,2,3
 372 604 372 604 284.34375 944.5234375 c 4,4,5
 233.918945312 1141.31738281 233.918945312 1141.31738281 144.099609375 1334.05078125 c 6,6,-1
 125.412109375 1374.15039062 l 5,7,-1
 355.231445312 1486.05664062 l 5,8,-1
 376.501953125 1450.92675781 l 6,9,10
 497 1252 497 1252 578.55078125 876.325195312 c 4,11,12
 632.877929688 626.5625 632.877929688 626.5625 634.969726562 57.3662109375 c 2,13,-1
 635.147460938 9.009765625 l 1,0,-1
EndSplineSet
EndChar

StartChar: afii57394
Encoding: 1634 1634 61
Width: 1176
VWidth: 2215
GlyphClass: 2
Flags: W
LayerCount: 2
Fore
SplineSet
296.701171875 1489.26269531 m 1,0,-1
 436 1170 l 6,1,2
 476 1079 476 1079 623.157226562 1082.80664062 c 0,3,4
 790 1087 790 1087 833.517578125 1298.15332031 c 0,5,6
 847.870921082 1367.54169323 847.870921082 1367.54169323 856.766601562 1433.28515625 c 2,7,-1
 863.463867188 1482.78125 l 1,8,-1
 1111.83398438 1422.36523438 l 1,9,-1
 1108.98730469 1384.3046875 l 2,10,11
 1066 810 1066 810 624.844726562 811.840820312 c 0,12,13
 570 812 570 812 509.197265625 822.708984375 c 1,14,15
 569.418301543 547.085490711 569.418301543 547.085490711 570.645507812 54.1220703125 c 2,16,-1
 570.7578125 9.009765625 l 1,17,-1
 308.318359375 9.009765625 l 1,18,-1
 308.244140625 57.1376953125 l 2,19,20
 307.000419497 841.735361808 307.000419497 841.735361808 78.9169921875 1334.65039062 c 2,21,-1
 60.3515625 1374.77246094 l 1,22,-1
 296.701171875 1489.26269531 l 1,0,-1
EndSplineSet
EndChar

StartChar: afii57395
Encoding: 1635 1635 62
Width: 1309
VWidth: 2215
GlyphClass: 2
Flags: W
LayerCount: 2
Fore
SplineSet
752.189453125 893.096679688 m 1,0,1
 658 797 658 797 509.125 823.022460938 c 1,2,3
 569.45636118 531.797100104 569.45636118 531.797100104 570.645507812 54.1220703125 c 2,4,-1
 570.7578125 9.009765625 l 1,5,-1
 308.318359375 9.009765625 l 1,6,-1
 308.244140625 57.13671875 l 2,7,8
 307.000419496 841.735361809 307.000419496 841.735361809 78.9169921875 1334.65039062 c 2,9,-1
 60.3515625 1374.77246094 l 1,10,-1
 296.791992188 1489.30664062 l 1,11,-1
 444.172851562 1150.83984375 l 2,12,13
 477 1076 477 1076 544.418945312 1077.85058594 c 0,14,15
 583 1079 583 1079 598.859375 1095.70703125 c 0,16,17
 635.53515625 1134.508218 635.53515625 1134.508218 635.53515625 1376.0546875 c 2,18,-1
 635.53515625 1424.59765625 l 1,19,-1
 852.438476562 1422.97167969 l 1,20,-1
 854.850585938 1380.86230469 l 2,21,22
 868 1157 868 1157 870.165039062 1142.59375 c 0,23,24
 883 1073 883 1073 949.962890625 1078.6796875 c 0,25,26
 984 1082 984 1082 998 1108 c 4,27,28
 1028.92298341 1165.85590445 1028.92298341 1165.85590445 1015.18359375 1415.578125 c 2,29,-1
 1012.48144531 1464.69140625 l 1,30,-1
 1245.30859375 1461.21484375 l 1,31,-1
 1247.1171875 1419.88964844 l 2,32,33
 1274 816 1274 816 954.483398438 818.612304688 c 0,34,35
 827 820 827 820 752.189453125 893.096679688 c 1,0,1
EndSplineSet
EndChar

StartChar: afii57396
Encoding: 1636 1636 63
Width: 1040
VWidth: 2487
GlyphClass: 2
Flags: W
LayerCount: 2
Fore
SplineSet
360.559570312 781.294921875 m 1,0,1
 154 869 154 869 154.232421875 1096.04785156 c 0,2,3
 154 1385 154 1385 476.490234375 1482.32617188 c 0,4,5
 580.193359375 1513.35742188 580.193359375 1513.35742188 712.248046875 1522.79199219 c 2,6,-1
 760.456054688 1526.23632812 l 1,7,-1
 760.456054688 1246.52832031 l 1,8,-1
 717.954101562 1244.16503906 l 2,9,10
 435 1228 435 1228 434.826171875 1086.52441406 c 0,11,12
 435 1041 435 1041 499.860351562 1007.68554688 c 0,13,14
 573.451171875 970.7734375 573.451171875 970.7734375 749.956054688 966.693359375 c 2,15,-1
 793.299804688 965.69140625 l 1,16,-1
 796.5390625 736.125976562 l 1,17,-1
 769.354492188 724.081054688 l 2,18,19
 340.072265625 533.220703125 340.072265625 533.220703125 342.419921875 407.509765625 c 4,20,21
 342 305 342 305 477.603515625 280.389648438 c 0,22,23
 528.952148438 271.008789062 528.952148438 271.008789062 602.536132812 271.259765625 c 2,24,-1
 960.880859375 272.482421875 l 1,25,-1
 964.1640625 -0.052734375 l 1,26,-1
 562.568359375 0.3857421875 l 2,27,28
 208 1 208 1 109.826171875 207.319335938 c 0,29,30
 77 277 77 277 76.4599609375 369.283203125 c 0,31,32
 76 561 76 561 360.559570312 781.294921875 c 1,0,1
EndSplineSet
EndChar

StartChar: afii57397
Encoding: 1637 1637 64
Width: 1284
VWidth: 2356
GlyphClass: 2
Flags: W
LayerCount: 2
Fore
SplineSet
659.984375 283.802734375 m 0,0,1
 809 284 809 284 873.981445312 345.606445312 c 0,2,3
 939 407 939 407 937.338867188 492.40234375 c 4,4,5
 935 736 935 736 626.307617188 1034.90136719 c 1,6,7
 349 734 349 734 349.563476562 511.615234375 c 4,8,9
 350 418 350 418 423.379882812 350.709960938 c 0,10,11
 497 284 497 284 659.984375 283.802734375 c 0,0,1
358.423828125 1251.24121094 m 1,12,-1
 536.66796875 1483.44042969 l 1,13,-1
 572.353515625 1456.11523438 l 2,14,15
 890 1213 890 1213 1050.1875 972.354492188 c 0,16,17
 1211 731 1211 731 1211.5 489.426757812 c 4,18,19
 1212 197 1212 197 963.905273438 75.576171875 c 0,20,21
 839 15 839 15 659.091796875 14.126953125 c 0,22,23
 381 14 381 14 231.182617188 146.901367188 c 0,24,25
 80.7568359375 281.109375 80.7568359375 281.109375 76.62890625 485.991210938 c 4,26,27
 70 825 70 825 417.909179688 1195.88671875 c 1,28,-1
 358.423828125 1251.24121094 l 1,12,-1
EndSplineSet
EndChar

StartChar: afii57398
Encoding: 1638 1638 65
Width: 1255
VWidth: 2356
GlyphClass: 2
Flags: W
LayerCount: 2
Fore
SplineSet
131.752929688 1465.30078125 m 2,0,1
 507.974609375 1366.72363281 507.974609375 1366.72363281 941.639648438 1466.30175781 c 2,2,-1
 996.447265625 1478.88671875 l 1,3,-1
 996.727539062 1418.68457031 l 2,4,5
 998 1098 998 1098 1028.09765625 813.079101562 c 128,-1,6
 1058.1953125 528.158203125 1058.1953125 528.158203125 1176.66113281 65.1640625 c 2,7,-1
 1191.02929688 9.009765625 l 1,8,-1
 908.725585938 9.009765625 l 1,9,-1
 899.998046875 42.7353515625 l 2,10,11
 794.995117188 452.184570312 794.995117188 452.184570312 766.5 755.5 c 0,12,13
 744 995 744 995 737.74609375 1164.4765625 c 1,14,15
 624 1140 624 1140 460.471679688 1140 c 128,-1,16
 296.942382812 1140 296.942382812 1140 107.916015625 1194.33886719 c 2,17,-1
 75.34765625 1203.70117188 l 1,18,-1
 75.34765625 1480.08007812 l 1,19,-1
 131.752929688 1465.30078125 l 2,0,1
EndSplineSet
EndChar

StartChar: afii57399
Encoding: 1639 1639 66
Width: 1270
VWidth: 2356
GlyphClass: 2
Flags: W
LayerCount: 2
Fore
SplineSet
503.067382812 48.5458984375 m 2,0,1
 434.637695312 607.990234375 434.637695312 607.990234375 80.1494140625 1321.02832031 c 6,2,-1
 60.2890625 1360.9765625 l 5,3,-1
 311.595703125 1488.63769531 l 5,4,-1
 331.625 1447.47070312 l 6,5,6
 529 1042 529 1042 640.705078125 552.875976562 c 5,7,8
 751.62109375 1036.34667969 751.62109375 1036.34667969 937.9296875 1446.3984375 c 6,9,-1
 957.380859375 1489.20898438 l 5,10,-1
 1208.58886719 1361.4765625 l 5,11,-1
 1190.27441406 1322.08300781 l 6,12,13
 851.590820312 594.26953125 851.590820312 594.26953125 767.512695312 47.1748046875 c 2,14,-1
 761.647460938 9.009765625 l 1,15,-1
 507.903320312 9.009765625 l 1,16,-1
 503.067382812 48.5458984375 l 2,0,1
EndSplineSet
EndChar

StartChar: afii57400
Encoding: 1640 1640 67
Width: 1270
VWidth: 2356
GlyphClass: 2
Flags: W
LayerCount: 2
Fore
SplineSet
507.903320312 1472.78417969 m 5,0,-1
 761.647460938 1472.78417969 l 5,1,-1
 767.512695312 1434.61914062 l 6,2,3
 850.891601562 889.708007812 850.891601562 889.708007812 1190.27441406 159.7109375 c 2,4,-1
 1208.58886719 120.317382812 l 1,5,-1
 957.380859375 -7.4150390625 l 1,6,-1
 937.9296875 35.3955078125 l 2,7,8
 752 444 752 444 640.705078125 928.91796875 c 1,9,10
 528.998046875 439.9921875 528.998046875 439.9921875 331.625 34.3232421875 c 2,11,-1
 311.595703125 -6.84375 l 1,12,-1
 60.2890625 120.817382812 l 1,13,-1
 80.1494140625 160.765625 l 2,14,15
 434.551757812 873.098632812 434.551757812 873.098632812 503.067382812 1433.24804688 c 6,16,-1
 507.903320312 1472.78417969 l 5,0,-1
EndSplineSet
EndChar

StartChar: afii57401
Encoding: 1641 1641 68
Width: 1239
VWidth: 2356
GlyphClass: 2
Flags: W
LayerCount: 2
Fore
SplineSet
764.560546875 635.63671875 m 1,0,1
 279 611 279 611 135.892578125 852.053710938 c 0,2,3
 84 939 84 939 83.8798828125 1054.76953125 c 0,4,5
 84 1239 84 1239 211.990234375 1367.29980469 c 0,6,7
 340 1495 340 1495 522.9453125 1496.47949219 c 0,8,9
 808 1498 808 1498 923.171875 1292.03222656 c 0,10,11
 980 1191 980 1191 991.3046875 1040.86816406 c 0,12,13
 1024.30371094 618.002929688 1024.30371094 618.002929688 1174.53515625 9.009765625 c 5,14,-1
 891.51171875 9.009765625 l 1,15,16
 814 302 814 302 764.560546875 635.63671875 c 1,0,1
738.348632812 897.536132812 m 1,17,-1
 735.342773438 954.287109375 l 2,18,19
 727 1103 727 1103 678.354492188 1166.15234375 c 0,20,21
 629 1230 629 1230 542.678710938 1228.54101562 c 0,22,23
 456 1228 456 1228 404.236328125 1186.06542969 c 0,24,25
 352 1145 352 1145 352.095703125 1061.45019531 c 0,26,27
 352 868 352 868 738.348632812 897.536132812 c 1,17,-1
EndSplineSet
EndChar

StartChar: afii57381
Encoding: 1642 1642 69
Width: 1303
VWidth: 2362
GlyphClass: 2
Flags: W
LayerCount: 2
Fore
SplineSet
249.572265625 1342.6875 m 128,-1,1
 249.572265625 1410.53320312 249.572265625 1410.53320312 298.538085938 1459.49902344 c 128,-1,2
 347.421875 1508.38378906 347.421875 1508.38378906 414.229492188 1507.35546875 c 0,3,4
 481.034234196 1508.38764077 481.034234196 1508.38764077 529.922851562 1459.49902344 c 128,-1,5
 578.887695312 1410.53320312 578.887695312 1410.53320312 578.887695312 1342.6875 c 128,-1,6
 578.887695312 1274.84277344 578.887695312 1274.84277344 529.921875 1225.87792969 c 128,-1,7
 481.038085938 1176.99316406 481.038085938 1176.99316406 414.229980469 1176.99316406 c 128,-1,8
 347.421875 1176.99316406 347.421875 1176.99316406 298.538085938 1225.87792969 c 128,-1,0
 249.572265625 1274.84173312 249.572265625 1274.84173312 249.572265625 1342.6875 c 128,-1,1
729.572265625 225.6875 m 128,-1,10
 729.572265625 293.533203125 729.572265625 293.533203125 778.538085938 342.499023438 c 128,-1,11
 827.421875 391.383789062 827.421875 391.383789062 894.229492188 390.35546875 c 0,12,13
 961.038034869 391.383840137 961.038034869 391.383840137 1009.92285156 342.499023438 c 128,-1,14
 1058.88769531 293.533203125 1058.88769531 293.533203125 1058.88769531 225.6875 c 128,-1,15
 1058.88769531 157.841733106 1058.88769531 157.841733106 1009.921875 108.877929688 c 128,-1,16
 961.038085938 59.9931640625 961.038085938 59.9931640625 894.229980469 59.9931640625 c 128,-1,17
 827.421875 59.9931640625 827.421875 59.9931640625 778.538085938 108.877929688 c 128,-1,9
 729.572265625 157.842773438 729.572265625 157.842773438 729.572265625 225.6875 c 128,-1,10
931.227539062 1568.91601562 m 1,18,-1
 1135.16015625 1463.85253906 l 1,19,-1
 367.301757812 -17.8203125 l 1,20,-1
 165.137695312 93.27734375 l 1,21,-1
 931.227539062 1568.91601562 l 1,18,-1
EndSplineSet
EndChar

StartChar: uni066B
Encoding: 1643 1643 70
Width: 810
VWidth: 2362
GlyphClass: 2
Flags: W
LayerCount: 2
Fore
SplineSet
438.166015625 627.211914062 m 1,0,-1
 652.887695312 526.291015625 l 1,1,-1
 216.245117188 -259.979492188 l 1,2,-1
 7.548828125 -153.356445312 l 1,3,-1
 438.166015625 627.211914062 l 1,0,-1
EndSplineSet
EndChar

StartChar: uni066C
Encoding: 1644 1644 71
Width: 677
VWidth: 2487
GlyphClass: 2
Flags: W
LayerCount: 2
Fore
SplineSet
342.989257812 347.708007812 m 0,0,1
 426.328125 346.100585938 426.328125 346.100585938 478.806640625 303.606445312 c 128,-1,2
 531.28515625 261.111328125 531.28515625 261.111328125 537.494140625 184.17578125 c 0,3,4
 546.856445312 61.4970703125 546.856445312 61.4970703125 481.78515625 -62.0263671875 c 0,5,6
 397.93359375 -220.177734375 397.93359375 -220.177734375 231.833007812 -342.1328125 c 2,7,-1
 201.984375 -364.048828125 l 1,8,-1
 85.4677734375 -256.852539062 l 1,9,-1
 121.978515625 -223.7578125 l 2,10,11
 185.21484375 -166.438476562 185.21484375 -166.438476562 231.48828125 -109.370117188 c 128,-1,12
 277.762695312 -52.30078125 277.762695312 -52.30078125 305.836914062 1.94921875 c 1,13,14
 224.96484375 12.0224609375 224.96484375 12.0224609375 185.966796875 66.02734375 c 128,-1,15
 146.967773438 120.032226562 146.967773438 120.032226562 159.762695312 201.569335938 c 0,16,17
 171.110351562 272.668945312 171.110351562 272.668945312 220.09765625 311.19921875 c 128,-1,18
 269.084960938 349.729492188 269.084960938 349.729492188 342.989257812 347.708007812 c 0,0,1
EndSplineSet
EndChar

StartChar: uni066E
Encoding: 1646 1646 72
Width: 1892
VWidth: 2356
GlyphClass: 2
Flags: W
AnchorPoint: "Anchor-10" 831.894 1162.77 basechar 0
AnchorPoint: "Anchor-7" 588.093 -173.36 basechar 0
LayerCount: 2
Fore
SplineSet
1161.54882812 6.974609375 m 0,0,1
 637.506086735 -22.6640174925 637.506086735 -22.6640174925 406.0390625 74.0888671875 c 0,2,3
 106.041105109 199.483329066 106.041105109 199.483329066 77.060546875 521.016601562 c 0,4,5
 65.4853515625 644.811523438 65.4853515625 644.811523438 112.865234375 809.418945312 c 2,6,-1
 125.038085938 851.709960938 l 1,7,-1
 349.215820312 792.560546875 l 1,8,-1
 342.771484375 752.327148438 l 2,9,10
 319.941098356 609.785408107 319.941098356 609.785408107 322.787109375 554.40625 c 0,11,12
 329.306640625 427.609375 329.306640625 427.609375 425.969726562 359.41796875 c 128,-1,13
 522.6328125 291.2265625 522.6328125 291.2265625 728.16796875 281.15234375 c 0,14,15
 848.046526598 275.276992743 848.046526598 275.276992743 992.252267204 277.869941684 c 0,16,17
 1329.09178882 283.926619297 1329.09178882 283.926619297 1487.6144632 347.898699658 c 4,18,19
 1550.25138595 373.175930637 1550.25138595 373.175930637 1551.875 386.477539062 c 0,20,21
 1566.89273529 501.126944015 1566.89273529 501.126944015 1531.49121094 693.873046875 c 0,22,23
 1522.0390625 745.3359375 1522.0390625 745.3359375 1510.06738281 783.060546875 c 2,24,-1
 1498.52148438 819.443359375 l 1,25,-1
 1757.76464844 951.510742188 l 1,26,-1
 1771.2109375 896.215820312 l 2,27,28
 1837.21448369 624.798253705 1837.21448369 624.798253705 1819.99414062 404.092773438 c 0,29,30
 1806.9348342 236.740179907 1806.9348342 236.740179907 1723.68945312 160.125 c 0,31,32
 1583.1919158 30.8175962842 1583.1919158 30.8175962842 1161.54882812 6.974609375 c 0,0,1
EndSplineSet
Substitution2: "'init' Initial Forms in Arabic lookup 13 subtable" uni066E.init
Substitution2: "'medi' Medial Forms in Arabic lookup 11 subtable" uni066E.medi
Substitution2: "'fina' Terminal Forms in Arabic lookup 9 subtable" uni066E.fina
EndChar

StartChar: uni066F
Encoding: 1647 1647 73
Width: 1477
VWidth: 2356
GlyphClass: 2
Flags: W
AnchorPoint: "Anchor-10" 190.36 1156.41 basechar 0
AnchorPoint: "Anchor-7" 321.8 -591 basechar 0
LayerCount: 2
Fore
SplineSet
1104.54394531 576.390625 m 0,0,1
 1074 610 1074 610 1028.1328125 609.16015625 c 0,2,3
 982 608 982 608 952.046875 576.575195312 c 128,-1,4
 922 545 922 545 908.46875 491.5625 c 128,-1,5
 895 438 895 438 894.8515625 402.537109375 c 0,6,7
 895.140625 333.244140625 895.140625 333.244140625 1030 333.37890625 c 0,8,9
 1098.0859375 333.447265625 1098.0859375 333.447265625 1163.35742188 356.129882812 c 1,10,11
 1162 386 1162 386 1148.62109375 464.291015625 c 0,12,13
 1135 542 1135 542 1104.54394531 576.390625 c 0,0,1
1401.16210938 294.107421875 m 0,14,15
 1402.46386719 4.6767578125 1402.46386719 4.6767578125 1326.33105469 -164.102539062 c 0,16,17
 1252.96679688 -325.41796875 1252.96679688 -325.41796875 1100.08398438 -405.7890625 c 128,-1,18
 947.201171875 -486.161132812 947.201171875 -486.161132812 723.734375 -485.745117188 c 0,19,20
 497.291015625 -485.051757812 497.291015625 -485.051757812 343.653320312 -402.885742188 c 128,-1,21
 190.014648438 -320.719726562 190.014648438 -320.719726562 118.379882812 -156.971679688 c 0,22,23
 46.4296875 8.1142578125 46.4296875 8.1142578125 80.3603515625 236.158203125 c 0,24,25
 102.215820312 385.20703125 102.215820312 385.20703125 166.30859375 528.891601562 c 2,26,-1
 183.079101562 566.48828125 l 1,27,-1
 425.973632812 483.104492188 l 1,28,-1
 407.73828125 438.905273438 l 2,29,30
 330.767578125 252.341796875 330.767578125 252.341796875 330.893554688 112.000976562 c 0,31,32
 330.771484375 81.81640625 330.771484375 81.81640625 334.611328125 53.0234375 c 0,33,34
 346.8515625 -40.1923828125 346.8515625 -40.1923828125 391.336914062 -100.561523438 c 128,-1,35
 435.822265625 -160.9296875 435.822265625 -160.9296875 518.813476562 -191.815429688 c 128,-1,36
 601.8046875 -222.700195312 601.8046875 -222.700195312 726.139648438 -222.700195312 c 0,37,38
 928.684570312 -222.24609375 928.684570312 -222.24609375 1031.34277344 -141.83984375 c 128,-1,39
 1134.00097656 -61.43359375 1134.00097656 -61.43359375 1151.78613281 104.325195312 c 1,40,41
 1073.49511719 77.607421875 1073.49511719 77.607421875 982.061523438 78.26953125 c 0,42,43
 894.467773438 78.9521484375 894.467773438 78.9521484375 825.822265625 108.8203125 c 128,-1,44
 757.176757812 138.689453125 757.176757812 138.689453125 712.436523438 198.014648438 c 0,45,46
 634.358398438 301.534179688 634.358398438 301.534179688 654.46875 474.412109375 c 0,47,48
 674.1328125 651.240234375 674.1328125 651.240234375 778.662109375 760.904296875 c 0,49,50
 844.166992188 830.354492188 844.166992188 830.354492188 926.166015625 856.814453125 c 128,-1,51
 1008.16601562 883.2734375 1008.16601562 883.2734375 1100.26660156 864.349609375 c 0,52,53
 1122.04492188 859.876953125 1122.04492188 859.876953125 1142.62304688 852.20703125 c 128,-1,54
 1163.20019531 844.536132812 1163.20019531 844.536132812 1182.12109375 833.904296875 c 128,-1,55
 1201.04199219 823.272460938 1201.04199219 823.272460938 1218.56738281 809.774414062 c 128,-1,56
 1236.09179688 796.275390625 1236.09179688 796.275390625 1251.99902344 780.018554688 c 128,-1,57
 1267.90527344 763.760742188 1267.90527344 763.760742188 1282.20703125 744.9765625 c 128,-1,58
 1296.5078125 726.19140625 1296.5078125 726.19140625 1309.21289062 704.860351562 c 0,59,60
 1355.44042969 628.0859375 1355.44042969 628.0859375 1378.07617188 525.447265625 c 128,-1,61
 1400.71289062 422.80859375 1400.71289062 422.80859375 1401.16210938 294.107421875 c 0,14,15
EndSplineSet
Substitution2: "'init' Initial Forms in Arabic lookup 13 subtable" uni066F.init
Substitution2: "'medi' Medial Forms in Arabic lookup 11 subtable" uni066F.medi
Substitution2: "'fina' Terminal Forms in Arabic lookup 9 subtable" uni066F.fina
EndChar

StartChar: uni0670
Encoding: 1648 1648 74
Width: 6
VWidth: 2317
GlyphClass: 4
Flags: W
AnchorPoint: "Anchor-10" 583.891 1359.45 mark 0
AnchorPoint: "Anchor-9" 583.891 1359.45 mark 0
AnchorPoint: "Anchor-1" 583.891 1936.62 basemark 0
AnchorPoint: "Anchor-1" 583.891 1359.45 mark 0
LayerCount: 2
Fore
SplineSet
538.892627368 1387.47851562 m 1,0,-1
 511.305546963 1840.94776692 l 1,1,-1
 655.671875 1925.96242051 l 1,2,-1
 655.671875 1387.47851562 l 1,3,-1
 538.892627368 1387.47851562 l 1,0,-1
EndSplineSet
EndChar

StartChar: uni0674
Encoding: 1652 1652 75
Width: 683
VWidth: 2317
GlyphClass: 2
Flags: W
LayerCount: 2
Fore
SplineSet
187.414595659 1651.42566466 m 1,0,1
 123.8203125 1709.13605372 123.8203125 1709.13605372 123.8203125 1806.54587849 c 128,-1,2
 123.8203125 1903.95570326 123.8203125 1903.95570326 199.272207293 1970.50198364 c 0,3,4
 242.115564538 2007.86962469 242.115564538 2007.86962469 301.272870096 2019.95045632 c 0,5,6
 418.489723404 2043.88794054 418.489723404 2043.88794054 526.764648438 1980.1054073 c 1,7,-1
 526.764648438 1824.51591044 l 1,8,-1
 477.878424397 1848.95303773 l 2,9,10
 400.921630967 1887.42911848 400.921630967 1887.42911848 326.340283633 1866.32892819 c 0,11,12
 274.566894733 1851.68145407 274.566894733 1851.68145407 270.309033818 1803.39974579 c 0,13,14
 264.597817648 1737.27156745 264.597817648 1737.27156745 362.945709645 1707.47865827 c 0,15,16
 392.701338861 1698.46336693 392.701338861 1698.46336693 526.07684219 1729.30703953 c 2,17,-1
 550.583007812 1734.97419827 l 1,18,-1
 550.583007812 1578.22670928 l 1,19,-1
 121.552734375 1481.90552664 l 1,20,-1
 121.552734375 1636.22790047 l 1,21,-1
 187.414595659 1651.42566466 l 1,0,1
EndSplineSet
EndChar

StartChar: uni06A1
Encoding: 1697 1697 79
Width: 1907
VWidth: 2356
GlyphClass: 2
Flags: W
AnchorPoint: "Anchor-10" 559.823 1346.98 basechar 0
AnchorPoint: "Anchor-7" 673.243 -113.873 basechar 0
LayerCount: 2
Fore
SplineSet
1524.54394531 876.390625 m 0,0,1
 1494 910 1494 910 1448.1328125 909.16015625 c 0,2,3
 1402 908 1402 908 1372.046875 876.575195312 c 128,-1,4
 1342 845 1342 845 1328.46875 791.5625 c 128,-1,5
 1315 738 1315 738 1314.8515625 702.537109375 c 0,6,7
 1315.140625 633.244140625 1315.140625 633.244140625 1450 633.37890625 c 0,8,9
 1518.0859375 633.447265625 1518.0859375 633.447265625 1583.35742188 656.129882812 c 1,10,11
 1582 686 1582 686 1568.62109375 764.291015625 c 0,12,13
 1555 842 1555 842 1524.54394531 876.390625 c 0,0,1
929.2890625 277.637695312 m 0,14,15
 1279.07128906 277.620117188 1279.07128906 277.620117188 1385.81445312 308.033691406 c 128,-1,16
 1492.55761719 338.447265625 1492.55761719 338.447265625 1536.97363281 395.98046875 c 1,17,18
 1478.95117188 383.057617188 1478.95117188 383.057617188 1404.87109375 383.4765625 c 0,19,20
 1224.65429688 384.96484375 1224.65429688 384.96484375 1140.98681641 495.899414062 c 128,-1,21
 1057.31933594 606.833984375 1057.31933594 606.833984375 1077.20410156 781.679199219 c 128,-1,22
 1097.08886719 956.524414062 1097.08886719 956.524414062 1201.43359375 1066.11035156 c 0,23,24
 1335.56517966 1208.19980982 1335.56517966 1208.19980982 1523.03417969 1169.55859375 c 0,25,26
 1653.06440247 1142.97989242 1653.06440247 1142.97989242 1732.06933594 1009.92675781 c 0,27,28
 1861.30585456 792.330984727 1861.30585456 792.330984727 1822.44726562 471.22265625 c 128,-1,29
 1783.57145951 149.972053426 1783.57145951 149.972053426 1486.79101562 54.1181640625 c 0,30,31
 1309.19130824 -3.2414191814 1309.19130824 -3.2414191814 941.766064274 0.0106380655478 c 128,-1,32
 574.340820312 3.2626953125 574.340820312 3.2626953125 406.01953125 74.095703125 c 0,33,34
 107.69455095 198.348005656 107.69455095 198.348005656 79.8291015625 508.196289062 c 0,35,36
 67.427734375 649.271484375 67.427734375 649.271484375 112.80859375 809.25390625 c 2,37,-1
 124.864257812 851.754882812 l 1,38,-1
 348.76171875 792.6796875 l 1,39,-1
 342.81640625 752.814453125 l 2,40,41
 322.416015625 616.029296875 322.416015625 616.029296875 324.752929688 557.315429688 c 0,42,43
 329.267535085 443.888091475 329.267535085 443.888091475 399.411132812 379.411132812 c 0,44,45
 495.215323105 291.346604939 495.215323105 291.346604939 742.7578125 280.884765625 c 0,46,47
 819.819335938 277.62890625 819.819335938 277.62890625 929.2890625 277.637695312 c 0,14,15
EndSplineSet
Substitution2: "'init' Initial Forms in Arabic lookup 13 subtable" uni06A1.init
Substitution2: "'medi' Medial Forms in Arabic lookup 11 subtable" uni06A1.medi
Substitution2: "'fina' Terminal Forms in Arabic lookup 9 subtable" uni06A1.fina
EndChar

StartChar: uni06A9
Encoding: 1705 1705 80
Width: 2004
VWidth: 2356
GlyphClass: 2
Flags: W
AnchorPoint: "Anchor-10" 411.9 1322.66 basechar 0
AnchorPoint: "Anchor-7" 534.86 -201.641 basechar 0
LayerCount: 2
Fore
SplineSet
916.225585938 0 m 2,0,1
 580 0 580 0 402.794921875 74.11328125 c 0,2,3
 109 198 109 198 76.7119140625 503.298828125 c 0,4,5
 62.0185546875 644.821289062 62.0185546875 644.821289062 109.7109375 809.489257812 c 2,6,-1
 121.93359375 851.690429688 l 1,7,-1
 346.859375 792.342773438 l 1,8,-1
 339.5 751.458007812 l 2,9,10
 313 604 313 604 316.212890625 536.692382812 c 0,11,12
 319 470 319 470 361.587890625 412.033203125 c 0,13,14
 444.006835938 300.692382812 444.006835938 300.692382812 722.071289062 281.395507812 c 0,15,16
 773.979492188 278.4296875 773.979492188 278.4296875 873.486328125 277.63671875 c 2,17,-1
 1141.07714844 275.50390625 l 1,18,-1
 1319.25878906 275.637695312 l 2,19,20
 1508 276 1508 276 1530.71484375 383.313476562 c 0,21,22
 1542.92382812 442.630859375 1542.92382812 442.630859375 1477.44042969 515.33203125 c 2,23,-1
 1200.79785156 822.467773438 l 2,24,25
 1094 941 1094 941 1090.55566406 1023.45507812 c 0,26,27
 1085 1187 1085 1187 1236.484375 1262.90527344 c 2,28,-1
 1920 1607.25878906 l 1,29,-1
 1920 1320.98632812 l 1,30,-1
 1352.68945312 1037.82617188 l 1,31,-1
 1662.54492188 695.276367188 l 2,32,33
 1819.06054688 522.24609375 1819.06054688 522.24609375 1766.85058594 310.12109375 c 0,34,35
 1691 0 1691 0 1234.45996094 0 c 2,36,-1
 916.225585938 0 l 2,0,1
EndSplineSet
Substitution2: "'init' Initial Forms in Arabic lookup 13 subtable" uniFB90
Substitution2: "'medi' Medial Forms in Arabic lookup 11 subtable" uniFB91
Substitution2: "'fina' Terminal Forms in Arabic lookup 9 subtable" uniFB8F
EndChar

StartChar: afii57514
Encoding: 1722 1722 82
Width: 1513
VWidth: 2362
GlyphClass: 2
Flags: W
AnchorPoint: "Anchor-10" 656.479 1063.46 basechar 0
AnchorPoint: "Anchor-7" 599.075 -470.182 basechar 0
LayerCount: 2
Fore
SplineSet
1429.72460938 292.245117188 m 4,0,1
 1427.63476562 -46.8076171875 1427.63476562 -46.8076171875 1250.39257812 -222.864257812 c 128,-1,2
 1073.15039062 -398.919921875 1073.15039062 -398.919921875 733.928710938 -398.919921875 c 0,3,4
 429.646484375 -398.919921875 429.646484375 -398.919921875 261.943359375 -250.40234375 c 128,-1,5
 94.2412109375 -101.885742188 94.2412109375 -101.885742188 77.146484375 185.334960938 c 0,6,7
 71.9697265625 274.475585938 71.9697265625 274.475585938 96.130859375 399.981445312 c 0,8,9
 120.75390625 525.043945312 120.75390625 525.043945312 175.584960938 643.407226562 c 2,10,-1
 193.302734375 681.65234375 l 1,11,-1
 424.189453125 592.51953125 l 1,12,-1
 406.932617188 550.084960938 l 2,13,14
 316.879882812 328.641601562 316.879882812 328.641601562 333.063476562 179.182617188 c 0,15,16
 351.655273438 14.201171875 351.655273438 14.201171875 449.77734375 -64.8935546875 c 128,-1,17
 547.899414062 -143.98828125 547.899414062 -143.98828125 739.5390625 -144.36328125 c 0,18,19
 955.126953125 -144.483398438 955.126953125 -144.483398438 1060.1875 -51.7890625 c 128,-1,20
 1165.24902344 40.90625 1165.24902344 40.90625 1174.40625 236.044921875 c 0,21,22
 1178.41503906 322.758789062 1178.41503906 322.758789062 1151.15917969 407.43359375 c 128,-1,23
 1123.90332031 492.107421875 1123.90332031 492.107421875 1064.04589844 576.434570312 c 2,24,-1
 1041.53417969 608.149414062 l 1,25,-1
 1249 806.377017259 l 2,26,27
 1259.52832031 816.436523438 1259.52832031 816.436523438 1270.60374645 798 c 0,28,29
 1431.11227991 530.81214637 1431.11227991 530.81214637 1429.72460938 292.245117188 c 4,0,1
EndSplineSet
Substitution2: "'init' Initial Forms in Arabic lookup 13 subtable" uni06BA.init
Substitution2: "'medi' Medial Forms in Arabic lookup 11 subtable" uni06BA.medi
Substitution2: "'fina' Terminal Forms in Arabic lookup 9 subtable" uniFB9F
EndChar

StartChar: uni06F4
Encoding: 1780 1780 89
Width: 1116
VWidth: 2356
GlyphClass: 2
Flags: W
LayerCount: 2
Fore
SplineSet
523.3359375 749.811523438 m 1,0,1
 572 468 572 468 572.002929688 107.418945312 c 0,2,3
 571.999994282 81.9503921561 571.999994282 81.9503921561 571.771484375 53.6455078125 c 2,4,-1
 571.411132812 9.009765625 l 1,5,-1
 309.377929688 9.009765625 l 1,6,-1
 309.303710938 57.134765625 l 2,7,8
 309 441 309 441 260.420898438 737.352539062 c 0,9,10
 211.933448158 1036.41047438 211.933448158 1036.41047438 80.734375 1334.12890625 c 2,11,-1
 63.2861328125 1373.72265625 l 1,12,-1
 301.333007812 1489.98144531 l 1,13,-1
 319.51171875 1445.43164062 l 2,14,15
 358 1351 358 1351 389.581054688 1249.01464844 c 1,16,17
 410 1296 410 1296 441.727539062 1334.16796875 c 0,18,19
 561 1471 561 1471 766.134765625 1470.26074219 c 0,20,21
 898 1470 898 1470 987.790039062 1410.52832031 c 1,22,-1
 987.790039062 1178.87109375 l 1,23,24
 741.436418047 1229.24551208 741.436418047 1229.24551208 641.106445312 1172.80371094 c 4,25,26
 562 1129 562 1129 561.766601562 1041.67382812 c 0,27,28
 561 948 561 948 767.905273438 947.32421875 c 0,29,30
 924 947 924 947 1048.37011719 1012.87011719 c 1,31,-1
 1052.09765625 754.27734375 l 1,32,33
 921 707 921 707 765 707.934570312 c 0,34,35
 619 709 619 709 523.3359375 749.811523438 c 1,0,1
EndSplineSet
EndChar

StartChar: uni06F5
Encoding: 1781 1781 90
Width: 1344
VWidth: 2215
GlyphClass: 2
Flags: W
LayerCount: 2
Fore
SplineSet
791.736328125 429.103515625 m 2,0,1
 808.188476562 279.111328125 808.188476562 279.111328125 906.5 277.5 c 0,2,3
 1010.79101562 275.790039062 1010.79101562 275.790039062 1009.67285156 425.913085938 c 0,4,5
 1009 653 1009 653 654.954101562 1038.03417969 c 1,6,7
 333 652 333 652 333.752929688 425.880859375 c 0,8,9
 334.193359375 278 334.193359375 278 449 278 c 0,10,11
 555.298828125 278 555.298828125 278 566.1171875 427.744140625 c 6,12,-1
 573.57421875 530.959960938 l 1,13,-1
 780.779296875 530.959960938 l 1,14,-1
 791.736328125 429.103515625 l 2,0,1
678.088867188 110.498046875 m 1,15,16
 602 10 602 10 436.5 9 c 128,-1,17
 271 8 271 8 174 108.5 c 128,-1,18
 77 209 77 209 77.4267578125 395.795898438 c 0,19,20
 78 723 78 723 466.041015625 1208.16992188 c 1,21,-1
 419.157226562 1248.875 l 1,22,-1
 579.165039062 1470.79101562 l 1,23,-1
 616.240234375 1439.93945312 l 2,24,25
 1272 894 1272 894 1269.81152344 389.900390625 c 0,26,27
 1269 207 1269 207 1181 107.5 c 128,-1,28
 1093 8 1093 8 926 9 c 128,-1,29
 759 10 759 10 678.088867188 110.498046875 c 1,15,16
EndSplineSet
EndChar

StartChar: uni06F6
Encoding: 1782 1782 91
Width: 1058
VWidth: 2356
GlyphClass: 2
Flags: W
LayerCount: 2
Fore
SplineSet
431.94140625 1433.39648438 m 0,0,1
 604.6796875 1495.24316406 604.6796875 1495.24316406 807.75 1430.07714844 c 2,2,-1
 839 1420.04882812 l 1,3,-1
 839 1161.51855469 l 1,4,-1
 781.069335938 1178.89746094 l 2,5,6
 582 1239 582 1239 487.50390625 1171.68261719 c 0,7,8
 412 1118 412 1118 412.384765625 1042.33789062 c 0,9,10
 411.991210938 964.262695312 411.991210938 964.262695312 468.186523438 923.6875 c 0,11,12
 586 839 586 839 672.364257812 876.45703125 c 0,13,14
 939.331054688 993.583984375 939.331054688 993.583984375 1008.19042969 1014.11328125 c 5,15,-1
 1023.30273438 742.909179688 l 1,16,-1
 990.040039062 732.35546875 l 2,17,18
 579.693359375 601.90234375 579.693359375 601.90234375 285.771484375 -3.203125 c 1,19,-1
 42.6318359375 93.1240234375 l 1,20,21
 195 404 195 404 424.861328125 655.896484375 c 1,22,23
 168 743 168 743 156.015625 1000.36621094 c 0,24,25
 146 1209 146 1209 286.28515625 1343.74121094 c 0,26,27
 349 1403 349 1403 431.94140625 1433.39648438 c 0,0,1
EndSplineSet
EndChar

StartChar: uniFB8F
Encoding: 64399 64399 106
Width: 2176
VWidth: 2356
GlyphClass: 2
Flags: W
AnchorPoint: "Anchor-10" 505.18 1293.15 basechar 0
AnchorPoint: "Anchor-7" 588.92 -176.54 basechar 0
LayerCount: 2
Fore
SplineSet
2184.70996094 275.459960938 m 2,0,1
 2248.35058594 273.662109375 2248.35058594 273.662109375 2263.47558594 219.69140625 c 0,2,3
 2276.37597656 172.627929688 2276.37597656 172.627929688 2276.37597656 153.111328125 c 2,4,-1
 2276.37597656 119 l 2,5,6
 2276 42 2276 42 2232.09179688 13.55859375 c 0,7,8
 2210.39257812 -0.7412109375 2210.39257812 -0.7412109375 2181.56738281 0.01171875 c 2,9,-1
 2140.86816406 1.0751953125 l 2,10,11
 1964 6 1964 6 1774.75195312 221.500976562 c 1,12,13
 1679.79785156 0.5302734375 1679.79785156 0.5302734375 1271.23339844 0.5302734375 c 2,14,-1
 887.205078125 0.5302734375 l 2,15,16
 362 1 362 1 181.249023438 245.409179688 c 0,17,18
 17.1328125 466.821289062 17.1328125 466.821289062 119.359375 809.8203125 c 2,19,-1
 131.811523438 851.600585938 l 1,20,-1
 355.336914062 792.623046875 l 1,21,-1
 349.174804688 752.59765625 l 2,22,23
 327 609 327 609 329.174804688 553.776367188 c 0,24,25
 335 388 335 388 493.385742188 325.19140625 c 0,26,27
 570 295 570 295 635.546875 288.88671875 c 0,28,29
 701 283 701 283 732.068359375 281.162109375 c 0,30,31
 795 277 795 277 879.124023438 276.009765625 c 1,32,-1
 1355.99414062 276.16796875 l 2,33,34
 1547 276 1547 276 1567.49707031 384 c 0,35,36
 1578.98535156 443.923828125 1578.98535156 443.923828125 1514.22070312 515.829101562 c 2,37,-1
 1237.58398438 822.965820312 l 2,38,39
 1130 942 1130 942 1126.64257812 1024.78808594 c 0,40,41
 1121 1186 1121 1186 1273.29785156 1262.28027344 c 2,42,-1
 1960 1607.25878906 l 5,43,-1
 1960 1320.8671875 l 5,44,-1
 1389.33398438 1038.29492188 l 1,45,-1
 2001.33398438 358.938476562 l 2,46,47
 2073.7109375 278.595703125 2073.7109375 278.595703125 2154.19042969 276.322265625 c 2,48,-1
 2184.70996094 275.459960938 l 2,0,1
EndSplineSet
EndChar

StartChar: uniFB9F
Encoding: 64415 64415 114
Width: 1492
VWidth: 2356
GlyphClass: 2
Flags: W
AnchorPoint: "Anchor-10" 418.357 802.317 basechar 0
AnchorPoint: "Anchor-7" 318.314 -694.99 basechar 0
LayerCount: 2
Fore
SplineSet
1499.88574219 275.4765625 m 2,0,1
 1532.25292969 275.150390625 1532.25292969 275.150390625 1553.97167969 255.583007812 c 128,-1,2
 1575.68945312 236.015625 1575.68945312 236.015625 1583.95800781 209.889648438 c 128,-1,3
 1592.2265625 183.763671875 1592.2265625 183.763671875 1592.37597656 153.109375 c 2,4,-1
 1592.37597656 119 l 2,5,6
 1592.37597656 43.3671875 1592.37597656 43.3671875 1549.36328125 14.3984375 c 0,7,8
 1527.09765625 -0.5986328125 1527.09765625 -0.5986328125 1497.77734375 0.0078125 c 2,9,-1
 1466.31835938 0.537109375 l 2,10,11
 1448.33300781 0.8388671875 1448.33300781 0.8388671875 1431.12890625 2.99609375 c 128,-1,12
 1413.92480469 5.1533203125 1413.92480469 5.1533203125 1397.87695312 9.1640625 c 128,-1,13
 1381.828125 13.1748046875 1381.828125 13.1748046875 1367.80371094 18.8896484375 c 1,14,15
 1354.58398438 -151.431640625 1354.58398438 -151.431640625 1280.22363281 -270.798828125 c 0,16,17
 1127.03710938 -518.030273438 1127.03710938 -518.030273438 723.788085938 -517.544921875 c 0,18,19
 261.516601562 -516.962890625 261.516601562 -516.962890625 118.372070312 -188.751953125 c 0,20,21
 46.599609375 -24.173828125 46.599609375 -24.173828125 80.3583984375 204.349609375 c 0,22,23
 102.3828125 353.677734375 102.3828125 353.677734375 166.303710938 497.080078125 c 2,24,-1
 183.068359375 534.692382812 l 1,25,-1
 425.890625 451.333984375 l 1,26,-1
 407.76953125 407.181640625 l 2,27,28
 330.993164062 220.109375 330.993164062 220.109375 330.893554688 80.326171875 c 0,29,30
 330.92578125 70.23828125 330.92578125 70.23828125 331.357421875 60.2158203125 c 128,-1,31
 331.7890625 50.193359375 331.7890625 50.193359375 332.612304688 40.3662109375 c 128,-1,32
 333.435546875 30.5400390625 333.435546875 30.5400390625 334.642578125 20.9794921875 c 0,33,34
 352.3984375 -118.545898438 352.3984375 -118.545898438 446.3828125 -186.40625 c 128,-1,35
 540.3671875 -254.265625 540.3671875 -254.265625 726.245117188 -254.5 c 0,36,37
 918.174804688 -254.734375 918.174804688 -254.734375 1015.49023438 -179.278320312 c 128,-1,38
 1112.80664062 -103.822265625 1112.80664062 -103.822265625 1130.55175781 53.7587890625 c 0,39,40
 1141.31347656 143.923828125 1141.31347656 143.923828125 1116.89746094 238.256835938 c 0,41,42
 1087.79394531 349.693359375 1087.79394531 349.693359375 1026.91992188 428.08203125 c 2,43,-1
 1001.96484375 460.217773438 l 1,44,-1
 1207 655.429437214 l 2,45,46
 1226.1953125 673.705078125 1226.1953125 673.705078125 1236.18642059 649 c 6,47,-1
 1251.00878906 612.348632812 l 2,48,49
 1316.27441406 450.967773438 1316.27441406 450.967773438 1362.87890625 351.161132812 c 0,50,51
 1375.8984375 323.946289062 1375.8984375 323.946289062 1391.43945312 307.330078125 c 128,-1,52
 1406.97949219 290.713867188 1406.97949219 290.713867188 1425.00976562 283.440429688 c 128,-1,53
 1443.04101562 276.166015625 1443.04101562 276.166015625 1466.37792969 275.899414062 c 2,54,-1
 1499.88574219 275.4765625 l 2,0,1
EndSplineSet
EndChar

StartChar: uniFBE8
Encoding: 64488 64488 117
Width: 665
VWidth: 2362
GlyphClass: 2
Flags: W
AnchorPoint: "Anchor-10" 293.546 1125.67 basechar 0
AnchorPoint: "Anchor-7" 327.466 -71.0703 basechar 0
LayerCount: 2
Fore
SplineSet
469.866210938 91.2412109375 m 0,0,1
 363.677734375 0 363.677734375 0 85.48828125 -0 c 2,2,-1
 -2 0 l 2,3,4
 -31.1591796875 0 -31.1591796875 0 -53.1826171875 14.818359375 c 0,5,6
 -96.6240234375 44.048828125 -96.6240234375 44.048828125 -96.6240234375 119 c 2,7,-1
 -96.6240234375 152.890625 l 2,8,9
 -97.009765625 231.883789062 -97.009765625 231.883789062 -52.8505859375 261.328125 c 0,10,11
 -31.6279296875 275.479492188 -31.6279296875 275.479492188 -4 275.479492188 c 2,12,-1
 89.2080078125 275.479492188 l 2,13,14
 178.424804688 275.01953125 178.424804688 275.01953125 202.487304688 278.9921875 c 0,15,16
 293.442382812 291.174804688 293.442382812 291.174804688 313.571289062 339.30859375 c 0,17,18
 339.21875 399.375976562 339.21875 399.375976562 328.26953125 529.344726562 c 0,19,20
 316.46875 667.586914062 316.46875 667.586914062 292.9453125 761.765625 c 2,21,-1
 281.637695312 807.033203125 l 1,22,-1
 526.981445312 858.965820312 l 1,23,-1
 540.16015625 821.831054688 l 2,24,25
 548.342773438 798.7734375 548.342773438 798.7734375 555.206054688 774.208984375 c 128,-1,26
 562.0703125 749.64453125 562.0703125 749.64453125 567.590820312 723.751953125 c 128,-1,27
 573.111328125 697.859375 573.111328125 697.859375 577.356445312 670.388671875 c 128,-1,28
 581.6015625 642.91796875 581.6015625 642.91796875 584.559570312 614.125976562 c 128,-1,29
 587.516601562 585.334960938 587.516601562 585.334960938 589.243164062 554.893554688 c 0,30,31
 607.077148438 209.278320312 607.077148438 209.278320312 469.866210938 91.2412109375 c 0,0,1
EndSplineSet
EndChar

StartChar: uniFBE9
Encoding: 64489 64489 118
Width: 744
VWidth: 2356
GlyphClass: 2
Flags: W
AnchorPoint: "Anchor-10" 317.926 1070.55 basechar 0
AnchorPoint: "Anchor-7" 285.065 -219.47 basechar 0
LayerCount: 2
Fore
SplineSet
749.620117188 0 m 2,0,-1
 706.977539062 0 l 2,1,2
 560 0 560 0 431.260742188 110.498046875 c 5,3,4
 301 0 301 0 129.21484375 0 c 2,5,-1
 -4 0 l 2,6,7
 -9 0 -9 0 -13.9716796875 0.4970703125 c 128,-1,8
 -19 1 -19 1 -24.05078125 2.0771484375 c 128,-1,9
 -29 3 -29 3 -34.05859375 4.7890625 c 0,10,11
 -39 6 -39 6 -43.828125 8.76953125 c 0,12,13
 -49 11 -49 11 -53.1826171875 14.068359375 c 0,14,15
 -96.6240234375 42.7517510611 -96.6240234375 42.7517510611 -96.6240234375 119.114257812 c 2,16,-1
 -96.6240234375 153 l 2,17,18
 -97.0088883375 240.009456875 -97.0088883375 240.009456875 -51.3388671875 261.897460938 c 0,19,20
 -21.9629288362 275.479492188 -21.9629288362 275.479492188 -3.8466796875 275.479492188 c 2,21,-1
 132.551757812 275.479492188 l 2,22,23
 224.500842665 275.012687652 224.500842665 275.012687652 264.689453125 307.865234375 c 0,24,25
 303.730997286 339.780101274 303.730997286 339.780101274 305.302734375 412.615234375 c 2,26,-1
 310.955078125 674.547851562 l 1,27,-1
 551.620117188 716.13671875 l 1,28,-1
 562.668945312 413.278320312 l 2,29,30
 565 338 565 338 598.865234375 306.799804688 c 0,31,32
 631.500378653 275.479492188 631.500378653 275.479492188 709.94140625 275.479492188 c 2,33,-1
 750.375976562 275.479492188 l 2,34,35
 776 275 776 275 797.859375 262.140625 c 0,36,37
 843.375976562 232.757287543 843.375976562 232.757287543 843.375976562 153.109375 c 2,38,-1
 843.375976562 119 l 2,39,40
 843 90 843 90 834.76171875 62.978515625 c 0,41,42
 826 37 826 37 804.131835938 18.640625 c 0,43,44
 782 0 782 0 749.620117188 0 c 2,0,-1
EndSplineSet
EndChar

StartChar: uniFE73
Encoding: 65139 65139 126
Width: 613
VWidth: 2362
GlyphClass: 2
Flags: W
AnchorPoint: "Anchor-10" 226.617 1404.45 basechar 0
AnchorPoint: "Anchor-7" 226.617 -70.0098 basechar 0
LayerCount: 2
Fore
SplineSet
365.364257812 419.96484375 m 2,0,1
 365.364257812 371.833007812 365.364257812 371.833007812 408.028320312 329.16796875 c 128,-1,2
 450.692382812 286.502929688 450.692382812 286.502929688 548.73046875 286.502929688 c 2,3,-1
 668.1953125 286.502929688 l 1,4,-1
 668.1953125 9.009765625 l 1,5,-1
 486.349609375 9.009765625 l 2,6,7
 311.044921875 9.009765625 311.044921875 9.009765625 199.458007812 120.595703125 c 0,8,9
 143.905273438 176.1484375 143.905273438 176.1484375 115.887695312 248.443359375 c 128,-1,10
 87.8701171875 320.739257812 87.8701171875 320.739257812 87.8701171875 406.354492188 c 2,11,-1
 87.8701171875 489.524414062 l 1,12,-1
 365.364257812 489.524414062 l 1,13,-1
 365.364257812 419.96484375 l 2,0,1
EndSplineSet
EndChar

StartChar: uniFE8E
Encoding: 65166 65166 152
Width: 557
VWidth: 2356
GlyphClass: 2
Flags: W
AnchorPoint: "Anchor-10" 228.907 1602.98 basechar 0
AnchorPoint: "Anchor-7" 264.947 -170.71 basechar 0
LayerCount: 2
Fore
SplineSet
564.602539062 275.479492188 m 2,0,1
 657.375976562 275.479492188 657.375976562 275.479492188 657.375976562 153.109375 c 2,2,-1
 657.375976562 119 l 2,3,4
 657 0 657 0 563.620117188 0 c 2,5,-1
 523.619140625 0 l 2,6,7
 296.509735444 -6.78346268046e-14 296.509735444 -6.78346268046e-14 196.046875 152.934570312 c 0,8,9
 128.631806855 256.565991848 128.631806855 256.565991848 121.98046875 474.973632812 c 2,10,-1
 92.4599609375 1444.328125 l 5,11,-1
 356.021484375 1560.24902344 l 5,12,-1
 355.568359375 489.94921875 l 2,13,14
 356.008543954 372.724679262 356.008543954 372.724679262 395.7109375 324.220703125 c 0,15,16
 435.607516969 275.479492188 435.607516969 275.479492188 523.409179688 275.479492188 c 2,17,-1
 564.602539062 275.479492188 l 2,0,1
EndSplineSet
EndChar

StartChar: uniFEA2
Encoding: 65186 65186 172
Width: 1408
VWidth: 2356
GlyphClass: 2
Flags: W
AnchorPoint: "Anchor-10" 641.39 1233.26 basechar 0
AnchorPoint: "Anchor-7" 462.61 -763.398 basechar 0
LayerCount: 2
Fore
SplineSet
1414.83300781 275.4765625 m 2,0,1
 1483.9990389 276.231738507 1483.9990389 276.231738507 1503.2890625 196.21484375 c 0,2,3
 1508.26757812 175.563476562 1508.26757812 175.563476562 1508.37597656 153.108398438 c 2,4,-1
 1508.37597656 119 l 2,5,6
 1508.37597656 1.92439800145 1508.37597656 1.92439800145 1415.36328125 0.005859375 c 2,7,-1
 1372.29296875 -0.5263671875 l 2,8,9
 1124.96559046 -3.58610753863 1124.96559046 -3.58610753863 1004.65625 192.353515625 c 0,10,11
 946.004882812 287.875 946.004882812 287.875 921.036132812 426.743164062 c 1,12,13
 746.119140625 388.650390625 746.119140625 388.650390625 617.155273438 314.860351562 c 0,14,15
 336.013671875 152.991210938 336.013671875 152.991210938 336.14453125 -95.1044921875 c 0,16,17
 336.020507812 -229.381835938 336.020507812 -229.381835938 435.469238281 -309.209960938 c 128,-1,18
 534.91796875 -389.038085938 534.91796875 -389.038085938 767.83935547 -389.514160156 c 128,-1,19
 1000.76074219 -389.990234375 1000.76074219 -389.990234375 1168.03613281 -342.418945312 c 2,20,-1
 1209.60644531 -330.59765625 l 1,21,-1
 1288.14257812 -569.614257812 l 1,22,-1
 1244.30078125 -583.09765625 l 2,23,24
 1026.74121094 -650.006835938 1026.74121094 -650.006835938 806.208984375 -649.780273438 c 0,25,26
 372.247070312 -650.010742188 372.247070312 -650.010742188 197.677734375 -445.356445312 c 0,27,28
 75.958984375 -303.623046875 75.958984375 -303.623046875 75.962890625 -101.576171875 c 128,-1,29
 75.966796875 100.470703125 75.966796875 100.470703125 191.21875 274.41796875 c 0,30,31
 359.162027386 527.891103819 359.162027386 527.891103819 725.893554688 624.138671875 c 5,32,33
 558.315024479 702.023556487 558.315024479 702.023556487 529.051757812 703.918945312 c 0,34,35
 425.735351562 710.571289062 425.735351562 710.571289062 296.245117188 545.923828125 c 2,36,-1
 267.778320312 509.727539062 l 1,37,-1
 85.333984375 660.149414062 l 1,38,-1
 108.666992188 694.125 l 2,39,40
 293.277431524 962.946578629 293.277431524 962.946578629 516.038085938 963.44140625 c 0,41,42
 573.09331962 962.661411392 573.09331962 962.661411392 610.810331685 947.974260384 c 128,-1,43
 648.52734375 933.287109375 648.52734375 933.287109375 684.888614041 916.952778882 c 128,-1,44
 721.249884333 900.618448389 721.249884333 900.618448389 839.814395291 843.100239819 c 128,-1,45
 958.37890625 785.58203125 958.37890625 785.58203125 1035.91357422 758.297851562 c 128,-1,46
 1113.44824219 731.013671875 1113.44824219 731.013671875 1201.5234375 719.442382812 c 2,47,-1
 1246.43164062 713.54296875 l 1,48,-1
 1211.12304688 457.704101562 l 1,49,-1
 1174.78808594 455.063476562 l 2,50,51
 1165.06354453 454.35700405 1165.06354453 454.35700405 1153.09960938 453.469726562 c 1,52,53
 1174.76464844 358.2265625 1174.76464844 358.2265625 1225.78515625 315.983398438 c 128,-1,54
 1276.80566406 273.740234375 1276.80566406 273.740234375 1366.52539062 274.838867188 c 2,55,-1
 1414.83300781 275.4765625 l 2,0,1
EndSplineSet
EndChar

StartChar: uniFEA3
Encoding: 65187 65187 173
Width: 1436
VWidth: 2356
GlyphClass: 2
Flags: W
AnchorPoint: "Anchor-10" 393.26 1164.07 basechar 0
AnchorPoint: "Anchor-7" 599.96 -172.83 basechar 0
LayerCount: 2
Fore
SplineSet
-4.224609375 275.479492188 m 2,0,-1
 39.8857421875 275.479492188 l 2,1,2
 379.577148438 275.015625 379.577148438 275.015625 535.666503906 332.028320312 c 128,-1,3
 691.755859375 389.041015625 691.755859375 389.041015625 842.09375 455.856445312 c 1,4,5
 778.46875 477.943359375 778.46875 477.943359375 708.674316406 508.932617188 c 128,-1,6
 638.879882812 539.921875 638.879882812 539.921875 588.666015625 558.711914062 c 0,7,8
 490.428926045 595.471537567 490.428926045 595.471537567 427.655273438 605.140625 c 0,9,10
 333.4921875 618.264648438 333.4921875 618.264648438 215.692382812 463.170898438 c 2,11,-1
 188.307617188 427.116210938 l 1,12,-1
 2.8515625 569.774414062 l 1,13,-1
 27.9921875 605.099609375 l 2,14,15
 132.57421875 752.045898438 132.57421875 752.045898438 197.609375 799.499023438 c 0,16,17
 348.169921875 908.1171875 348.169921875 908.1171875 543.692382812 854.172851562 c 0,18,19
 603.993653598 837.545749186 603.993653598 837.545749186 938.038085938 692.920898438 c 0,20,21
 1143.89355469 603.626953125 1143.89355469 603.626953125 1312.13378906 614.858398438 c 2,22,-1
 1368.82324219 618.642578125 l 1,23,-1
 1330.18554688 385.756835938 l 1,24,-1
 1300.28808594 379.306640625 l 2,25,26
 1220.74902344 362.146484375 1220.74902344 362.146484375 678.05078125 99.671875 c 0,27,28
 472.327148438 0 472.327148438 0 49.0302734375 0 c 2,29,-1
 -4 0 l 2,30,31
 -31.8125 0 -31.8125 0 -53.103515625 14.1201171875 c 0,32,33
 -96.6240234375 42.984375 -96.6240234375 42.984375 -96.6240234375 119 c 2,34,-1
 -96.6240234375 152.890625 l 2,35,36
 -96.8642578125 202.1328125 -96.8642578125 202.1328125 -74.6640625 238.565429688 c 128,-1,37
 -52.462890625 274.998046875 -52.462890625 274.998046875 -4.224609375 275.479492188 c 2,0,-1
EndSplineSet
EndChar

StartChar: uniFEA4
Encoding: 65188 65188 174
Width: 1423
VWidth: 2356
GlyphClass: 2
Flags: W
AnchorPoint: "Anchor-10" 401.74 1185.23 basechar 0
AnchorPoint: "Anchor-7" 579.82 -181.31 basechar 0
LayerCount: 2
Fore
SplineSet
1430.79882812 275.477539062 m 2,0,1
 1477.95912507 275.066313744 1477.95912507 275.066313744 1500.66736397 238.225436702 c 0,2,3
 1523.37597656 200.373298718 1523.37597656 200.373298718 1523.37597656 153.109375 c 2,4,-1
 1523.37597656 119 l 2,5,6
 1523 42 1523 42 1478.51171875 13.6083984375 c 0,7,8
 1457 0 1457 0 1429.62011719 0 c 2,9,-1
 1298.41503906 0 l 2,10,11
 966 0 966 0 862.424804688 197.798828125 c 1,12,13
 771.9837855 145.108971248 771.9837855 145.108971248 678.114257812 99.7021484375 c 0,14,15
 472 0 472 0 49.0302734375 0 c 2,16,-1
 -4 0 l 2,17,18
 -34 0 -34 0 -53.1826171875 14.068359375 c 0,19,20
 -96.6240234375 42.7517510611 -96.6240234375 42.7517510611 -96.6240234375 119.114257812 c 2,21,-1
 -96.6240234375 153 l 1,22,23
 -99 229 -99 229 -52.029296875 261.57421875 c 0,24,25
 -30.2489536823 275.479492188 -30.2489536823 275.479492188 -4.224609375 275.479492188 c 2,26,-1
 39.85546875 275.479492188 l 2,27,28
 382.918318105 275.00426886 382.918318105 275.00426886 516.15234375 324.899414062 c 0,29,30
 698 393 698 393 841.67578125 456.000976562 c 1,31,32
 776 478 776 478 707.737769555 508.974043679 c 0,33,34
 639 540 639 540 588.5 559 c 0,35,36
 489.708979703 595.980595833 489.708979703 595.980595833 427.655273438 605.140625 c 0,37,38
 334.04486124 618.993361305 334.04486124 618.993361305 215.692382812 463.170898438 c 2,39,-1
 188.307617188 427.116210938 l 1,40,-1
 2.8251953125 569.79296875 l 1,41,-1
 28.0068359375 605.125 l 2,42,43
 131 750 131 750 196.90625 798.978515625 c 0,44,45
 347.623953843 912.220156579 347.623953843 912.220156579 543.1171875 854.326171875 c 0,46,47
 615 833 615 833 937.994140625 692.940429688 c 0,48,49
 1145.60082012 603.741856586 1145.60082012 603.741856586 1312.13378906 614.858398438 c 2,50,-1
 1368.82324219 618.642578125 l 1,51,-1
 1330.25390625 396.16796875 l 1,52,53
 1174 365 1174 365 1109.09765625 321.661132812 c 1,54,55
 1226.31200721 277.260610064 1226.31200721 277.260610064 1321.4921875 276.430664062 c 2,56,-1
 1430.79882812 275.477539062 l 2,0,1
EndSplineSet
EndChar

StartChar: uniFEAA
Encoding: 65194 65194 180
Width: 1187
VWidth: 2356
GlyphClass: 2
Flags: W
AnchorPoint: "Anchor-10" 540.149 1334.65 basechar 0
AnchorPoint: "Anchor-7" 500.41 -201.98 basechar 0
LayerCount: 2
Fore
SplineSet
1195.76757812 275.458007812 m 2,0,1
 1220.08007812 274.703125 1220.08007812 274.703125 1238.46679688 263.541015625 c 128,-1,2
 1256.85253906 252.37890625 1256.85253906 252.37890625 1267.08886719 234.265625 c 128,-1,3
 1277.32421875 216.151367188 1277.32421875 216.151367188 1282.29492188 195.76171875 c 128,-1,4
 1287.265625 175.37109375 1287.265625 175.37109375 1287.37597656 153.111328125 c 2,5,-1
 1287.37597656 119 l 2,6,7
 1287.37597656 42.322265625 1287.37597656 42.322265625 1242.51171875 13.6083984375 c 0,8,9
 1221.24902344 0 1221.24902344 0 1193.62011719 0 c 2,10,-1
 1162.85644531 0 l 2,11,12
 1085.55371094 0 1085.55371094 0 1018.15234375 29.0244140625 c 128,-1,13
 950.751953125 58.0478515625 950.751953125 58.0478515625 897.176757812 113.916015625 c 1,14,15
 752.561523438 -21.982421875 752.561523438 -21.982421875 430.541992188 -21.7431640625 c 0,16,17
 246.4375 -22.0107421875 246.4375 -22.0107421875 105.817382812 26.8408203125 c 2,18,-1
 75.5849609375 37.34375 l 1,19,-1
 75.5849609375 335.352539062 l 1,20,-1
 138.350585938 308.3828125 l 2,21,22
 260.23046875 256.01171875 260.23046875 256.01171875 421.693359375 256.22265625 c 0,23,24
 646.330078125 256.017578125 646.330078125 256.017578125 715.955078125 325.890625 c 0,25,26
 723.875976562 333.701171875 723.875976562 333.701171875 723.814453125 342.967773438 c 0,27,28
 723.930664062 360.608398438 723.930664062 360.608398438 712.5546875 383.581054688 c 2,29,-1
 446.615234375 925.8515625 l 1,30,-1
 675.063476562 1066.81347656 l 1,31,-1
 978.551757812 465.268554688 l 2,32,33
 1027.56152344 368.125 1027.56152344 368.125 1075.8671875 322.874023438 c 128,-1,34
 1124.17285156 277.624023438 1124.17285156 277.624023438 1167.39746094 276.33203125 c 2,35,-1
 1195.76757812 275.458007812 l 2,0,1
EndSplineSet
EndChar

StartChar: uniFEAE
Encoding: 65198 65198 184
Width: 1026
VWidth: 2362
GlyphClass: 2
Flags: W
AnchorPoint: "Anchor-10" 568.52 915.26 basechar 0
AnchorPoint: "Anchor-7" 493.181 -636.103 basechar 0
LayerCount: 2
Fore
SplineSet
1004.97851562 0.009765625 m 2,0,1
 919.588867188 0.033203125 919.588867188 0.033203125 863.38671875 21.734375 c 1,2,3
 808.791992188 -252.267578125 808.791992188 -252.267578125 627.91015625 -392.6484375 c 128,-1,4
 447.028320312 -533.028320312 447.028320312 -533.028320312 150.756835938 -534.03125 c 2,5,-1
 121.694335938 -534.112304688 l 1,6,-1
 13.2738665575 -338 l 2,7,8
 -1.1552734375 -311.900390625 -1.1552734375 -311.900390625 22 -310.528571811 c 2,9,-1
 70.103515625 -307.678710938 l 2,10,11
 333.284179688 -292.0859375 333.284179688 -292.0859375 469.127929688 -185.25390625 c 128,-1,12
 604.971679688 -78.421875 604.971679688 -78.421875 627.815429688 124.041992188 c 0,13,14
 638.295898438 216.345703125 638.295898438 216.345703125 562.87109375 486.087890625 c 2,15,-1
 554.409179688 516.349609375 l 1,16,-1
 761 665.185525852 l 2,17,18
 786.989257812 683.909179687 786.989257812 683.909179687 795.392918697 644 c 6,19,-1
 801.234375 616.258789062 l 2,20,21
 860.02734375 337.052734375 860.02734375 337.052734375 864.701171875 319.092773438 c 0,22,23
 876.49609375 275.10546875 876.49609375 275.10546875 999.702148438 275.479492188 c 2,24,-1
 1040.60253906 275.479492188 l 2,25,26
 1088.22460938 275 1088.22460938 275 1110.68066406 238.595703125 c 128,-1,27
 1133.13671875 202.19140625 1133.13671875 202.19140625 1133.37597656 153.109375 c 2,28,-1
 1133.37597656 119 l 2,29,30
 1133.37597656 42.322265625 1133.37597656 42.322265625 1088.51171875 13.6083984375 c 0,31,32
 1067.24902344 0 1067.24902344 0 1039.60742188 0 c 2,33,-1
 1004.97851562 0.009765625 l 2,0,1
EndSplineSet
PairPos2: "'kern' Horizontal Kerning lookup 15-1" uni06CA dx=-85 dy=0 dh=-85 dv=0 dx=0 dy=0 dh=0 dv=0
PairPos2: "'kern' Horizontal Kerning lookup 15-1" uniFB90 dx=-307 dy=0 dh=-307 dv=0 dx=0 dy=0 dh=0 dv=0
PairPos2: "'kern' Horizontal Kerning lookup 15-1" uniFB8E dx=-307 dy=0 dh=-307 dv=0 dx=0 dy=0 dh=0 dv=0
PairPos2: "'kern' Horizontal Kerning lookup 15-1" uni06A9 dx=-307 dy=0 dh=-307 dv=0 dx=0 dy=0 dh=0 dv=0
PairPos2: "'kern' Horizontal Kerning lookup 15-1" uni064A dx=-106 dy=0 dh=-106 dv=0 dx=0 dy=0 dh=0 dv=0
PairPos2: "'kern' Horizontal Kerning lookup 15-1" afii57414 dx=-106 dy=0 dh=-106 dv=0 dx=0 dy=0 dh=0 dv=0
PairPos2: "'kern' Horizontal Kerning lookup 15-1" uniFBE8 dx=-212 dy=0 dh=-212 dv=0 dx=0 dy=0 dh=0 dv=0
PairPos2: "'kern' Horizontal Kerning lookup 15-1" uni0649 dx=-85 dy=0 dh=-85 dv=0 dx=0 dy=0 dh=0 dv=0
PairPos2: "'kern' Horizontal Kerning lookup 15-1" uni0648 dx=-85 dy=0 dh=-85 dv=0 dx=0 dy=0 dh=0 dv=0
PairPos2: "'kern' Horizontal Kerning lookup 15-1" afii57412 dx=-85 dy=0 dh=-85 dv=0 dx=0 dy=0 dh=0 dv=0
PairPos2: "'kern' Horizontal Kerning lookup 15-1" uniFEEB dx=-212 dy=0 dh=-212 dv=0 dx=0 dy=0 dh=0 dv=0
PairPos2: "'kern' Horizontal Kerning lookup 15-1" uni0647 dx=-212 dy=0 dh=-212 dv=0 dx=0 dy=0 dh=0 dv=0
PairPos2: "'kern' Horizontal Kerning lookup 15-1" uniFEE7 dx=-212 dy=0 dh=-212 dv=0 dx=0 dy=0 dh=0 dv=0
PairPos2: "'kern' Horizontal Kerning lookup 15-1" uni0646 dx=-159 dy=0 dh=-159 dv=0 dx=0 dy=0 dh=0 dv=0
PairPos2: "'kern' Horizontal Kerning lookup 15-1" uniFEE3 dx=-212 dy=0 dh=-212 dv=0 dx=0 dy=0 dh=0 dv=0
PairPos2: "'kern' Horizontal Kerning lookup 15-1" uni0645 dx=-212 dy=0 dh=-212 dv=0 dx=0 dy=0 dh=0 dv=0
PairPos2: "'kern' Horizontal Kerning lookup 15-1" uniFEFB dx=-212 dy=0 dh=-212 dv=0 dx=0 dy=0 dh=0 dv=0
PairPos2: "'kern' Horizontal Kerning lookup 15-1" uniFEDF dx=-212 dy=0 dh=-212 dv=0 dx=0 dy=0 dh=0 dv=0
PairPos2: "'kern' Horizontal Kerning lookup 15-1" uni0644 dx=-159 dy=0 dh=-159 dv=0 dx=0 dy=0 dh=0 dv=0
PairPos2: "'kern' Horizontal Kerning lookup 15-1" uniFEDB dx=-307 dy=0 dh=-307 dv=0 dx=0 dy=0 dh=0 dv=0
PairPos2: "'kern' Horizontal Kerning lookup 15-1" uni0643 dx=-212 dy=0 dh=-212 dv=0 dx=0 dy=0 dh=0 dv=0
PairPos2: "'kern' Horizontal Kerning lookup 15-1" uniFED7 dx=-212 dy=0 dh=-212 dv=0 dx=0 dy=0 dh=0 dv=0
PairPos2: "'kern' Horizontal Kerning lookup 15-1" uni0642 dx=-159 dy=0 dh=-159 dv=0 dx=0 dy=0 dh=0 dv=0
PairPos2: "'kern' Horizontal Kerning lookup 15-1" uniFED3 dx=-212 dy=0 dh=-212 dv=0 dx=0 dy=0 dh=0 dv=0
PairPos2: "'kern' Horizontal Kerning lookup 15-1" uni0641 dx=-212 dy=0 dh=-212 dv=0 dx=0 dy=0 dh=0 dv=0
PairPos2: "'kern' Horizontal Kerning lookup 15-1" uniFECF dx=-212 dy=0 dh=-212 dv=0 dx=0 dy=0 dh=0 dv=0
PairPos2: "'kern' Horizontal Kerning lookup 15-1" uniFECB dx=-212 dy=0 dh=-212 dv=0 dx=0 dy=0 dh=0 dv=0
PairPos2: "'kern' Horizontal Kerning lookup 15-1" uniFEC7 dx=-212 dy=0 dh=-212 dv=0 dx=0 dy=0 dh=0 dv=0
PairPos2: "'kern' Horizontal Kerning lookup 15-1" uni0638 dx=-212 dy=0 dh=-212 dv=0 dx=0 dy=0 dh=0 dv=0
PairPos2: "'kern' Horizontal Kerning lookup 15-1" uniFEC3 dx=-212 dy=0 dh=-212 dv=0 dx=0 dy=0 dh=0 dv=0
PairPos2: "'kern' Horizontal Kerning lookup 15-1" uni0637 dx=-212 dy=0 dh=-212 dv=0 dx=0 dy=0 dh=0 dv=0
PairPos2: "'kern' Horizontal Kerning lookup 15-1" uniFEBF dx=-212 dy=0 dh=-212 dv=0 dx=0 dy=0 dh=0 dv=0
PairPos2: "'kern' Horizontal Kerning lookup 15-1" uni0636 dx=-212 dy=0 dh=-212 dv=0 dx=0 dy=0 dh=0 dv=0
PairPos2: "'kern' Horizontal Kerning lookup 15-1" uniFEBB dx=-212 dy=0 dh=-212 dv=0 dx=0 dy=0 dh=0 dv=0
PairPos2: "'kern' Horizontal Kerning lookup 15-1" uni0635 dx=-212 dy=0 dh=-212 dv=0 dx=0 dy=0 dh=0 dv=0
PairPos2: "'kern' Horizontal Kerning lookup 15-1" uniFEB7 dx=-212 dy=0 dh=-212 dv=0 dx=0 dy=0 dh=0 dv=0
PairPos2: "'kern' Horizontal Kerning lookup 15-1" uni0634 dx=-212 dy=0 dh=-212 dv=0 dx=0 dy=0 dh=0 dv=0
PairPos2: "'kern' Horizontal Kerning lookup 15-1" uniFEB3 dx=-212 dy=0 dh=-212 dv=0 dx=0 dy=0 dh=0 dv=0
PairPos2: "'kern' Horizontal Kerning lookup 15-1" uni0633 dx=-212 dy=0 dh=-212 dv=0 dx=0 dy=0 dh=0 dv=0
PairPos2: "'kern' Horizontal Kerning lookup 15-1" uni0632 dx=-85 dy=0 dh=-85 dv=0 dx=0 dy=0 dh=0 dv=0
PairPos2: "'kern' Horizontal Kerning lookup 15-1" uni0631 dx=-85 dy=0 dh=-85 dv=0 dx=0 dy=0 dh=0 dv=0
PairPos2: "'kern' Horizontal Kerning lookup 15-1" uni0630 dx=-212 dy=0 dh=-212 dv=0 dx=0 dy=0 dh=0 dv=0
PairPos2: "'kern' Horizontal Kerning lookup 15-1" uni062F dx=-212 dy=0 dh=-212 dv=0 dx=0 dy=0 dh=0 dv=0
PairPos2: "'kern' Horizontal Kerning lookup 15-1" uniFEA7 dx=-212 dy=0 dh=-212 dv=0 dx=0 dy=0 dh=0 dv=0
PairPos2: "'kern' Horizontal Kerning lookup 15-1" uniFEA3 dx=-212 dy=0 dh=-212 dv=0 dx=0 dy=0 dh=0 dv=0
PairPos2: "'kern' Horizontal Kerning lookup 15-1" uniFE9F dx=-212 dy=0 dh=-212 dv=0 dx=0 dy=0 dh=0 dv=0
PairPos2: "'kern' Horizontal Kerning lookup 15-1" uniFE9B dx=-212 dy=0 dh=-212 dv=0 dx=0 dy=0 dh=0 dv=0
PairPos2: "'kern' Horizontal Kerning lookup 15-1" uni062B dx=-212 dy=0 dh=-212 dv=0 dx=0 dy=0 dh=0 dv=0
PairPos2: "'kern' Horizontal Kerning lookup 15-1" uniFE97 dx=-212 dy=0 dh=-212 dv=0 dx=0 dy=0 dh=0 dv=0
PairPos2: "'kern' Horizontal Kerning lookup 15-1" uni062A dx=-212 dy=0 dh=-212 dv=0 dx=0 dy=0 dh=0 dv=0
PairPos2: "'kern' Horizontal Kerning lookup 15-1" uni0629 dx=-212 dy=0 dh=-212 dv=0 dx=0 dy=0 dh=0 dv=0
PairPos2: "'kern' Horizontal Kerning lookup 15-1" uniFE91 dx=-212 dy=0 dh=-212 dv=0 dx=0 dy=0 dh=0 dv=0
PairPos2: "'kern' Horizontal Kerning lookup 15-1" uni0628 dx=-212 dy=0 dh=-212 dv=0 dx=0 dy=0 dh=0 dv=0
PairPos2: "'kern' Horizontal Kerning lookup 15-1" uni0627 dx=-212 dy=0 dh=-212 dv=0 dx=0 dy=0 dh=0 dv=0
PairPos2: "'kern' Horizontal Kerning lookup 15-1" uni0623 dx=-212 dy=0 dh=-212 dv=0 dx=0 dy=0 dh=0 dv=0
PairPos2: "'kern' Horizontal Kerning lookup 15-1" uni0622 dx=-212 dy=0 dh=-212 dv=0 dx=0 dy=0 dh=0 dv=0
PairPos2: "'kern' Horizontal Kerning lookup 15-1" uni0621 dx=-212 dy=0 dh=-212 dv=0 dx=0 dy=0 dh=0 dv=0
PairPos2: "'kern' Horizontal Kerning lookup 15-1" uniFB94 dx=-307 dy=0 dh=-307 dv=0 dx=0 dy=0 dh=0 dv=0
PairPos2: "'kern' Horizontal Kerning lookup 15-1" uniFB92 dx=-307 dy=0 dh=-307 dv=0 dx=0 dy=0 dh=0 dv=0
PairPos2: "'kern' Horizontal Kerning lookup 15-1" afii57509 dx=-307 dy=0 dh=-307 dv=0 dx=0 dy=0 dh=0 dv=0
PairPos2: "'kern' Horizontal Kerning lookup 15-1" afii57508 dx=-85 dy=0 dh=-85 dv=0 dx=0 dy=0 dh=0 dv=0
PairPos2: "'kern' Horizontal Kerning lookup 15-1" uniFB7C dx=-159 dy=0 dh=-159 dv=0 dx=0 dy=0 dh=0 dv=0
PairPos2: "'kern' Horizontal Kerning lookup 15-1" afii57506 dx=-212 dy=0 dh=-212 dv=0 dx=0 dy=0 dh=0 dv=0
PairPos2: "'kern' Horizontal Kerning lookup 15-1" afii57440 dx=-212 dy=0 dh=-212 dv=0 dx=0 dy=0 dh=0 dv=0
PairPos2: "'kern' Horizontal Kerning lookup 15-1" uniFE8B dx=-212 dy=0 dh=-212 dv=0 dx=0 dy=0 dh=0 dv=0
EndChar

StartChar: uniFEB2
Encoding: 65202 65202 188
Width: 2590
VWidth: 2356
GlyphClass: 2
Flags: W
AnchorPoint: "Anchor-10" 665.24 982.57 basechar 0
AnchorPoint: "Anchor-7" 490.34 -695.41 basechar 0
LayerCount: 2
Fore
SplineSet
713.868164062 -517.5859375 m 28,0,1
 1007 -515 1007 -515 1172 -376 c 128,-1,2
 1337 -237 1337 -237 1363.26269531 30.2763671875 c 1,3,4
 1427 -1 1427 -1 1505.06152344 0.0029296875 c 0,5,6
 1642 2 1642 2 1734.60546875 113.78515625 c 1,7,8
 1829 3 1829 3 2024.40332031 2.646484375 c 0,9,10
 2170 2 2170 2 2265.2421875 113.219726562 c 1,11,12
 2365.70430279 2.32640013103 2365.70430279 2.32640013103 2543.6171875 0.5322265625 c 2,13,-1
 2596.39355469 0 l 2,14,15
 2609 -0 2609 -0 2622.06738281 3.2880859375 c 0,16,17
 2689 21 2689 21 2690.37597656 119 c 1,18,-1
 2690.37597656 153.109375 l 2,19,20
 2690 194 2690 194 2669.36539299 234.87203186 c 0,21,22
 2647.74525272 275.478460233 2647.74525272 275.478460233 2597.60253906 275.479492188 c 2,23,-1
 2550.15136719 275.48046875 l 2,24,25
 2472 275 2472 275 2434.75612613 311.241043585 c 0,26,27
 2398.48558751 346.527586161 2398.48558751 346.527586161 2391.30859375 431.40234375 c 2,28,-1
 2366.80078125 721.23046875 l 1,29,-1
 2160.44042969 721.23046875 l 1,30,-1
 2141.22070312 431.752929688 l 2,31,32
 2133 315 2133 315 2082.02734375 286.275390625 c 0,33,34
 2057 272 2057 272 2002.70263672 272.291015625 c 0,35,36
 1884.71603216 271.9992979 1884.71603216 271.9992979 1864.75976562 422.643554688 c 2,37,-1
 1834.14160156 653.771484375 l 1,38,-1
 1635.86914062 653.771484375 l 1,39,-1
 1613.34472656 422.864257812 l 2,40,41
 1605 338 1605 338 1577.03749501 305.043858098 c 128,-1,42
 1549 272 1549 272 1496.8671875 272.321289062 c 0,43,44
 1391 273 1391 273 1344.34082031 372.291992188 c 0,45,46
 1278.97734275 514.397418581 1278.97734275 514.397418581 1246.36816406 609.831054688 c 2,47,-1
 1233.32603333 648 l 2,48,49
 1223.83288615 676.501733975 1223.83288615 676.501733975 1203 656.667269316 c 2,50,-1
 996.609375 460.16796875 l 1,51,-1
 1021.66894531 428.018554688 l 2,52,53
 1151 262 1151 262 1125.29980469 54.1552734375 c 0,54,55
 1105 -104 1105 -104 1007.5 -179.5 c 128,-1,56
 910 -255 910 -255 726.896484375 -254.265625 c 4,57,58
 542 -254 542 -254 448.404296875 -186.348632812 c 4,59,60
 332 -102 332 -102 332.013671875 80.251953125 c 4,61,62
 331.999988512 220.117422119 331.999988512 220.117422119 408.880859375 407.16015625 c 6,63,-1
 427.034179688 451.325195312 l 5,64,-1
 184.215820312 534.682617188 l 5,65,-1
 167.435546875 497.110351562 l 6,66,67
 103 353 103 353 81.478515625 204.348632812 c 4,68,69
 48 -24 48 -24 119.495117188 -188.759765625 c 4,70,71
 265 -522 265 -522 713.868164062 -517.5859375 c 28,0,1
EndSplineSet
EndChar

StartChar: uniFEB3
Encoding: 65203 65203 189
Width: 1647
VWidth: 2356
GlyphClass: 2
Flags: W
AnchorPoint: "Anchor-10" 684.23 1058.89 basechar 0
AnchorPoint: "Anchor-7" 705.43 -153.22 basechar 0
LayerCount: 2
Fore
SplineSet
-3.8466796875 275.479492188 m 2,0,-1
 83.4365234375 275.477539062 l 2,1,2
 148.349923211 275.025422489 148.349923211 275.025422489 188.658203125 291.505859375 c 0,3,4
 229 308 229 308 249.53125 340.068359375 c 0,5,6
 269.728604499 371.576617839 269.728604499 371.576617839 274.70703125 425.059570312 c 2,7,-1
 295.947265625 653.2421875 l 1,8,-1
 494.78125 653.2421875 l 1,9,-1
 524.783203125 427.02734375 l 2,10,11
 536 343 536 343 573.171875 307.58203125 c 0,12,13
 610 272 610 272 682.916015625 271.791992188 c 0,14,15
 741 271 741 271 771.736328125 305.049804688 c 0,16,17
 802.049256581 339.055256697 802.049256581 339.055256697 810.168945312 422.293945312 c 2,18,-1
 832.697265625 653.2421875 l 1,19,-1
 1030.86035156 653.2421875 l 1,20,-1
 1062.06542969 422.586914062 l 2,21,22
 1074 337 1074 337 1106.69140625 302.02734375 c 0,23,24
 1140 267 1140 267 1200.14648438 267.94140625 c 0,25,26
 1241 268 1241 268 1263.74414062 279.990234375 c 0,27,28
 1286 292 1286 292 1298.09375 314.657226562 c 0,29,30
 1326 368 1326 368 1311.03125 491.364257812 c 0,31,32
 1309 509 1309 509 1303.88183594 540.966796875 c 0,33,34
 1299 573 1299 573 1290.71289062 619.875976562 c 0,35,36
 1287 640 1287 640 1271.75097656 726.494140625 c 2,37,-1
 1264.6953125 765.340820312 l 1,38,-1
 1500.96289062 841.056640625 l 1,39,-1
 1515.58984375 800.010742188 l 2,40,41
 1561 672 1561 672 1570.51367188 534.048828125 c 0,42,43
 1573 497 1573 497 1573.13476562 463.4453125 c 0,44,45
 1574 354 1574 354 1550.93164062 269.008789062 c 128,-1,46
 1528 184 1528 184 1482.05273438 123.990234375 c 128,-1,47
 1436 64 1436 64 1365.62890625 32.7705078125 c 0,48,49
 1295 1 1295 1 1202.86035156 0.53125 c 0,50,51
 1113 -0 1113 -0 1043.86523438 26.8583984375 c 0,52,53
 974 54 974 54 930.330078125 109.033203125 c 1,54,55
 839 0 839 0 678.504882812 0.22265625 c 0,56,57
 493 1 493 1 386.825195312 115.681640625 c 5,58,59
 269 0 269 0 80.779296875 0 c 2,60,-1
 -4 0 l 2,61,62
 -32 0 -32 0 -53.103515625 14.1201171875 c 0,63,64
 -96.6240234375 42.7526417156 -96.6240234375 42.7526417156 -96.6240234375 119 c 2,65,-1
 -96.6240234375 152.890625 l 2,66,67
 -97 204 -97 204 -74.5009765625 238.590820312 c 0,68,69
 -52 275 -52 275 -3.8466796875 275.479492188 c 2,0,-1
EndSplineSet
EndChar

StartChar: uniFEB4
Encoding: 65204 65204 190
Width: 1786
VWidth: 2351
GlyphClass: 2
Flags: W
AnchorPoint: "Anchor-10" 705.43 1053.59 basechar 0
AnchorPoint: "Anchor-7" 804.01 -174.42 basechar 0
LayerCount: 2
Fore
SplineSet
-3.8466796875 275.479492188 m 2,0,-1
 83.4365234375 275.477539062 l 2,1,2
 151 275 151 275 188.658203125 291.505859375 c 0,3,4
 229 308 229 308 249.53125 340.068359375 c 0,5,6
 269.728604499 371.576617839 269.728604499 371.576617839 274.70703125 425.059570312 c 2,7,-1
 295.947265625 653.2421875 l 1,8,-1
 494.78125 653.2421875 l 1,9,-1
 524.783203125 427.02734375 l 2,10,11
 536 343 536 343 573.171875 307.58203125 c 0,12,13
 610 272 610 272 682.916015625 271.791992188 c 0,14,15
 741 271 741 271 771.736328125 305.049804688 c 0,16,17
 802.049256581 339.055256697 802.049256581 339.055256697 810.168945312 422.293945312 c 2,18,-1
 832.697265625 653.2421875 l 1,19,-1
 1030.96972656 653.2421875 l 1,20,-1
 1061.58886719 422.104492188 l 2,21,22
 1069 367 1069 367 1087.50390625 334.373046875 c 0,23,24
 1106 301 1106 301 1137.24316406 286.663085938 c 0,25,26
 1168 272 1168 272 1215.97753906 271.904296875 c 0,27,28
 1254 272 1254 272 1278.74707031 285.560546875 c 0,29,30
 1303 299 1303 299 1318.66015625 335.044921875 c 0,31,32
 1334.05957546 371.139639003 1334.05957546 371.139639003 1338.05078125 431.252929688 c 2,33,-1
 1357.26855469 720.700195312 l 1,34,-1
 1563.62890625 720.700195312 l 1,35,-1
 1588.1328125 430.924804688 l 2,36,37
 1595 350 1595 350 1632.46386719 313.803710938 c 0,38,39
 1669.97159657 278.027092512 1669.97159657 278.027092512 1747.96289062 276.422851562 c 2,40,-1
 1794.53710938 275.46484375 l 2,41,42
 1807 275 1807 275 1818.57910156 271.7578125 c 0,43,44
 1830 268 1830 268 1840.52441406 261.850585938 c 0,45,46
 1886.37597656 232.761473243 1886.37597656 232.761473243 1886.37597656 153 c 2,47,-1
 1886.37597656 118.885742188 l 2,48,49
 1886 43 1886 43 1841.8125 13.904296875 c 0,50,51
 1836 10 1836 10 1830.08300781 7.5791015625 c 128,-1,52
 1824 5 1824 5 1817.65625 3.236328125 c 0,53,54
 1811 2 1811 2 1805.16113281 0.796875 c 0,55,56
 1799 0 1799 0 1792.62011719 0 c 2,57,-1
 1740.89941406 0 l 2,58,59
 1554 0 1554 0 1461.40527344 103.399414062 c 1,60,61
 1374 2 1374 2 1221.3515625 2.1171875 c 0,62,63
 1022 2 1022 2 931.096679688 109.567382812 c 5,64,65
 884 57 884 57 820.315429687 28.8422851562 c 0,66,67
 757 1 757 1 681.682617188 1.2822265625 c 0,68,69
 487 2 487 2 386.873046875 110.728515625 c 1,70,71
 274 0 274 0 80.779296875 0 c 2,72,-1
 -4 0 l 2,73,74
 -32 0 -32 0 -53.103515625 14.1201171875 c 0,75,76
 -96.6240234375 42.7526417156 -96.6240234375 42.7526417156 -96.6240234375 119 c 2,77,-1
 -96.6240234375 152.890625 l 2,78,79
 -97 203 -97 203 -74.5009765625 238.590820312 c 0,80,81
 -52 275 -52 275 -3.8466796875 275.479492188 c 2,0,-1
EndSplineSet
EndChar

StartChar: uniFEBA
Encoding: 65210 65210 196
Width: 2654
VWidth: 2356
GlyphClass: 2
Flags: W
AnchorPoint: "Anchor-10" 693.86 1088.57 basechar 0
AnchorPoint: "Anchor-7" 468.08 -665.73 basechar 0
LayerCount: 2
Fore
SplineSet
2660.69433594 0 m 2,0,-1
 2605.37988281 -0.181640625 l 2,1,2
 2415.55175781 -0.9775390625 2415.55175781 -0.9775390625 2301.66015625 119.021484375 c 1,3,4
 2125.59277344 -1.8505859375 2125.59277344 -1.8505859375 1751.58496094 -0.7109375 c 2,5,-1
 1518.4609375 0 l 2,6,7
 1431.77441406 0 1431.77441406 0 1369.23925781 38.841796875 c 1,8,9
 1344.79394531 -233.74609375 1344.79394531 -233.74609375 1180.23632812 -374.779296875 c 128,-1,10
 1015.67871094 -515.813476562 1015.67871094 -515.813476562 724.099609375 -517.543945312 c 0,11,12
 261.583007812 -520.16796875 261.583007812 -520.16796875 117.305664062 -188.73828125 c 0,13,14
 45.603515625 -24.171875 45.603515625 -24.171875 79.3017578125 204.3671875 c 0,15,16
 101.385742188 353.677734375 101.385742188 353.677734375 165.236328125 497.065429688 c 2,17,-1
 181.994140625 534.697265625 l 1,18,-1
 424.818359375 451.337890625 l 1,19,-1
 406.71484375 407.193359375 l 2,20,21
 329.990234375 220.10546875 329.990234375 220.10546875 329.833984375 80.357421875 c 0,22,23
 331.005859375 -153.783203125 331.005859375 -153.783203125 517.643554688 -223.365234375 c 0,24,25
 600.734375 -254.342773438 600.734375 -254.342773438 725.241210938 -254.5 c 0,26,27
 915.151367188 -255.202148438 915.151367188 -255.202148438 1012.86132812 -179.626953125 c 128,-1,28
 1110.57226562 -104.052734375 1110.57226562 -104.052734375 1130.61035156 54.2421875 c 0,29,30
 1156.99316406 262.03515625 1156.99316406 262.03515625 1027.03613281 427.93359375 c 2,31,-1
 1001.83886719 460.099609375 l 1,32,-1
 1208 656.381690591 l 2,33,34
 1225.33984375 672.890625 1225.33984375 672.890625 1235.35698046 649 c 6,35,-1
 1250.58496094 612.681640625 l 2,36,37
 1311.60839844 467.14453125 1311.60839844 467.14453125 1336.71972656 404.495117188 c 128,-1,38
 1361.83007812 341.844726562 1361.83007812 341.844726562 1374.77539062 327.033203125 c 1,39,40
 1742.85351562 848.032226562 1742.85351562 848.032226562 2092.11816406 847.188476562 c 0,41,42
 2262.75976562 846.977539062 2262.75976562 846.977539062 2369.76269531 747.115234375 c 0,43,44
 2540.77539062 589.192382812 2540.77539062 589.192382812 2468.54199219 342.34375 c 1,45,46
 2531.62890625 274.365234375 2531.62890625 274.365234375 2627.5 275.189453125 c 2,47,-1
 2660.93652344 275.477539062 l 2,48,49
 2688.38769531 275.776367188 2688.38769531 275.776367188 2709.66503906 261.934570312 c 0,50,51
 2754.37597656 232.852539062 2754.37597656 232.852539062 2754.37597656 153 c 2,52,-1
 2754.37597656 118.885742188 l 2,53,54
 2754.13085938 70.5908203125 2754.13085938 70.5908203125 2731.12109375 35.2958984375 c 128,-1,55
 2708.11230469 0 2708.11230469 0 2660.69433594 0 c 2,0,-1
1647.60742188 276.91796875 m 1,56,-1
 1734.9921875 276.91796875 l 2,57,58
 2165.11230469 276.903320312 2165.11230469 276.903320312 2211.48730469 407.153320312 c 0,59,60
 2221.00976562 433.895507812 2221.00976562 433.895507812 2217.89648438 470.877929688 c 128,-1,61
 2214.78222656 507.860351562 2214.78222656 507.860351562 2195.88867188 530.986328125 c 0,62,63
 2159.98242188 577.939453125 2159.98242188 577.939453125 2086.81445312 577.580078125 c 0,64,65
 1975.95996094 577.98828125 1975.95996094 577.98828125 1869.47265625 495.208984375 c 128,-1,66
 1762.984375 412.428710938 1762.984375 412.428710938 1647.60742188 276.91796875 c 1,56,-1
EndSplineSet
EndChar

StartChar: uniFEBB
Encoding: 65211 65211 197
Width: 1745
VWidth: 2356
GlyphClass: 2
Flags: W
AnchorPoint: "Anchor-10" 584.378 1182.17 basechar 0
AnchorPoint: "Anchor-7" 710.518 -220 basechar 0
LayerCount: 2
Fore
SplineSet
-3.8466796875 275.479492188 m 2,0,-1
 48.556640625 275.478515625 l 2,1,2
 153 275 153 275 196.276367188 308.915039062 c 0,3,4
 239.765635547 342.817300103 239.765635547 342.817300103 241.438476562 415.420898438 c 2,5,-1
 247.409179688 674.557617188 l 1,6,-1
 488.41796875 716.206054688 l 1,7,-1
 497.094726562 414.51171875 l 2,8,9
 499 343 499 343 554.986328125 322.206054688 c 1,10,11
 923 848 923 848 1276.22167969 847.900390625 c 0,12,13
 1447 848 1447 848 1553.95019531 747.83203125 c 0,14,15
 1668 643 1668 643 1669.65039062 469.056640625 c 0,16,17
 1671 253 1671 253 1494.73126396 125.95092653 c 0,18,19
 1317.77059738 -1.1647862085 1317.77059738 -1.1647862085 935.778320312 0 c 2,20,-1
 702.625976562 0.7109375 l 2,21,22
 475 1 475 1 367.405273438 125.201171875 c 5,23,24
 251 0 251 0 67.830078125 0 c 2,25,-1
 -4 0 l 2,26,27
 -32 0 -32 0 -53.103515625 14.1201171875 c 0,28,29
 -96.6240234375 42.7526417156 -96.6240234375 42.7526417156 -96.6240234375 119 c 2,30,-1
 -96.6240234375 152.890625 l 2,31,32
 -97 203 -97 203 -74.5009765625 238.590820312 c 0,33,34
 -52 275 -52 275 -3.8466796875 275.479492188 c 2,0,-1
831.80078125 277.62890625 m 1,35,-1
 919.185546875 277.62890625 l 2,36,37
 1349.30559326 277.614520483 1349.30559326 277.614520483 1395.68066406 407.864257812 c 0,38,39
 1405.203125 434.606445312 1405.203125 434.606445312 1402.08935547 471.588867188 c 128,-1,40
 1398.97558594 508.571289062 1398.97558594 508.571289062 1380.27636719 532.233398438 c 0,41,42
 1343.59734761 578.647261206 1343.59734761 578.647261206 1271.0078125 578.291015625 c 0,43,44
 1160.15722656 578.702148438 1160.15722656 578.702148438 1053.66748047 495.921386719 c 128,-1,45
 947.177734375 413.140625 947.177734375 413.140625 831.80078125 277.62890625 c 1,35,-1
EndSplineSet
EndChar

StartChar: uniFEBC
Encoding: 65212 65212 198
Width: 1839
VWidth: 2356
GlyphClass: 2
Flags: W
AnchorPoint: "Anchor-10" 618.51 1250.75 basechar 0
AnchorPoint: "Anchor-7" 709.67 -227.42 basechar 0
LayerCount: 2
Fore
SplineSet
-3.8466796875 275.479492188 m 2,0,-1
 48.556640625 275.478515625 l 2,1,2
 153 275 153 275 196.276367188 308.915039062 c 0,3,4
 239.765635547 342.817300103 239.765635547 342.817300103 241.438476562 415.420898438 c 2,5,-1
 247.409179688 674.557617188 l 1,6,-1
 488.41796875 716.206054688 l 1,7,-1
 497.094726562 414.51171875 l 2,8,9
 499 343 499 343 555.024414062 322.19140625 c 1,10,11
 924 848 924 848 1276.22167969 847.900390625 c 0,12,13
 1447 848 1447 848 1557.828125 744.900878906 c 0,14,15
 1669 642 1669 642 1669.65136719 468.873046875 c 0,16,17
 1670 403 1670 403 1652.73242188 343.323242188 c 1,18,19
 1715.26676457 276.715860302 1715.26676457 276.715860302 1801.90429688 275.900390625 c 2,20,-1
 1846.82910156 275.477539062 l 2,21,22
 1873 275 1873 275 1894.09375 261.892578125 c 0,23,24
 1939.37597656 232.758097545 1939.37597656 232.758097545 1939.37597656 153 c 2,25,-1
 1939.37597656 118.885742188 l 2,26,27
 1939 43 1939 43 1895.5625 14.205078125 c 0,28,29
 1873.59599213 -0.266154820765 1873.59599213 -0.266154820765 1845.1953125 0.001953125 c 2,30,-1
 1789.0234375 0.5322265625 l 2,31,32
 1599 2 1599 2 1486.07617188 119.958984375 c 1,33,34
 1304.8124646 -1.12527374908 1304.8124646 -1.12527374908 935.778320312 0 c 2,35,-1
 702.625976562 0.7109375 l 2,36,37
 475 1 475 1 367.534179688 125.33984375 c 5,38,39
 250 0 250 0 67.830078125 -0 c 2,40,-1
 -4 0 l 2,41,42
 -32 0 -32 0 -53.103515625 14.1201171875 c 0,43,44
 -96.6240234375 42.7526417156 -96.6240234375 42.7526417156 -96.6240234375 119 c 2,45,-1
 -96.6240234375 152.890625 l 2,46,47
 -97 203 -97 203 -74.5009765625 238.590820312 c 0,48,49
 -52 275 -52 275 -3.8466796875 275.479492188 c 2,0,-1
831.80078125 277.62890625 m 1,50,-1
 919.185546875 277.62890625 l 2,51,52
 1349.30559326 277.614520483 1349.30559326 277.614520483 1395.68066406 407.864257812 c 0,53,54
 1405.203125 434.606445312 1405.203125 434.606445312 1402.08935547 471.588867188 c 128,-1,55
 1398.97558594 508.571289062 1398.97558594 508.571289062 1380.27636719 532.233398438 c 0,56,57
 1343.59734761 578.647261206 1343.59734761 578.647261206 1271.0078125 578.291015625 c 0,58,59
 1160.15722656 578.702148438 1160.15722656 578.702148438 1053.66748047 495.921386719 c 128,-1,60
 947.177734375 413.140625 947.177734375 413.140625 831.80078125 277.62890625 c 1,50,-1
EndSplineSet
EndChar

StartChar: uniFEC2
Encoding: 65218 65218 204
Width: 1690
VWidth: 2356
GlyphClass: 2
Flags: W
AnchorPoint: "Anchor-7" 727.918 -190.32 basechar 0
AnchorPoint: "Anchor-10" 351.13 1617.42 basechar 0
LayerCount: 2
Fore
SplineSet
1332.38476562 118.454101562 m 1,0,1
 1181 0 1181 0 783.905273438 0 c 2,2,-1
 77.2548828125 0 l 1,3,-1
 77.2548828125 275.4765625 l 1,4,-1
 242.990234375 275.478515625 l 1,5,-1
 210.533203125 1455.93457031 l 5,6,-1
 476.154296875 1561.25878906 l 5,7,-1
 476.0546875 433.53125 l 1,8,9
 811 848 811 848 1124.21191406 847.900390625 c 0,10,11
 1292 848 1292 848 1404 745.5 c 128,-1,12
 1516 643 1516 643 1517.64257812 468.86328125 c 0,13,14
 1518 404 1518 404 1498.33007812 342.510742188 c 1,15,16
 1560.36299429 276.614398326 1560.36299429 276.614398326 1646.67382812 275.900390625 c 2,17,-1
 1697.7890625 275.477539062 l 2,18,19
 1730 275 1730 275 1753.5078125 254.568359375 c 0,20,21
 1790.37597656 222.674753311 1790.37597656 222.674753311 1790.37597656 153.109375 c 2,22,-1
 1790.37597656 119 l 2,23,24
 1790 42 1790 42 1745.51171875 13.6083984375 c 0,25,26
 1723.63439509 -0.231283113829 1723.63439509 -0.231283113829 1696.42871094 0 c 2,27,-1
 1633.82324219 0.5322265625 l 2,28,29
 1446 2 1446 2 1332.38476562 118.454101562 c 1,0,1
679.791992188 277.62890625 m 1,30,-1
 767.17578125 277.62890625 l 2,31,32
 1029.95996094 277.620117188 1029.95996094 277.620117188 1140.61816406 320.431640625 c 0,33,34
 1183.66210938 337.42578125 1183.66210938 337.42578125 1208.90527344 359.2734375 c 128,-1,35
 1234.14941406 381.122070312 1234.14941406 381.122070312 1243.67089844 407.864257812 c 128,-1,36
 1253.19335938 434.606445312 1253.19335938 434.606445312 1250.19921875 470.099609375 c 0,37,38
 1246.96484375 508.571289062 1246.96484375 508.571289062 1228.07226562 531.697265625 c 0,39,40
 1192.16601562 578.650390625 1192.16601562 578.650390625 1118.99804688 578.291015625 c 0,41,42
 1064.43554688 578.493164062 1064.43554688 578.493164062 1005.81738281 554.893554688 c 128,-1,43
 947.200195312 531.29296875 947.200195312 531.29296875 883.69140625 481.890625 c 0,44,45
 795.16796875 413.140625 795.16796875 413.140625 679.791992188 277.62890625 c 1,30,-1
EndSplineSet
EndChar

StartChar: uniFEC3
Encoding: 65219 65219 205
Width: 1497
VWidth: 2356
GlyphClass: 2
Flags: W
AnchorPoint: "Anchor-10" 226.384 1622.38 basechar 0
AnchorPoint: "Anchor-7" 576.185 -204.1 basechar 0
LayerCount: 2
Fore
SplineSet
-3.8466796875 275.479492188 m 2,0,-1
 143.790039062 275.479492188 l 1,1,-1
 111.333007812 1455.93457031 l 5,2,-1
 376.956054688 1561.25878906 l 5,3,-1
 376.854492188 433.7265625 l 1,4,5
 711 848 711 848 1025.01171875 847.900390625 c 0,6,7
 1193 848 1193 848 1305.27171809 745.031582056 c 0,8,9
 1418 642 1418 642 1418.44042969 469.048828125 c 0,10,11
 1420 251 1420 251 1241.78470129 125.526318187 c 0,12,13
 1064 0 1064 0 684.705078125 0 c 2,14,-1
 -4 0 l 2,15,16
 -32 0 -32 0 -53.103515625 14.1201171875 c 0,17,18
 -96.6240234375 42.7526417156 -96.6240234375 42.7526417156 -96.6240234375 119 c 2,19,-1
 -96.6240234375 152.890625 l 2,20,21
 -97 205 -97 205 -74.5 239 c 0,22,23
 -52 275 -52 275 -3.8466796875 275.479492188 c 2,0,-1
580.591796875 277.62890625 m 1,24,-1
 667.975585938 277.62890625 l 2,25,26
 1058.55626378 277.615842914 1058.55626378 277.615842914 1130.96191406 382.206054688 c 0,27,28
 1155.43202015 417.553207397 1155.43202015 417.553207397 1151.59931086 463.06224823 c 0,29,30
 1145.52767106 535.15602892 1145.52767106 535.15602892 1092.73535156 563.34375 c 0,31,32
 1064.33682456 578.506746545 1064.33682456 578.506746545 1019.79785156 578.291015625 c 0,33,34
 908.947265625 578.702148438 908.947265625 578.702148438 802.457519531 495.921386719 c 128,-1,35
 695.967773438 413.140625 695.967773438 413.140625 580.591796875 277.62890625 c 1,24,-1
EndSplineSet
EndChar

StartChar: uniFEC4
Encoding: 65220 65220 206
Width: 1600
VWidth: 2356
GlyphClass: 2
Flags: W
AnchorPoint: "Anchor-10" 247.267 1591.06 basechar 0
AnchorPoint: "Anchor-7" 627.233 -174.42 basechar 0
LayerCount: 2
Fore
SplineSet
1233.22265625 118.452148438 m 1,0,1
 1082 0 1082 0 684.705078125 0 c 2,2,-1
 -4 0 l 2,3,4
 -32 0 -32 0 -53.103515625 14.1201171875 c 0,5,6
 -96.6240234375 42.7526417156 -96.6240234375 42.7526417156 -96.6240234375 119 c 2,7,-1
 -96.6240234375 152.890625 l 2,8,9
 -97 203 -97 203 -74.501953125 238.590820312 c 0,10,11
 -51.7036596037 275.479492188 -51.7036596037 275.479492188 -3.8466796875 275.479492188 c 2,12,-1
 143.790039062 275.479492188 l 1,13,-1
 111.333007812 1455.93457031 l 1,14,-1
 376.956054688 1561.25878906 l 5,15,-1
 376.854492188 433.7265625 l 1,16,17
 711 848 711 848 1025.01171875 847.900390625 c 0,18,19
 1193 848 1193 848 1305.19744978 745.922778588 c 0,20,21
 1417 644 1417 644 1418.44140625 468.895507812 c 0,22,23
 1419 402 1419 402 1399.18261719 342.489257812 c 1,24,25
 1459.43942168 276.518912428 1459.43942168 276.518912428 1547.39550781 275.901367188 c 2,26,-1
 1607.76074219 275.477539062 l 1,27,28
 1700.37597656 267.969520793 1700.37597656 267.969520793 1700.37597656 153 c 2,29,-1
 1700.37597656 118.885742188 l 2,30,31
 1700 44 1700 44 1656.59179688 14.2666015625 c 0,32,33
 1634.68328758 -0.209265116813 1634.68328758 -0.209265116813 1606.28710938 0.0009765625 c 2,34,-1
 1534.66601562 0.53125 l 2,35,36
 1347 2 1347 2 1233.22265625 118.452148438 c 1,0,1
580.591796875 277.62890625 m 1,37,-1
 667.975585938 277.62890625 l 2,38,39
 1058.55626378 277.615842914 1058.55626378 277.615842914 1130.96191406 382.206054688 c 0,40,41
 1155.43202015 417.553207397 1155.43202015 417.553207397 1151.59931086 463.06224823 c 0,42,43
 1145.52767106 535.15602892 1145.52767106 535.15602892 1092.73535156 563.34375 c 0,44,45
 1064.33682456 578.506746545 1064.33682456 578.506746545 1019.79785156 578.291015625 c 0,46,47
 908.947265625 578.702148438 908.947265625 578.702148438 802.457519531 495.921386719 c 128,-1,48
 695.967773438 413.140625 695.967773438 413.140625 580.591796875 277.62890625 c 1,37,-1
EndSplineSet
EndChar

StartChar: uniFECA
Encoding: 65226 65226 212
Width: 1293
VWidth: 2356
GlyphClass: 2
Flags: W
AnchorPoint: "Anchor-10" 544.4 1249.21 basechar 0
AnchorPoint: "Anchor-7" 400.972 -763.398 basechar 0
LayerCount: 2
Fore
SplineSet
1300.78320312 275.477539062 m 2,0,1
 1333.23632812 275.151367188 1333.23632812 275.151367188 1354.97851562 255.578125 c 0,2,3
 1393.04394531 221.311523438 1393.04394531 221.311523438 1393.37597656 153.109375 c 2,4,-1
 1393.37597656 119 l 2,5,6
 1393.37597656 42.322265625 1393.37597656 42.322265625 1348.51171875 13.6083984375 c 0,7,8
 1327.24902344 0 1327.24902344 0 1299.3984375 0 c 2,9,-1
 1245.28027344 0.5322265625 l 2,10,11
 878.66796875 4.1396484375 878.66796875 4.1396484375 614.178710938 251.244140625 c 1,12,13
 339.258789062 94.693359375 339.258789062 94.693359375 335.075195312 -96.04296875 c 0,14,15
 332.436523438 -226.811523438 332.436523438 -226.811523438 433.173828125 -307.923828125 c 128,-1,16
 533.911132812 -389.037109375 533.911132812 -389.037109375 801.819335938 -389.671875 c 0,17,18
 971.779296875 -389.98828125 971.779296875 -389.98828125 1113.04492188 -349.897460938 c 2,19,-1
 1153.89746094 -338.302734375 l 1,20,-1
 1237.18945312 -577.979492188 l 1,21,-1
 1192.48730469 -591.635742188 l 2,22,23
 1004.70507812 -649.004882812 1004.70507812 -649.004882812 803.899414062 -648.865234375 c 0,24,25
 371.23046875 -649.006835938 371.23046875 -649.006835938 197.673828125 -445.350585938 c 0,26,27
 75.958984375 -303.624023438 75.958984375 -303.624023438 76.4599609375 -98.244140625 c 0,28,29
 76.998046875 182.086914062 76.998046875 182.086914062 404.686523438 401.163085938 c 1,30,31
 345.780273438 440.000976562 345.780273438 440.000976562 265.100585938 507.865234375 c 0,32,33
 148.560546875 606.32421875 148.560546875 606.32421875 156.98828125 730.484375 c 0,34,35
 176.102539062 996.845703125 176.102539062 996.845703125 647.059570312 998.586914062 c 0,36,37
 1084.16503906 1000.13867188 1084.16503906 1000.13867188 1121.07910156 734.23828125 c 0,38,39
 1148.27441406 544.307617188 1148.27441406 544.307617188 858.857421875 382.3984375 c 1,40,41
 1026.32421875 277.58203125 1026.32421875 277.58203125 1248.07128906 275.901367188 c 2,42,-1
 1300.78320312 275.477539062 l 2,0,1
416.044921875 705.219726562 m 1,43,44
 445.987304688 665.93359375 445.987304688 665.93359375 648.833984375 545.737304688 c 1,45,46
 800.0078125 616.92578125 800.0078125 616.92578125 862.724609375 689.08203125 c 0,47,48
 875.624023438 703.92578125 875.624023438 703.92578125 836.290039062 720.345703125 c 0,49,50
 776.793945312 745.178710938 776.793945312 745.178710938 643.768554688 745.1796875 c 0,51,52
 477.720703125 745.1796875 477.720703125 745.1796875 416.044921875 705.219726562 c 1,43,44
EndSplineSet
EndChar

StartChar: uniFECB
Encoding: 65227 65227 213
Width: 1109
VWidth: 2356
GlyphClass: 2
Flags: W
AnchorPoint: "Anchor-10" 398.841 1337.38 basechar 0
AnchorPoint: "Anchor-7" 531.696 -212.05 basechar 0
LayerCount: 2
Fore
SplineSet
568.604492188 701.682617188 m 0,0,1
 339.057033884 702.045278685 339.057033884 702.045278685 340.375976562 503.450195312 c 0,2,3
 341.6953125 406.674804688 341.6953125 406.674804688 473.596679688 298.385742188 c 1,4,5
 511.609700898 287.280606566 511.609700898 287.280606566 665.706054688 313.512695312 c 2,6,-1
 1032.91992188 376.030273438 l 1,7,-1
 1032.91992188 120.3359375 l 1,8,-1
 999.143554688 111.63671875 l 2,9,10
 565.59765625 -0.02734375 565.59765625 -0.02734375 346.99609375 -0.0166015625 c 2,11,-1
 -4 0 l 2,12,13
 -31.8125 0 -31.8125 0 -53.103515625 14.1201171875 c 0,14,15
 -96.6240234375 42.984375 -96.6240234375 42.984375 -96.6240234375 119 c 2,16,-1
 -96.6240234375 152.890625 l 2,17,18
 -96.8642578125 202.182617188 -96.8642578125 202.182617188 -74.5029296875 238.591796875 c 128,-1,19
 -52.140625 275.000976562 -52.140625 275.000976562 -3.8505859375 275.479492188 c 2,20,-1
 163.713867188 275.504882812 l 1,21,22
 83.03125 390.392578125 83.03125 390.392578125 82.494140625 502.589355469 c 128,-1,23
 81.95703125 614.786132812 81.95703125 614.786132812 117.967773438 702.35546875 c 0,24,25
 231.897802925 977.972618113 231.897802925 977.972618113 560.733398438 978.280273438 c 0,26,27
 779.688476562 977.975585938 779.688476562 977.975585938 943.9296875 825.569335938 c 2,28,-1
 967.444335938 803.749023438 l 1,29,-1
 872.459960938 588.670898438 l 1,30,-1
 828.346679688 616.525390625 l 2,31,32
 693.029296875 701.969726562 693.029296875 701.969726562 568.604492188 701.682617188 c 0,0,1
EndSplineSet
EndChar

StartChar: uniFECC
Encoding: 65228 65228 214
Width: 1079
VWidth: 2356
GlyphClass: 2
Flags: W
AnchorPoint: "Anchor-10" 488.215 1180.79 basechar 0
AnchorPoint: "Anchor-7" 526.375 -164.35 basechar 0
LayerCount: 2
Fore
SplineSet
-3.8466796875 275.479492188 m 2,0,-1
 83.53515625 275.479492188 l 2,1,2
 210.04296875 275.16796875 210.04296875 275.16796875 306.359375 312.505859375 c 1,3,4
 5.36220989352 472.497998328 5.36220989352 472.497998328 52.642578125 683.126953125 c 0,5,6
 106.093861847 918.546472684 106.093861847 918.546472684 536.771484375 916.592773438 c 0,7,8
 981.087093416 918.667571577 981.087093416 918.667571577 1022.13964844 680.83984375 c 0,9,10
 1054.92994276 490.877460437 1054.92994276 490.877460437 786.768554688 318.7421875 c 1,11,12
 902.4609375 275.4765625 902.4609375 275.4765625 1021.67382812 275.478515625 c 2,13,-1
 1093.60253906 275.479492188 l 2,14,15
 1120.42489353 275.208621497 1120.42489353 275.208621497 1141.09375 261.892578125 c 0,16,17
 1186.37597656 232.719726562 1186.37597656 232.719726562 1186.37597656 153 c 2,18,-1
 1186.37597656 118.885742188 l 2,19,20
 1185.99121094 43.150390625 1185.99121094 43.150390625 1142.59863281 14.279296875 c 0,21,22
 1120.83886719 -0.1982421875 1120.83886719 -0.1982421875 1092.30566406 0.0009765625 c 2,23,-1
 1016.4296875 0.53125 l 2,24,25
 774.955078125 1.9990234375 774.955078125 1.9990234375 549.299804688 161.975585938 c 1,26,27
 323.951171875 -0 323.951171875 -0 77.232421875 0 c 2,28,-1
 -4 0 l 2,29,30
 -31.8125 0 -31.8125 0 -53.103515625 14.1201171875 c 0,31,32
 -96.6240234375 42.984375 -96.6240234375 42.984375 -96.6240234375 119 c 2,33,-1
 -96.6240234375 152.890625 l 2,34,35
 -96.8642578125 202.181640625 -96.8642578125 202.181640625 -74.501953125 238.590820312 c 128,-1,36
 -52.138671875 275.000976562 -52.138671875 275.000976562 -3.8466796875 275.479492188 c 2,0,-1
772.114257812 607.776367188 m 0,37,38
 773.91015625 610.212890625 773.91015625 610.212890625 774.023925781 612.649414062 c 128,-1,39
 774.137695312 615.0859375 774.137695312 615.0859375 768.1328125 620.3828125 c 128,-1,40
 762.12890625 625.678710938 762.12890625 625.678710938 745.08203125 633.021484375 c 128,-1,41
 728.03515625 640.364257812 728.03515625 640.364257812 702.948242188 646.43359375 c 0,42,43
 642.316992689 661.104614299 642.316992689 661.104614299 539.055469001 660.914123556 c 128,-1,44
 435.793945312 660.723632812 435.793945312 660.723632812 372.630859375 648.490234375 c 128,-1,45
 309.466796875 636.255859375 309.466796875 636.255859375 296.9296875 623.497070312 c 1,46,47
 325.536453052 583.210981014 325.536453052 583.210981014 473.1796875 502.036132812 c 0,48,49
 513.006835938 480.138671875 513.006835938 480.138671875 552.979492188 460.811523438 c 1,50,51
 721.883728524 539.627824189 721.883728524 539.627824189 772.114257812 607.776367188 c 0,37,38
EndSplineSet
EndChar

StartChar: uniFEDA
Encoding: 65242 65242 228
Width: 1981
VWidth: 2356
GlyphClass: 2
Flags: W
AnchorPoint: "Anchor-10" 599.52 1497.73 basechar 0
AnchorPoint: "Anchor-7" 632.38 -194.03 basechar 0
LayerCount: 2
Fore
SplineSet
763.459960938 874.500976562 m 2,0,1
 946.024414062 850.428710938 946.024414062 850.428710938 1008.171875 895.9140625 c 0,2,3
 1028.54882812 910.827148438 1028.54882812 910.827148438 1020.89257812 917.138671875 c 0,4,5
 1008.66796875 925.881835938 1008.66796875 925.881835938 973.489257812 931.928710938 c 0,6,7
 888.565429688 945.352539062 888.565429688 945.352539062 841.08984375 997.720703125 c 0,8,9
 769.59375 1076.58496094 769.59375 1076.58496094 806.830078125 1189.17285156 c 0,10,11
 858.950195312 1346.7734375 858.950195312 1346.7734375 1134.96386719 1364.26953125 c 2,12,-1
 1199.71582031 1368.37207031 l 1,13,-1
 1199.71582031 1185.52148438 l 1,14,-1
 1143.34179688 1181.36132812 l 2,15,16
 1061.74804688 1175.17480469 1061.74804688 1175.17480469 1014.50878906 1153.1171875 c 0,17,18
 983.4375 1139.23632812 983.4375 1139.23632812 983.419921875 1126 c 0,19,20
 983.395507812 1107.93554688 983.395507812 1107.93554688 1058.92382812 1096.625 c 0,21,22
 1103.47851562 1089.953125 1103.47851562 1089.953125 1138.04003906 1066.7109375 c 0,23,24
 1209.50683594 1018.64746094 1209.50683594 1018.64746094 1209.55273438 921.778320312 c 0,25,26
 1209.48632812 797.913085938 1209.48632812 797.913085938 1081.15039062 724.505859375 c 128,-1,27
 952.815429688 651.098632812 952.815429688 651.098632812 745.450195312 685.779296875 c 2,28,-1
 694.59765625 694.286132812 l 1,29,-1
 694.59765625 883.583007812 l 1,30,-1
 763.459960938 874.500976562 l 2,0,1
1787.66113281 323.256835938 m 1,31,32
 1839.10609177 275.90234375 1839.10609177 275.90234375 1961.58789062 275.90234375 c 2,33,-1
 2058.79296875 275.90234375 l 1,34,-1
 2058.79296875 0.5302734375 l 1,35,-1
 1949.1015625 0.5302734375 l 2,36,37
 1774 1 1774 1 1629.1953125 117.83203125 c 1,38,39
 1437 15 1437 15 1093.08007812 3.5400390625 c 0,40,41
 1020 1 1020 1 938.045898438 1.041015625 c 0,42,43
 571 1 571 1 411.5 69 c 0,44,45
 197 161 197 161 123.213867188 322.33984375 c 0,46,47
 87 402 87 402 81.9267578125 446.13671875 c 0,48,49
 77 490 77 490 75.576171875 507.028320312 c 0,50,51
 63.0056598105 654.933406471 63.0056598105 654.933406471 106.416992188 809.166992188 c 2,52,-1
 118.411132812 851.780273438 l 1,53,-1
 342.734375 792.591796875 l 1,54,-1
 336.423828125 752.456054688 l 2,55,56
 314 610 314 610 316.5 554.5 c 0,57,58
 324 387 324 387 485.736328125 324.056640625 c 0,59,60
 542 302 542 302 619 290.5 c 128,-1,61
 696 279 696 279 905.5 278.5 c 128,-1,62
 1115 278 1115 278 1224.88378906 283.3515625 c 0,63,64
 1416 292 1416 292 1498.77050781 348.34375 c 128,-1,65
 1581.6170489 404.739316282 1581.6170489 404.739316282 1577.89257812 509.861328125 c 2,66,-1
 1545.10351562 1435.32226562 l 5,67,-1
 1808.71777344 1564.71777344 l 5,68,-1
 1808.71777344 478.797851562 l 2,69,70
 1809 389 1809 389 1787.66113281 323.256835938 c 1,31,32
EndSplineSet
EndChar

StartChar: uniFEDB
Encoding: 65243 65243 229
Width: 906
VWidth: 2356
GlyphClass: 2
Flags: W
AnchorPoint: "Anchor-10" 222.07 1510.98 basechar 0
AnchorPoint: "Anchor-7" 326.48 -195.62 basechar 0
LayerCount: 2
Fore
SplineSet
-3.8603515625 275.479492188 m 2,0,-1
 255.279296875 275.637695312 l 2,1,2
 357 276 357 276 406.841796875 303.41015625 c 0,3,4
 456 331 456 331 466.805664062 383.423828125 c 0,5,6
 478.936936761 442.691900699 478.936936761 442.691900699 413.5078125 515.333007812 c 2,7,-1
 136.856445312 822.478515625 l 2,8,9
 30 941 30 941 26.44921875 1031.18652344 c 0,10,11
 24 1102 24 1102 61.9098527716 1164.52927027 c 0,12,13
 98 1226 98 1226 172.551757812 1262.90527344 c 2,14,-1
 853 1604 l 1,15,-1
 853 1317.72753906 l 1,16,-1
 288.756835938 1037.82617188 l 1,17,-1
 598.609375 695.278320312 l 2,18,19
 747.039068201 531.186482731 747.039068201 531.186482731 703.275390625 322.291015625 c 0,20,21
 681 215 681 215 616.580078125 142.887695312 c 0,22,23
 552 70 552 70 452.897460938 35.2412109375 c 0,24,25
 353 0 353 0 220.52734375 0 c 2,26,-1
 -4 0 l 2,27,28
 -32 0 -32 0 -53.103515625 14.1201171875 c 0,29,30
 -96.6240234375 42.7526417156 -96.6240234375 42.7526417156 -96.6240234375 119 c 2,31,-1
 -96.6240234375 152.890625 l 2,32,33
 -97 204 -97 204 -74.5068359375 238.591796875 c 0,34,35
 -52 275 -52 275 -3.8603515625 275.479492188 c 2,0,-1
EndSplineSet
EndChar

StartChar: uniFEDC
Encoding: 65244 65244 230
Width: 1090
VWidth: 2356
GlyphClass: 2
Flags: W
AnchorPoint: "Anchor-10" 222.07 1510.98 basechar 0
AnchorPoint: "Anchor-7" 349.2 -185.02 basechar 0
LayerCount: 2
Fore
SplineSet
-3.8603515625 275.479492188 m 2,0,-1
 255.279296875 275.637695312 l 2,1,2
 445 276 445 276 466.805664062 383.423828125 c 0,3,4
 478.936936761 442.691900699 478.936936761 442.691900699 413.5078125 515.333007812 c 2,5,-1
 136.856445312 822.478515625 l 2,6,7
 30 941 30 941 26.44921875 1031.18652344 c 0,8,9
 22 1145 22 1145 109.001953125 1219.01269531 c 0,10,11
 145 1249 145 1249 172.551757812 1262.90625 c 2,12,-1
 857 1607.25878906 l 5,13,-1
 857 1320.98535156 l 5,14,-1
 288.64453125 1037.765625 l 1,15,-1
 900.26171875 358.836914062 l 2,16,17
 974.545317989 276.378034054 974.545317989 276.378034054 1052.59960938 275.807617188 c 2,18,-1
 1097.76660156 275.477539062 l 2,19,20
 1124 275 1124 275 1145.09375 261.892578125 c 0,21,22
 1190.37597656 232.758097543 1190.37597656 232.758097543 1190.37597656 153 c 2,23,-1
 1190.37597656 118.887695312 l 2,24,25
 1190 43 1190 43 1146.54296875 14.162109375 c 0,26,27
 1124.53634044 -0.304804668899 1124.53634044 -0.304804668899 1096.13183594 0.0029296875 c 2,28,-1
 1047.18652344 0.533203125 l 2,29,30
 864 3 864 3 674.364257812 219.83203125 c 1,31,32
 585 0 585 0 222.927734375 0 c 2,33,-1
 -4 0 l 2,34,35
 -32 0 -32 0 -53.103515625 14.1201171875 c 0,36,37
 -96.6240234375 42.7526417156 -96.6240234375 42.7526417156 -96.6240234375 119 c 2,38,-1
 -96.6240234375 152.890625 l 2,39,40
 -97 204 -97 204 -74.5068359375 238.591796875 c 0,41,42
 -52 275 -52 275 -3.8603515625 275.479492188 c 2,0,-1
EndSplineSet
EndChar

StartChar: uniFEDE
Encoding: 65246 65246 232
Width: 1525
VWidth: 2356
GlyphClass: 2
Flags: W
AnchorPoint: "Anchor-10" 495.11 981.51 basechar 0
AnchorPoint: "Anchor-7" 442.612 -772.916 basechar 0
LayerCount: 2
Fore
SplineSet
1532.78417969 275.477539062 m 2,0,1
 1581.95459187 275.080055892 1581.95459187 275.080055892 1602.66699219 238.563476562 c 0,2,3
 1625.37597656 196.300278177 1625.37597656 196.300278177 1625.37597656 153.109375 c 2,4,-1
 1625.37597656 119 l 2,5,6
 1624.99380254 37.681309255 1624.99380254 37.681309255 1582.36328125 14.3984375 c 0,7,8
 1554.38157224 -0.325413951772 1554.38157224 -0.325413951772 1530.83789062 0.0068359375 c 2,9,-1
 1493.40039062 0.53515625 l 2,10,11
 1363 2 1363 2 1291.80273438 33.75 c 1,12,13
 1271 -222 1271 -222 1123.11035156 -354.327148438 c 0,14,15
 975 -487 975 -487 713.493164062 -486.970703125 c 0,16,17
 277 -487 277 -487 135.494140625 -157.983398438 c 0,18,19
 65 7 65 7 97.5517578125 234.8359375 c 0,20,21
 118.960149298 382.724712082 118.960149298 382.724712082 183.50390625 527.642578125 c 2,22,-1
 200.262695312 565.270507812 l 1,23,-1
 443.137695312 481.895507812 l 1,24,-1
 424.961914062 437.719726562 l 2,25,26
 331 210 331 210 350.60546875 60.4716796875 c 0,27,28
 370 -89 370 -89 457.517578125 -156.112304688 c 0,29,30
 549 -227 549 -227 726.45703125 -223.877929688 c 0,31,32
 904 -221 904 -221 985.08203125 -122.662109375 c 0,33,34
 1066.94258947 -24.0691453225 1066.94258947 -24.0691453225 1062.83886719 186.5859375 c 2,35,-1
 1038.23730469 1449.45019531 l 5,36,-1
 1301.49707031 1558.52636719 l 5,37,-1
 1301.49707031 430.399414062 l 2,38,39
 1301 361 1301 361 1343.1328125 319.52734375 c 0,40,41
 1385.32530534 276.669565286 1385.32530534 276.669565286 1480.47558594 275.900390625 c 2,42,-1
 1532.78417969 275.477539062 l 2,0,1
EndSplineSet
EndChar

StartChar: uniFEDF
Encoding: 65247 65247 233
Width: 586
VWidth: 2356
GlyphClass: 2
Flags: W
AnchorPoint: "Anchor-10" 318.773 1610.4 basechar 0
AnchorPoint: "Anchor-7" 247.754 -157.99 basechar 0
LayerCount: 2
Fore
SplineSet
-3.8466796875 275.479492188 m 2,0,-1
 38.0439453125 275.479492188 l 2,1,2
 146 275 146 275 192.194497742 334.753957332 c 128,-1,3
 238.388995483 394.507914664 238.388995483 394.507914664 234.109375 523.231445312 c 2,4,-1
 203.44921875 1445.43554688 l 5,5,-1
 468.120117188 1561.109375 l 5,6,-1
 468.120117188 511.05078125 l 2,7,8
 468 129 468 129 222.081054688 31.126953125 c 0,9,10
 144 0 144 0 47.3818359375 0 c 2,11,-1
 -4 0 l 2,12,13
 -32 0 -32 0 -53.103515625 14.1201171875 c 0,14,15
 -96.6240234375 42.7526417156 -96.6240234375 42.7526417156 -96.6240234375 119 c 2,16,-1
 -96.6240234375 152.890625 l 2,17,18
 -96.9799448711 202.220411221 -96.9799448711 202.220411221 -74.501953125 238.590820312 c 128,-1,19
 -52 275 -52 275 -3.8466796875 275.479492188 c 2,0,-1
EndSplineSet
EndChar

StartChar: uniFEE0
Encoding: 65248 65248 234
Width: 688
VWidth: 2356
GlyphClass: 2
Flags: W
AnchorPoint: "Anchor-10" 327.574 1606.16 basechar 0
AnchorPoint: "Anchor-7" 261.534 -210.99 basechar 0
LayerCount: 2
Fore
SplineSet
358.741210938 96.6630859375 m 5,0,1
 249 0 249 0 86.921875 0 c 6,2,-1
 -4 0 l 2,3,4
 -32 0 -32 0 -53.103515625 14.1201171875 c 0,5,6
 -96.6240234375 42.7526417156 -96.6240234375 42.7526417156 -96.6240234375 119 c 2,7,-1
 -96.6240234375 152.890625 l 2,8,9
 -96.9799448711 202.220411221 -96.9799448711 202.220411221 -74.501953125 238.590820312 c 0,10,11
 -51.7036596035 275.479492188 -51.7036596035 275.479492188 -3.8466796875 275.479492188 c 2,12,-1
 88.7646484375 275.479492188 l 6,13,14
 171 275 171 275 205.234375 320.495117188 c 4,15,16
 239.964824263 365.95395832 239.964824263 365.95395832 236.547851562 471.083007812 c 6,17,-1
 204.836914062 1446.72460938 l 5,18,-1
 468.440429688 1559.30371094 l 5,19,-1
 468.440429688 472.462890625 l 6,20,21
 468 366 468 366 509.139648438 320.6875 c 4,22,23
 549.571168933 275.479492188 549.571168933 275.479492188 642.266601562 275.479492188 c 6,24,-1
 695.602539062 275.479492188 l 6,25,26
 788.375976562 274.998048888 788.375976562 274.998048888 788.375976562 153 c 6,27,-1
 788.375976562 118.885742188 l 6,28,29
 788 43 788 43 743.8125 13.904296875 c 4,30,31
 722 0 722 0 694.620117188 0 c 6,32,-1
 632.885742188 0 l 6,33,34
 472 0 472 0 358.741210938 96.6630859375 c 5,0,1
EndSplineSet
EndChar

StartChar: uniFEE2
Encoding: 65250 65250 236
Width: 1212
VWidth: 2356
GlyphClass: 2
Flags: W
AnchorPoint: "Anchor-10" 604.29 1098.64 basechar 0
AnchorPoint: "Anchor-7" 220.239 -755.747 basechar 0
LayerCount: 2
Fore
SplineSet
1218.87011719 275.4765625 m 2,0,1
 1287.97157224 276.232005551 1287.97157224 276.232005551 1307.28222656 196.212890625 c 0,2,3
 1312.26757812 175.555664062 1312.26757812 175.555664062 1312.37597656 153.108398438 c 2,4,-1
 1312.37597656 119 l 2,5,6
 1312.37597656 43.3671875 1312.37597656 43.3671875 1269.36328125 14.3984375 c 0,7,8
 1247.09765625 -0.5986328125 1247.09765625 -0.5986328125 1217.71777344 0.0087890625 c 2,9,-1
 1178.99023438 0.76171875 l 2,10,11
 1068.48925781 2.908203125 1068.48925781 2.908203125 994.765625 50.802734375 c 1,12,13
 922.178710938 -79.998046875 922.178710938 -79.998046875 763.219046704 -80.0304966485 c 128,-1,14
 604.25938247 -80.0629464219 604.25938247 -80.0629464219 496.131835938 4.765625 c 0,15,16
 366.789642807 106.240470469 366.789642807 106.240470469 335.140625 306.84765625 c 1,17,18
 301.254882812 230.094726562 301.254882812 230.094726562 308.921875 70.7548828125 c 2,19,-1
 339.045898438 -573.5546875 l 1,20,-1
 76.369140625 -705.034179688 l 1,21,-1
 76.369140625 131.40234375 l 2,22,23
 76.369140625 436.305664062 76.369140625 436.305664062 279.768066406 583.051757812 c 128,-1,24
 483.166992188 729.797851562 483.166992188 729.797851562 719.268554688 733.078125 c 0,25,26
 853.360351562 735.265625 853.360351562 735.265625 939.279296875 666.515625 c 128,-1,27
 1025.19824219 597.764648438 1025.19824219 597.764648438 1051.99414062 466.70703125 c 0,28,29
 1063.69921875 409.900390625 1063.69921875 409.900390625 1073.46777344 322.900390625 c 1,30,31
 1111.68474184 274.324520623 1111.68474184 274.324520623 1194.27050781 275.192382812 c 2,32,-1
 1218.87011719 275.4765625 l 2,0,1
556.532226562 439.422851562 m 1,33,34
 586 170 586 170 741 170.067382812 c 4,35,36
 789 170 789 170 813.657226562 205.461914062 c 0,37,38
 846 250 846 250 819.89453125 406.836914062 c 0,39,40
 810 465 810 465 778.208007812 479.947265625 c 0,41,42
 762 487 762 487 735.428710938 488.131835938 c 0,43,44
 634 490 634 490 556.532226562 439.422851562 c 1,33,34
EndSplineSet
EndChar

StartChar: uniFEE3
Encoding: 65251 65251 237
Width: 993
VWidth: 2356
GlyphClass: 2
Flags: W
AnchorPoint: "Anchor-10" 406.711 1076.91 basechar 0
AnchorPoint: "Anchor-7" 368.552 -173.89 basechar 0
LayerCount: 2
Fore
SplineSet
-3.8466796875 275.479492188 m 2,0,-1
 57.3388671875 275.477539062 l 2,1,2
 83.283203125 275.314453125 83.283203125 275.314453125 97.9912109375 284.288085938 c 128,-1,3
 112.700195312 293.262695312 112.700195312 293.262695312 123.643554688 315.534179688 c 0,4,5
 220.40625 512.4609375 220.40625 512.4609375 273.91015625 602.396484375 c 0,6,7
 383.198242188 782.924804688 383.198242188 782.924804688 548.680664062 784.401367188 c 0,8,9
 654.717773438 785.342773438 654.717773438 785.342773438 735.526367188 716.700195312 c 128,-1,10
 816.3359375 648.05859375 816.3359375 648.05859375 869.662109375 519.682617188 c 0,11,12
 916.063476562 406.728515625 916.063476562 406.728515625 915.258789062 293.868164062 c 0,13,14
 914.970703125 202.7421875 914.970703125 202.7421875 886.244140625 135.33984375 c 0,15,16
 850.115234375 49.8583984375 850.115234375 49.8583984375 776.362304688 1.568359375 c 0,17,18
 700.34765625 -49.1982421875 700.34765625 -49.1982421875 586.70703125 -47.5498046875 c 0,19,20
 420.990234375 -46.029296875 420.990234375 -46.029296875 274.124023438 74.4267578125 c 1,21,22
 195.990234375 0 195.990234375 0 41.3193359375 0 c 2,23,-1
 -4 0 l 2,24,25
 -31.8125 0 -31.8125 0 -53.103515625 14.1201171875 c 0,26,27
 -96.6240234375 42.984375 -96.6240234375 42.984375 -96.6240234375 119 c 2,28,-1
 -96.6240234375 152.890625 l 2,29,30
 -96.8642578125 202.181640625 -96.8642578125 202.181640625 -74.5009765625 238.590820312 c 128,-1,31
 -52.1376953125 275.000976562 -52.1376953125 275.000976562 -3.8466796875 275.479492188 c 2,0,-1
386.078125 302.325195312 m 1,32,33
 504.264648438 204.477539062 504.264648438 204.477539062 585.108398438 204.466796875 c 0,34,35
 610.637695312 204.483398438 610.637695312 204.483398438 625.918945312 212.723632812 c 128,-1,36
 641.200195312 220.963867188 641.200195312 220.963867188 652.615234375 239.8984375 c 0,37,38
 690.926757812 303.037109375 690.926757812 303.037109375 627.209960938 436.79296875 c 0,39,40
 594.28125 505.908203125 594.28125 505.908203125 547.799804688 511.833007812 c 0,41,42
 509.07421875 516.728515625 509.07421875 516.728515625 467.469726562 449.405273438 c 0,43,44
 422.028320312 377.383789062 422.028320312 377.383789062 386.078125 302.325195312 c 1,32,33
EndSplineSet
EndChar

StartChar: uniFEE4
Encoding: 65252 65252 238
Width: 1087
VWidth: 2356
GlyphClass: 2
Flags: W
AnchorPoint: "Anchor-10" 461.938 1040.87 basechar 0
AnchorPoint: "Anchor-7" 423.777 -183.43 basechar 0
LayerCount: 2
Fore
SplineSet
-3.8466796875 275.479492188 m 2,0,-1
 57.3388671875 275.477539062 l 2,1,2
 83.953125 275.309570312 83.953125 275.309570312 98.482421875 284.17578125 c 128,-1,3
 113.01171875 293.041015625 113.01171875 293.041015625 123.344726562 314.9140625 c 0,4,5
 196.143554688 468.981445312 196.143554688 468.981445312 273.592773438 601.859375 c 0,6,7
 377.831054688 781.572265625 377.831054688 781.572265625 548.3828125 784.397460938 c 0,8,9
 654.594726562 785.930664062 654.594726562 785.930664062 735.48046875 717.227539062 c 128,-1,10
 816.365234375 648.524414062 816.365234375 648.524414062 869.653320312 519.705078125 c 0,11,12
 886.791992188 478.278320312 886.791992188 478.278320312 905.897460938 404.025390625 c 0,13,14
 923.791992188 336.186523438 923.791992188 336.186523438 961.81640625 306.03125 c 128,-1,15
 999.83984375 275.875976562 999.83984375 275.875976562 1066.84570312 275.595703125 c 2,16,-1
 1094.69726562 275.478515625 l 2,17,18
 1107.33007812 275.3515625 1107.33007812 275.3515625 1119.42089844 272.030273438 c 128,-1,19
 1131.51171875 268.709960938 1131.51171875 268.709960938 1142.09375 261.892578125 c 0,20,21
 1187.37597656 232.719726562 1187.37597656 232.719726562 1187.37597656 153 c 2,22,-1
 1187.37597656 118.885742188 l 2,23,24
 1187.20117188 84.5576171875 1187.20117188 84.5576171875 1177.76074219 57.634765625 c 128,-1,25
 1168.3203125 30.712890625 1168.3203125 30.712890625 1143.59179688 14.265625 c 0,26,27
 1121.82519531 -0.2109375 1121.82519531 -0.2109375 1093.28613281 0.0009765625 c 2,28,-1
 1063.35546875 0.2236328125 l 2,29,30
 932.94921875 0.9052734375 932.94921875 0.9052734375 853.067382812 74.69140625 c 1,31,32
 821.239257812 31.197265625 821.239257812 31.197265625 776.432617188 1.615234375 c 0,33,34
 700.34765625 -49.1982421875 700.34765625 -49.1982421875 586.70703125 -47.5498046875 c 0,35,36
 420.990234375 -46.029296875 420.990234375 -46.029296875 274.124023438 74.4267578125 c 1,37,38
 195.990234375 0 195.990234375 0 41.3193359375 0 c 2,39,-1
 -4 0 l 2,40,41
 -31.8125 0 -31.8125 0 -53.103515625 14.1201171875 c 0,42,43
 -96.6240234375 42.984375 -96.6240234375 42.984375 -96.6240234375 119 c 2,44,-1
 -96.6240234375 152.890625 l 2,45,46
 -96.8642578125 202.181640625 -96.8642578125 202.181640625 -74.5009765625 238.590820312 c 128,-1,47
 -52.1376953125 275.000976562 -52.1376953125 275.000976562 -3.8466796875 275.479492188 c 2,0,-1
386.078125 302.325195312 m 1,48,49
 504.264648438 204.477539062 504.264648438 204.477539062 585.108398438 204.466796875 c 0,50,51
 610.637695312 204.483398438 610.637695312 204.483398438 625.918945312 212.723632812 c 128,-1,52
 641.200195312 220.963867188 641.200195312 220.963867188 652.615234375 239.8984375 c 0,53,54
 690.926757812 303.037109375 690.926757812 303.037109375 627.209960938 436.79296875 c 0,55,56
 594.28125 505.908203125 594.28125 505.908203125 547.799804688 511.833007812 c 0,57,58
 509.07421875 516.728515625 509.07421875 516.728515625 467.469726562 449.405273438 c 0,59,60
 422.028320312 377.383789062 422.028320312 377.383789062 386.078125 302.325195312 c 1,48,49
EndSplineSet
EndChar

StartChar: uniFEEA
Encoding: 65258 65258 244
Width: 1169
VWidth: 2356
GlyphClass: 2
Flags: W
AnchorPoint: "Anchor-10" 659.887 1305.14 basechar 0
AnchorPoint: "Anchor-7" 446.753 -148.98 basechar 0
LayerCount: 2
Fore
SplineSet
1176.61230469 275.479492188 m 2,0,1
 1224.22265625 275 1224.22265625 275 1246.6796875 238.59375 c 128,-1,2
 1269.13671875 202.1875 1269.13671875 202.1875 1269.37597656 153.109375 c 2,3,-1
 1269.37597656 119 l 2,4,5
 1269.37597656 42.322265625 1269.37597656 42.322265625 1224.51171875 13.6083984375 c 0,6,7
 1203.24902344 0 1203.24902344 0 1175.62011719 0 c 2,8,-1
 1127.75976562 0 l 2,9,10
 981.360351562 0 981.360351562 0 883.80859375 63.5263671875 c 128,-1,11
 786.256835938 127.052734375 786.256835938 127.052734375 748.916992188 249.704101562 c 1,12,13
 582.051757812 226.9921875 582.051757812 226.9921875 453.9140625 231.647460938 c 128,-1,14
 325.776367188 236.303710938 325.776367188 236.303710938 235.915039062 278.358398438 c 128,-1,15
 146.053710938 320.4140625 146.053710938 320.4140625 103.880859375 400.375 c 0,16,17
 79.4072265625 447.1640625 79.4072265625 447.1640625 77.1337890625 508.624023438 c 0,18,19
 74.181640625 588.890625 74.181640625 588.890625 112.486328125 656.025390625 c 128,-1,20
 150.791015625 723.161132812 150.791015625 723.161132812 227.696289062 775.408203125 c 128,-1,21
 304.6015625 827.65625 304.6015625 827.65625 411.526367188 867.247070312 c 128,-1,22
 518.450195312 906.837890625 518.450195312 906.837890625 659.466796875 936.444335938 c 1,23,24
 655.819335938 966.038085938 655.819335938 966.038085938 649.013671875 1015.4375 c 2,25,-1
 643.475585938 1055.63769531 l 1,26,-1
 890.420898438 1116.09863281 l 1,27,-1
 963.874023438 467.770507812 l 2,28,29
 975.633789062 363.971679688 975.633789062 363.971679688 1015.5078125 319.8359375 c 128,-1,30
 1055.38183594 275.700195312 1055.38183594 275.700195312 1128.85253906 275.5 c 2,31,-1
 1176.61230469 275.479492188 l 2,0,1
714.811523438 494.967773438 m 1,32,33
 709.3203125 549.051757812 709.3203125 549.051757812 703.5546875 597.525390625 c 128,-1,34
 697.7890625 645.998046875 697.7890625 645.998046875 691.750976562 689.030273438 c 1,35,36
 616.543945312 673.8671875 616.543945312 673.8671875 554.28125 655.99609375 c 128,-1,37
 492.018554688 638.125 492.018554688 638.125 452.491210938 621.918945312 c 128,-1,38
 412.96484375 605.713867188 412.96484375 605.713867188 385.310546875 589.61328125 c 128,-1,39
 357.65625 573.51171875 357.65625 573.51171875 345.680664062 561.2734375 c 128,-1,40
 333.705078125 549.03515625 333.705078125 549.03515625 332.529296875 539.713867188 c 0,41,42
 331.864257812 534.396484375 331.864257812 534.396484375 331.573242188 530.270507812 c 128,-1,43
 331.28125 526.143554688 331.28125 526.143554688 331.384765625 522.11328125 c 128,-1,44
 331.487304688 518.083984375 331.487304688 518.083984375 332.079101562 515.024414062 c 128,-1,45
 332.669921875 511.965820312 332.669921875 511.965820312 333.895507812 508.989257812 c 128,-1,46
 335.120117188 506.013671875 335.120117188 506.013671875 336.940429688 503.774414062 c 128,-1,47
 338.76171875 501.534179688 338.76171875 501.534179688 341.455078125 499.364257812 c 128,-1,48
 344.147460938 497.193359375 344.147460938 497.193359375 347.543945312 495.526367188 c 128,-1,49
 350.940429688 493.858398438 350.940429688 493.858398438 355.447265625 492.24609375 c 128,-1,50
 359.955078125 490.6328125 359.955078125 490.6328125 365.272460938 489.2890625 c 128,-1,51
 370.590820312 487.9453125 370.590820312 487.9453125 377.25 486.62890625 c 0,52,53
 490.109375 463.875 490.109375 463.875 714.811523438 494.967773438 c 1,32,33
EndSplineSet
EndChar

StartChar: uniFEEB
Encoding: 65259 65259 245
Width: 1245
VWidth: 2356
GlyphClass: 2
Flags: W
AnchorPoint: "Anchor-10" 592.329 1334.2 basechar 0
AnchorPoint: "Anchor-7" 405.494 -196.623 basechar 0
LayerCount: 2
Fore
SplineSet
-3.9599609375 275.478515625 m 2,0,-1
 98.5556640625 275.991210938 l 1,1,2
 61.5341796875 356.462890625 61.5341796875 356.462890625 66.59765625 470.370117188 c 0,3,4
 74.3549539858 644.877150013 74.3549539858 644.877150013 221.436523438 772.483398438 c 0,5,6
 264.220240201 809.602050422 264.220240201 809.602050422 313.512695312 832.311523438 c 1,7,-1
 308.33984375 835.071289062 l 1,8,-1
 401.56640625 1051.51660156 l 1,9,-1
 801.366210938 797.6171875 l 1,10,11
 1148.52375698 568.156270657 1148.52375698 568.156270657 1173.6796875 341.494140625 c 0,12,13
 1186.29296875 227.83984375 1186.29296875 227.83984375 1139.36523438 142.744628906 c 0,14,15
 1052.68414656 -14.436319383 1052.68414656 -14.436319383 849.41140922 -26.2508745352 c 128,-1,16
 646.138671875 -38.0654296875 646.138671875 -38.0654296875 397.249023438 61.0390625 c 1,17,18
 249.9375 0 249.9375 0 30.34765625 0 c 2,19,-1
 -4 0 l 2,20,21
 -31.8125 0 -31.8125 0 -53.103515625 14.1201171875 c 0,22,23
 -96.6240234375 42.984375 -96.6240234375 42.984375 -96.6240234375 119 c 2,24,-1
 -96.6240234375 152.890625 l 2,25,26
 -96.9577786629 221.403637604 -96.9577786629 221.403637604 -66.9813307377 248.277014115 c 128,-1,27
 -37.0048828125 275.150390625 -37.0048828125 275.150390625 -3.9599609375 275.478515625 c 2,0,-1
661 240.903320312 m 1,28,29
 920.132767221 182.092278195 920.132767221 182.092278195 933.063476562 291.298828125 c 4,30,31
 947 409 947 409 791.780273438 495.567382812 c 1,32,33
 767.785450979 352.629910663 767.785450979 352.629910663 661 240.903320312 c 1,28,29
402.244140625 316.563476562 m 1,34,35
 511 354 511 354 555.411132812 476.888671875 c 0,36,37
 599 598 599 598 547 630 c 0,38,39
 447.180423667 692.263696129 447.180423667 692.263696129 356 559 c 0,40,41
 328 518 328 518 315.98046875 478 c 0,42,43
 292 398 292 398 333 356.862304688 c 0,44,45
 368 322 368 322 402.244140625 316.563476562 c 1,34,35
EndSplineSet
EndChar

StartChar: uniFEEC
Encoding: 65260 65260 246
Width: 1014
VWidth: 2356
GlyphClass: 2
Flags: W
AnchorPoint: "Anchor-7" 293.493 -686.658 basechar 0
AnchorPoint: "Anchor-10" 441.766 1195.88 basechar 0
LayerCount: 2
Fore
SplineSet
957.282226562 276.637695312 m 2,0,-1
 1022.00585938 275.475585938 l 2,1,2
 1049 275 1049 275 1069.09375 261.892578125 c 0,3,4
 1114.37597656 232.758097543 1114.37597656 232.758097543 1114.37597656 153 c 2,5,-1
 1114.37597656 118.885742188 l 2,6,7
 1114 14 1114 14 1037.31445312 1.384765625 c 0,8,9
 1029 0 1029 0 1020.62011719 0 c 2,10,-1
 943.786132812 0 l 2,11,12
 697.244431605 2.27373675443e-13 697.244431605 2.27373675443e-13 576.193359375 -489.442382812 c 2,13,-1
 570.641601562 -511.889648438 l 1,14,-1
 434.4921875 -566.115234375 l 1,15,-1
 414.087890625 -549.961914062 l 2,16,17
 180 -365 180 -365 143.073242188 0 c 1,18,-1
 -4 0 l 2,19,20
 -32 0 -32 0 -53.103515625 14.1201171875 c 0,21,22
 -96.6240234375 42.7526417156 -96.6240234375 42.7526417156 -96.6240234375 119 c 2,23,-1
 -96.6240234375 152.890625 l 2,24,25
 -97 204 -97 204 -74.3565610213 239.732064399 c 128,-1,26
 -51.7131220426 275.464128797 -51.7131220426 275.464128797 -3.8544921875 275.479492188 c 2,27,-1
 136.08203125 275.524414062 l 1,28,29
 129.794823831 638.596144725 129.794823831 638.596144725 242 788.83644499 c 4,30,31
 333.136603121 910.866382338 333.136603121 910.866382338 472.444335938 910.495117188 c 0,32,33
 615 910 615 910 689 815 c 128,-1,34
 763 720 763 720 763.064941406 574.773925781 c 0,35,36
 763.220904221 226.000028825 763.220904221 226.000028825 520 56 c 24,37,38
 457 12 457 12 389.879882812 3.03125 c 1,39,40
 398 -93 398 -93 427.682617188 -178.236328125 c 1,41,42
 705 281 705 281 957.282226562 276.637695312 c 2,0,-1
374.209960938 278.03125 m 1,43,44
 437 283 437 283 464.397460938 326.4453125 c 0,45,46
 521 414 521 414 521.58984375 557.337890625 c 0,47,48
 522 663 522 663 467.58984375 663.559570312 c 0,49,50
 410.666320521 664.109491249 410.666320521 664.109491249 387.54536001 505 c 0,51,52
 371.305065274 393.240584477 371.305065274 393.240584477 374.209960938 278.03125 c 1,43,44
EndSplineSet
EndChar

StartChar: uniFEEE
Encoding: 65262 65262 248
Width: 950
VWidth: 2356
GlyphClass: 2
Flags: W
AnchorPoint: "Anchor-10" 389.5 1170.72 basechar 0
AnchorPoint: "Anchor-7" 577.666 -602.912 basechar 0
LayerCount: 2
Fore
SplineSet
957.606445312 275.479492188 m 2,0,1
 1049.78396596 274.551289508 1049.78396596 274.551289508 1050.37597656 153.109375 c 6,2,-1
 1050.37597656 119 l 2,3,4
 1050.37597656 0 1050.37597656 0 956.620117188 0 c 2,5,-1
 858.884765625 0 l 1,6,7
 821.516601562 -181.68359375 821.516601562 -181.68359375 698.438476562 -324.569335938 c 0,8,9
 516.681640625 -535.969726562 516.681640625 -535.969726562 144.970703125 -536.506835938 c 2,10,-1
 115.575195312 -536.521484375 l 1,11,-1
 10.0671237376 -332 l 2,12,13
 -0.6806640625 -311.166015625 -0.6806640625 -311.166015625 21 -309.846691728 c 2,14,-1
 68.2294921875 -306.97265625 l 2,15,16
 517.217905167 -279.649877209 517.217905167 -279.649877209 608.606445312 1.1982421875 c 1,17,18
 563.739257812 1.154296875 563.739257812 1.154296875 491.068359375 1.3134765625 c 0,19,20
 269.115234375 0.9658203125 269.115234375 0.9658203125 174.006835938 122.370117188 c 0,21,22
 98.3671875 220.836914062 98.3671875 220.836914062 114.33984375 372.669921875 c 0,23,24
 136.975585938 586.001953125 136.975585938 586.001953125 273.33984375 717.771484375 c 0,25,26
 366.881835938 809.21875 366.881835938 809.21875 482.149414062 807.987792969 c 0,27,28
 707.413852562 805.582165567 707.413852562 805.582165567 810.361328125 592.904296875 c 0,29,30
 863.261098019 484.160723767 863.261098019 484.160723767 873.935546875 275.493164062 c 1,31,-1
 957.606445312 275.479492188 l 2,0,1
491.465820312 545.703125 m 0,32,33
 427 545 427 545 386.021484375 468.873046875 c 0,34,35
 362 425 362 425 357.733398438 372.001953125 c 0,36,37
 353 318 353 318 375.959960938 296.288085938 c 0,38,39
 402 273 402 273 462.702148438 268.573242188 c 0,40,41
 521 264 521 264 630.250976562 268.188476562 c 1,42,43
 628 331 628 331 619.553710938 378.795898438 c 0,44,45
 590 546 590 546 491.465820312 545.703125 c 0,32,33
EndSplineSet
EndChar

StartChar: uniFEF0
Encoding: 65264 65264 250
Width: 1506
VWidth: 2356
GlyphClass: 2
Flags: W
AnchorPoint: "Anchor-10" 607.849 539.691 basechar 0
AnchorPoint: "Anchor-7" 366.391 -731.455 basechar 0
LayerCount: 2
Fore
SplineSet
1513.64160156 275.479492188 m 2,0,1
 1606.37597656 275.318072797 1606.37597656 275.318072797 1606.37597656 153.109375 c 2,2,-1
 1606.37597656 119 l 2,3,4
 1605.99863217 -0.432930746669 1605.99863217 -0.432930746669 1512.515625 0 c 2,5,-1
 1387.89160156 0.5771484375 l 1,6,-1
 1166.02734375 0 l 2,7,8
 1140 -0 1140 -0 1140 -10 c 0,9,10
 1140 -21 1140 -21 1182.0625 -26.0146484375 c 0,11,12
 1253 -36 1253 -36 1254.84179688 -35.9306640625 c 0,13,14
 1368 -56 1368 -56 1412.84570312 -134 c 0,15,16
 1450 -197 1450 -197 1436 -290 c 0,17,18
 1423 -377 1423 -377 1376 -444.520857323 c 0,19,20
 1293 -561 1293 -561 1133.0546875 -621.767578125 c 0,21,22
 970 -684 970 -684 770.491210938 -684.01171875 c 0,23,24
 311 -684 311 -684 156.629882812 -424.5 c 0,25,26
 78 -292 78 -292 76.7661132812 -82.068359375 c 0,27,28
 75.9999451629 128.015036345 75.9999451629 128.015036345 197.137695312 386.510742188 c 2,29,-1
 215.327148438 425.325195312 l 1,30,-1
 444.795898438 331.090820312 l 1,31,-1
 426.177734375 288.850585938 l 2,32,33
 331 73 331 73 332.787998432 -95.019619847 c 0,34,35
 335 -423 335 -423 780.672851562 -417.952148438 c 0,36,37
 968 -416 968 -416 1093.10742188 -357.283691406 c 0,38,39
 1188 -313 1188 -313 1212 -270.22914902 c 0,40,41
 1228.40933421 -241.535624193 1228.40933421 -241.535624193 1198 -241.946017461 c 0,42,43
 1139 -234 1139 -234 1079.64160156 -225.3828125 c 4,44,45
 977 -212 977 -212 928.26171875 -159.795898438 c 0,46,47
 874 -102 874 -102 873.336914062 -11.3530273438 c 0,48,49
 873 79 873 79 908.8671875 145.640625 c 0,50,51
 979.220438389 276.409739886 979.220438389 276.409739886 1173.65820312 276.071289062 c 2,52,-1
 1513.64160156 275.479492188 l 2,0,1
EndSplineSet
EndChar

StartChar: uniFEFB
Encoding: 65275 65275 261
Width: 1193
VWidth: 2356
GlyphClass: 3
Flags: W
AnchorPoint: "Anchor-9" 919.751 1608.28 baselig 0
AnchorPoint: "Anchor-6" 891.132 -184.49 baselig 0
AnchorPoint: "Anchor-6" 293.09 -232.622 baselig 1
AnchorPoint: "Anchor-9" 126.739 1554.23 baselig 1
LayerCount: 2
Fore
SplineSet
277.048828125 1413.83789062 m 2,0,1
 524.163125973 943.042302902 524.163125973 943.042302902 636.5625 283.15625 c 1,2,3
 824 322 824 322 850.169470889 534 c 0,4,5
 865.057385698 655.468201059 865.057385698 655.468201059 858.455078125 829.544921875 c 2,6,-1
 835.09765625 1445.38769531 l 1,7,-1
 1099.87988281 1561.10839844 l 1,8,-1
 1099.87988281 593.721679688 l 2,9,10
 1100 286 1100 286 934.009673458 140.515355984 c 0,11,12
 768 -4 768 -4 439.698242188 -2.96875 c 0,13,14
 224.748354656 -1.99886453925 224.748354656 -1.99886453925 152.6875 20.4853515625 c 2,15,-1
 121.091796875 30.34375 l 1,16,-1
 121.091796875 297.920898438 l 1,17,18
 320.15058978 253.065899471 320.15058978 253.065899471 396.989257812 257.466796875 c 5,19,20
 309.005929208 824.961756438 309.005929208 824.961756438 58.3740234375 1256.75976562 c 2,21,-1
 39.05859375 1290.03710938 l 1,22,-1
 251.508789062 1462.49609375 l 1,23,-1
 277.048828125 1413.83789062 l 2,0,1
EndSplineSet
LCarets2: 1 0
Ligature2: "'rlig' Required Ligatures in Arabic lookup 16 subtable" uniFEDF uniFE8E
EndChar

StartChar: uniFEFC
Encoding: 65276 65276 262
Width: 1314
VWidth: 2356
GlyphClass: 3
Flags: W
AnchorPoint: "Anchor-9" 968.512 1591.32 baselig 0
AnchorPoint: "Anchor-6" 920.812 -177.07 baselig 0
AnchorPoint: "Anchor-6" 246.98 -233.78 baselig 1
AnchorPoint: "Anchor-9" 125.61 1535.85 baselig 1
LayerCount: 2
Fore
SplineSet
1321.80175781 275.477539062 m 2,0,1
 1353.78079457 275.193705327 1353.78079457 275.193705327 1375.97753906 255.579101562 c 0,2,3
 1414.37597656 220.658072325 1414.37597656 220.658072325 1414.37597656 153.109375 c 2,4,-1
 1414.37597656 119 l 2,5,6
 1414 43 1414 43 1371.36328125 14.3984375 c 0,7,8
 1349.51786535 -0.324949409914 1349.51786535 -0.324949409914 1319.90429688 0.0048828125 c 2,9,-1
 1272.46972656 0.533203125 l 2,10,11
 1069 3 1069 3 972.870117188 145.044921875 c 0,12,13
 941 192 941 192 922.016601562 252.469726562 c 1,14,15
 747 2 747 2 360.58984375 0.5302734375 c 0,16,17
 249.767463654 -0.00111500155547 249.767463654 -0.00111500155547 152.809570312 18.4111328125 c 2,18,-1
 116.205078125 25.3623046875 l 1,19,-1
 116.205078125 296.158203125 l 1,20,-1
 170.493164062 284.70703125 l 2,21,22
 321 253 321 253 393.686523438 258.483398438 c 1,23,24
 312.023417133 836.83415624 312.023417133 836.83415624 57.9111328125 1258.76367188 c 2,25,-1
 37.841796875 1292.08691406 l 1,26,-1
 251.647460938 1467.55859375 l 1,27,-1
 277.26171875 1418.41308594 l 2,28,29
 519 954 519 954 624.91796875 322.43359375 c 1,30,31
 857.185480486 446.098754553 857.185480486 446.098754553 844.778320312 883.982421875 c 2,32,-1
 828.93359375 1443.1875 l 5,33,-1
 1092.41796875 1560.75390625 l 5,34,-1
 1092.41796875 686.828125 l 2,35,36
 1092.00933198 504.171307435 1092.00933198 504.171307435 1115.43164062 422.598632812 c 0,37,38
 1138 344 1138 344 1176.56640625 310.200195312 c 0,39,40
 1214.51704616 276.42975725 1214.51704616 276.42975725 1274.04980469 275.901367188 c 2,41,-1
 1321.80175781 275.477539062 l 2,0,1
EndSplineSet
LCarets2: 1 0
Ligature2: "'rlig' Required Ligatures in Arabic lookup 16 subtable" uniFEE0 uniFE8E
EndChar

StartChar: arabic_dot
Encoding: 65536 -1 263
Width: 165
VWidth: 2170
GlyphClass: 2
Flags: W
LayerCount: 2
Fore
SplineSet
126.011324803 212.76092557 m 2,0,-1
 209.220848859 129.551401509 l 2,1,2
 220.769722459 118.002958468 220.769722459 118.002958468 224.910888707 104.510906478 c 128,-1,3
 229.052054955 91.0188544886 229.052054955 91.0188544886 225.189208052 77.4161452207 c 128,-1,4
 221.32636115 63.8134359529 221.32636115 63.8134359529 209.751359561 52.2388748136 c 2,5,-1
 122.831882322 -34.68060241 l 2,6,7
 104.402219433 -53.1115530059 104.402219433 -53.1115530059 82.5377321596 -53.3811360972 c 128,-1,8
 60.6732448859 -53.6507191884 60.6732448859 -53.6507191884 41.9986404386 -35.2113204989 c 2,9,-1
 -44.9210441721 51.7083641163 l 2,10,11
 -62.9944850619 70.4763715905 -62.9944850619 70.4763715905 -61.7909245738 92.1812148763 c 128,-1,12
 -60.5873640856 113.886058162 -60.5873640856 113.886058162 -41.7415939364 132.731828311 c 2,13,-1
 39.3482498136 213.821672061 l 2,14,15
 59.2448528293 233.491653072 59.2448528293 233.491653072 82.6704663079 233.084536523 c 128,-1,16
 106.096079787 232.677419974 106.096079787 232.677419974 126.011324803 212.76092557 c 2,0,-1
EndSplineSet
EndChar

StartChar: arabic_2dots
Encoding: 65537 -1 264
Width: 485
VWidth: 2170
GlyphClass: 2
Flags: W
LayerCount: 2
Fore
SplineSet
436.591402928 212.760925569 m 2,0,-1
 519.800926985 129.551401509 l 2,1,2
 537.328650636 112.024331316 537.328650636 112.024331316 537.575619526 90.9720743101 c 128,-1,3
 537.822588416 69.9198173043 537.822588416 69.9198173043 520.331437686 52.2388748136 c 2,4,-1
 433.411738135 -34.6808247338 l 2,5,6
 414.982044257 -53.1111624665 414.982044257 -53.1111624665 393.11782339 -53.3807166285 c 128,-1,7
 371.253602523 -53.6502707905 371.253602523 -53.6502707905 352.578718564 -35.2113204989 c 2,8,-1
 265.659033953 51.7083641162 l 2,9,10
 253.61309831 63.7538506694 253.61309831 63.7538506694 250.124612947 78.0317792 c 128,-1,11
 246.636127584 92.3097077305 246.636127584 92.3097077305 251.555828715 106.33929085 c 128,-1,12
 256.475529846 120.368873969 256.475529846 120.368873969 268.838484189 132.731828311 c 2,13,-1
 349.928327939 213.821672061 l 2,14,15
 369.824930954 233.491653072 369.824930954 233.491653072 393.250544433 233.084536523 c 128,-1,16
 416.676157912 232.677419974 416.676157912 232.677419974 436.591402928 212.760925569 c 2,0,-1
136.611810929 212.761025381 m 2,17,-1
 219.821434797 129.551401509 l 2,18,19
 237.349235168 112.0242546 237.349235168 112.0242546 237.595827033 90.9717432687 c 128,-1,20
 237.842418898 69.9192319379 237.842418898 69.9192319379 220.350968936 52.2388748136 c 2,21,-1
 133.431269385 -34.6808247338 l 2,22,23
 115.001575507 -53.1111624665 115.001575507 -53.1111624665 93.13735464 -53.3807166285 c 128,-1,24
 71.2731337731 -53.6502707905 71.2731337731 -53.6502707905 52.5982498136 -35.2113204989 c 2,25,-1
 -34.3216720614 51.7086013761 l 2,26,27
 -52.394535736 70.4768485262 -52.394535736 70.4768485262 -51.1905972827 92.1815130035 c 128,-1,28
 -49.9866588295 113.886177481 -49.9866588295 113.886177481 -31.1410079989 132.731828311 c 2,29,-1
 49.9486291005 213.821465407 l 2,30,31
 69.8450243467 233.491644914 69.8450243467 233.491644914 93.2705756232 233.084489506 c 128,-1,32
 116.6961269 232.677334098 116.6961269 232.677334098 136.611810929 212.761025381 c 2,17,-1
EndSplineSet
EndChar

StartChar: arabic_3dots
Encoding: 65538 -1 265
Width: 488
VWidth: 2170
GlyphClass: 2
Flags: W
LayerCount: 2
Fore
SplineSet
437.271484375 200.041015625 m 6,0,-1
 520.481445312 116.83203125 l 6,1,2
 559.196289062 78.1181640625 559.196289062 78.1181640625 521.010742188 39.5185546875 c 6,3,-1
 434.090820312 -47.4013671875 l 6,4,5
 393.665039062 -87.828125 393.665039062 -87.828125 353.2578125 -47.9306640625 c 6,6,-1
 266.337890625 38.98828125 l 6,7,8
 228.149414062 78.6455078125 228.149414062 78.6455078125 269.518554688 120.010742188 c 6,9,-1
 350.608398438 201.1015625 l 6,10,11
 393.409179688 243.904296875 393.409179688 243.904296875 437.271484375 200.041015625 c 6,0,-1
137.291015625 200.041015625 m 6,12,-1
 220.500976562 116.83203125 l 6,13,14
 259.215820312 78.1181640625 259.215820312 78.1181640625 221.03125 39.5185546875 c 6,15,-1
 134.111328125 -47.40234375 l 6,16,17
 93.68359375 -87.8271484375 93.68359375 -87.8271484375 53.2783203125 -47.9306640625 c 6,18,-1
 -33.6416015625 38.9892578125 l 5,19,20
 -71.828125 78.64453125 -71.828125 78.64453125 -30.4619140625 120.010742188 c 6,21,-1
 50.6279296875 201.1015625 l 6,22,23
 93.6748046875 243.659179688 93.6748046875 243.659179688 137.291015625 200.041015625 c 6,12,-1
287.231445312 437.916015625 m 2,24,-1
 370.439453125 354.708007812 l 2,25,26
 409.162109375 315.997070312 409.162109375 315.997070312 370.971679688 277.392578125 c 2,27,-1
 284.051757812 190.471679688 l 2,28,29
 243.625 150.046875 243.625 150.046875 203.21875 189.942382812 c 2,30,-1
 116.26171875 276.899414062 l 2,31,32
 78.3251953125 316.735351562 78.3251953125 316.735351562 119.478515625 357.885742188 c 2,33,-1
 200.568359375 438.975585938 l 2,34,35
 243.369140625 481.77734375 243.369140625 481.77734375 287.231445312 437.916015625 c 2,24,-1
EndSplineSet
EndChar

